ISO-10303-21;
HEADER;
FILE_DESCRIPTION(('FreeCAD Model'),'2;1');
FILE_NAME('Open CASCADE Shape Model','2026-07-12T17:36:22',(''),(''),
  'Open CASCADE STEP processor 7.9','FreeCAD','Unknown');
FILE_SCHEMA(('AUTOMOTIVE_DESIGN { 1 0 10303 214 1 1 1 1 }'));
ENDSEC;
DATA;
#1 = APPLICATION_PROTOCOL_DEFINITION('international standard',
  'automotive_design',2000,#2);
#2 = APPLICATION_CONTEXT(
  'core data for automotive mechanical design processes');
#3 = SHAPE_DEFINITION_REPRESENTATION(#4,#10);
#4 = PRODUCT_DEFINITION_SHAPE('','',#5);
#5 = PRODUCT_DEFINITION('design','',#6,#9);
#6 = PRODUCT_DEFINITION_FORMATION('','',#7);
#7 = PRODUCT('Nosecone','Nosecone','',(#8));
#8 = PRODUCT_CONTEXT('',#2,'mechanical');
#9 = PRODUCT_DEFINITION_CONTEXT('part definition',#2,'design');
#10 = ADVANCED_BREP_SHAPE_REPRESENTATION('',(#11,#15),#1147);
#11 = AXIS2_PLACEMENT_3D('',#12,#13,#14);
#12 = CARTESIAN_POINT('',(0.,0.,0.));
#13 = DIRECTION('',(0.,0.,1.));
#14 = DIRECTION('',(1.,0.,-0.));
#15 = MANIFOLD_SOLID_BREP('',#16);
#16 = CLOSED_SHELL('',(#17,#242,#262,#535,#613,#633,#711,#789,#867,#910,
    #930));
#17 = ADVANCED_FACE('',(#18),#136,.T.);
#18 = FACE_BOUND('',#19,.T.);
#19 = EDGE_LOOP('',(#20,#128,#135));
#20 = ORIENTED_EDGE('',*,*,#21,.T.);
#21 = EDGE_CURVE('',#22,#24,#26,.T.);
#22 = VERTEX_POINT('',#23);
#23 = CARTESIAN_POINT('',(0.,0.,0.));
#24 = VERTEX_POINT('',#25);
#25 = CARTESIAN_POINT('',(177.8,41.12,0.));
#26 = B_SPLINE_CURVE_WITH_KNOTS('',3,(#27,#28,#29,#30,#31,#32,#33,#34,
    #35,#36,#37,#38,#39,#40,#41,#42,#43,#44,#45,#46,#47,#48,#49,#50,#51,
    #52,#53,#54,#55,#56,#57,#58,#59,#60,#61,#62,#63,#64,#65,#66,#67,#68,
    #69,#70,#71,#72,#73,#74,#75,#76,#77,#78,#79,#80,#81,#82,#83,#84,#85,
    #86,#87,#88,#89,#90,#91,#92,#93,#94,#95,#96,#97,#98,#99,#100,#101,
    #102,#103,#104,#105,#106,#107,#108,#109,#110,#111,#112,#113,#114,
    #115,#116,#117,#118,#119,#120,#121,#122,#123,#124,#125,#126,#127),
  .UNSPECIFIED.,.F.,.F.,(4,1,1,1,1,1,1,1,1,1,1,1,1,1,1,1,1,1,1,1,1,1,1,1
    ,1,1,1,1,1,1,1,1,1,1,1,1,1,1,1,1,1,1,1,1,1,1,1,1,1,1,1,1,1,1,1,1,1,1
    ,1,1,1,1,1,1,1,1,1,1,1,1,1,1,1,1,1,1,1,1,1,1,1,1,1,1,1,1,1,1,1,1,1,1
    ,1,1,1,1,1,1,4),(0.,1.020408163265E-02,2.040816326531E-02,
    3.061224489796E-02,4.081632653061E-02,5.102040816327E-02,
    6.122448979592E-02,7.142857142857E-02,8.163265306122E-02,
    9.183673469388E-02,0.102040816327,0.112244897959,0.122448979592,
    0.132653061224,0.142857142857,0.15306122449,0.163265306122,
    0.173469387755,0.183673469388,0.19387755102,0.204081632653,
    0.214285714286,0.224489795918,0.234693877551,0.244897959184,
    0.255102040816,0.265306122449,0.275510204082,0.285714285714,
    0.295918367347,0.30612244898,0.316326530612,0.326530612245,
    0.336734693878,0.34693877551,0.357142857143,0.367346938776,
    0.377551020408,0.387755102041,0.397959183673,0.408163265306,
    0.418367346939,0.428571428571,0.438775510204,0.448979591837,
    0.459183673469,0.469387755102,0.479591836735,0.489795918367,0.5,
    0.510204081633,0.520408163265,0.530612244898,0.540816326531,
    0.551020408163,0.561224489796,0.571428571429,0.581632653061,
    0.591836734694,0.602040816327,0.612244897959,0.622448979592,
    0.632653061224,0.642857142857,0.65306122449,0.663265306122,
    0.673469387755,0.683673469388,0.69387755102,0.704081632653,
    0.714285714286,0.724489795918,0.734693877551,0.744897959184,
    0.755102040816,0.765306122449,0.775510204082,0.785714285714,
    0.795918367347,0.80612244898,0.816326530612,0.826530612245,
    0.836734693878,0.84693877551,0.857142857143,0.867346938776,
    0.877551020408,0.887755102041,0.897959183673,0.908163265306,
    0.918367346939,0.928571428571,0.938775510204,0.948979591837,
    0.959183673469,0.969387755102,0.979591836735,0.989795918367,1.),
  .QUASI_UNIFORM_KNOTS.);
#27 = CARTESIAN_POINT('',(0.,0.,0.));
#28 = CARTESIAN_POINT('',(1.778,1.69170230641,0.));
#29 = CARTESIAN_POINT('',(3.556,2.840785904968,0.));
#30 = CARTESIAN_POINT('',(5.334,3.844542017852,0.));
#31 = CARTESIAN_POINT('',(7.112,4.763014028973,0.));
#32 = CARTESIAN_POINT('',(8.89,5.622028407209,0.));
#33 = CARTESIAN_POINT('',(10.668,6.435807390375,0.));
#34 = CARTESIAN_POINT('',(12.446,7.213275724441,0.));
#35 = CARTESIAN_POINT('',(14.224,7.960514945162,0.));
#36 = CARTESIAN_POINT('',(16.002,8.681912754281,0.));
#37 = CARTESIAN_POINT('',(17.78,9.380770708175,0.));
#38 = CARTESIAN_POINT('',(19.558,10.059654569147,0.));
#39 = CARTESIAN_POINT('',(21.336,10.720609916655,0.));
#40 = CARTESIAN_POINT('',(23.114,11.365301796473,0.));
#41 = CARTESIAN_POINT('',(24.892,11.995108973686,0.));
#42 = CARTESIAN_POINT('',(26.67,12.61118974296,0.));
#43 = CARTESIAN_POINT('',(28.448,13.214529206477,0.));
#44 = CARTESIAN_POINT('',(30.226,13.805974071678,0.));
#45 = CARTESIAN_POINT('',(32.004,14.386258803971,0.));
#46 = CARTESIAN_POINT('',(33.782,14.956025643057,0.));
#47 = CARTESIAN_POINT('',(35.56,15.515840169581,0.));
#48 = CARTESIAN_POINT('',(37.338,16.066203583932,0.));
#49 = CARTESIAN_POINT('',(39.116,16.60756251466,0.));
#50 = CARTESIAN_POINT('',(40.894,17.140316942734,0.));
#51 = CARTESIAN_POINT('',(42.672,17.664826669281,0.));
#52 = CARTESIAN_POINT('',(44.45,18.181416643528,0.));
#53 = CARTESIAN_POINT('',(46.228,18.69038138885,0.));
#54 = CARTESIAN_POINT('',(48.006,19.191988707881,0.));
#55 = CARTESIAN_POINT('',(49.784,19.686482805948,0.));
#56 = CARTESIAN_POINT('',(51.562,20.174086941097,0.));
#57 = CARTESIAN_POINT('',(53.34,20.655005685792,0.));
#58 = CARTESIAN_POINT('',(55.118,21.129426867666,0.));
#59 = CARTESIAN_POINT('',(56.896,21.597523243195,0.));
#60 = CARTESIAN_POINT('',(58.674,22.059453947666,0.));
#61 = CARTESIAN_POINT('',(60.452,22.515365756632,0.));
#62 = CARTESIAN_POINT('',(62.23,22.965394187568,0.));
#63 = CARTESIAN_POINT('',(64.008,23.409664465358,0.));
#64 = CARTESIAN_POINT('',(65.786,23.848292371098,0.));
#65 = CARTESIAN_POINT('',(67.564,24.281384990447,0.));
#66 = CARTESIAN_POINT('',(69.342,24.709041375051,0.));
#67 = CARTESIAN_POINT('',(71.12,25.131353128389,0.));
#68 = CARTESIAN_POINT('',(72.898,25.548404925624,0.));
#69 = CARTESIAN_POINT('',(74.676,25.960274975523,0.));
#70 = CARTESIAN_POINT('',(76.454,26.367035431328,0.));
#71 = CARTESIAN_POINT('',(78.232,26.768752756399,0.));
#72 = CARTESIAN_POINT('',(80.01,27.16548804962,0.));
#73 = CARTESIAN_POINT('',(81.788,27.557297334813,0.));
#74 = CARTESIAN_POINT('',(83.566,27.944231817802,0.));
#75 = CARTESIAN_POINT('',(85.344,28.326338114239,0.));
#76 = CARTESIAN_POINT('',(87.122,28.703658450853,0.));
#77 = CARTESIAN_POINT('',(88.9,29.076230842391,0.));
#78 = CARTESIAN_POINT('',(90.678,29.444089246176,0.));
#79 = CARTESIAN_POINT('',(92.456,29.807263695915,0.));
#80 = CARTESIAN_POINT('',(94.234,30.16578041611,0.));
#81 = CARTESIAN_POINT('',(96.012,30.519661918192,0.));
#82 = CARTESIAN_POINT('',(97.79,30.868927079281,0.));
#83 = CARTESIAN_POINT('',(99.568,31.213591204262,0.));
#84 = CARTESIAN_POINT('',(101.346,31.55366607168,0.));
#85 = CARTESIAN_POINT('',(103.124,31.889159963775,0.));
#86 = CARTESIAN_POINT('',(104.902,32.220077680793,0.));
#87 = CARTESIAN_POINT('',(106.68,32.546420539534,0.));
#88 = CARTESIAN_POINT('',(108.458,32.868186355898,0.));
#89 = CARTESIAN_POINT('',(110.236,33.185369411017,0.));
#90 = CARTESIAN_POINT('',(112.014,33.497960400338,0.));
#91 = CARTESIAN_POINT('',(113.792,33.805946364794,0.));
#92 = CARTESIAN_POINT('',(115.57,34.109310602966,0.));
#93 = CARTESIAN_POINT('',(117.348,34.408032562835,0.));
#94 = CARTESIAN_POINT('',(119.126,34.702087711416,0.));
#95 = CARTESIAN_POINT('',(120.904,34.991447380177,0.));
#96 = CARTESIAN_POINT('',(122.682,35.276078583708,0.));
#97 = CARTESIAN_POINT('',(124.46,35.555943808594,0.));
#98 = CARTESIAN_POINT('',(126.238,35.831000768791,0.));
#99 = CARTESIAN_POINT('',(128.016,36.101202123075,0.));
#100 = CARTESIAN_POINT('',(129.794,36.366495149197,0.));
#101 = CARTESIAN_POINT('',(131.572,36.626821368218,0.));
#102 = CARTESIAN_POINT('',(133.35,36.882116111124,0.));
#103 = CARTESIAN_POINT('',(135.128,37.132308018009,0.));
#104 = CARTESIAN_POINT('',(136.906,37.377318457892,0.));
#105 = CARTESIAN_POINT('',(138.684,37.617060854374,0.));
#106 = CARTESIAN_POINT('',(140.462,37.851439898631,0.));
#107 = CARTESIAN_POINT('',(142.24,38.080350626432,0.));
#108 = CARTESIAN_POINT('',(144.018,38.303677329523,0.));
#109 = CARTESIAN_POINT('',(145.796,38.521292263178,0.));
#110 = CARTESIAN_POINT('',(147.574,38.733054100241,0.));
#111 = CARTESIAN_POINT('',(149.352,38.938806066072,0.));
#112 = CARTESIAN_POINT('',(151.13,39.138373666608,0.));
#113 = CARTESIAN_POINT('',(152.908,39.331561890032,0.));
#114 = CARTESIAN_POINT('',(154.686,39.518151716333,0.));
#115 = CARTESIAN_POINT('',(156.464,39.697895700086,0.));
#116 = CARTESIAN_POINT('',(158.242,39.870512286017,0.));
#117 = CARTESIAN_POINT('',(160.02,40.0356783497,0.));
#118 = CARTESIAN_POINT('',(161.798,40.193019181533,0.));
#119 = CARTESIAN_POINT('',(163.576,40.342094663117,0.));
#120 = CARTESIAN_POINT('',(165.354,40.482379541267,0.));
#121 = CARTESIAN_POINT('',(167.132,40.613234089814,0.));
#122 = CARTESIAN_POINT('',(168.91,40.733858110772,0.));
#123 = CARTESIAN_POINT('',(170.688,40.84321360226,0.));
#124 = CARTESIAN_POINT('',(172.466,40.939881493148,0.));
#125 = CARTESIAN_POINT('',(174.244,41.02175441692,0.));
#126 = CARTESIAN_POINT('',(176.022,41.085186421708,0.));
#127 = CARTESIAN_POINT('',(177.8,41.12,0.));
#128 = ORIENTED_EDGE('',*,*,#129,.F.);
#129 = EDGE_CURVE('',#24,#24,#130,.T.);
#130 = CIRCLE('',#131,41.12);
#131 = AXIS2_PLACEMENT_3D('',#132,#133,#134);
#132 = CARTESIAN_POINT('',(177.8,0.,0.));
#133 = DIRECTION('',(1.,0.,0.));
#134 = DIRECTION('',(0.,1.,0.));
#135 = ORIENTED_EDGE('',*,*,#21,.F.);
#136 = SURFACE_OF_REVOLUTION('',#137,#239);
#137 = B_SPLINE_CURVE_WITH_KNOTS('',3,(#138,#139,#140,#141,#142,#143,
    #144,#145,#146,#147,#148,#149,#150,#151,#152,#153,#154,#155,#156,
    #157,#158,#159,#160,#161,#162,#163,#164,#165,#166,#167,#168,#169,
    #170,#171,#172,#173,#174,#175,#176,#177,#178,#179,#180,#181,#182,
    #183,#184,#185,#186,#187,#188,#189,#190,#191,#192,#193,#194,#195,
    #196,#197,#198,#199,#200,#201,#202,#203,#204,#205,#206,#207,#208,
    #209,#210,#211,#212,#213,#214,#215,#216,#217,#218,#219,#220,#221,
    #222,#223,#224,#225,#226,#227,#228,#229,#230,#231,#232,#233,#234,
    #235,#236,#237,#238),.UNSPECIFIED.,.F.,.F.,(4,1,1,1,1,1,1,1,1,1,1,1,
    1,1,1,1,1,1,1,1,1,1,1,1,1,1,1,1,1,1,1,1,1,1,1,1,1,1,1,1,1,1,1,1,1,1,
    1,1,1,1,1,1,1,1,1,1,1,1,1,1,1,1,1,1,1,1,1,1,1,1,1,1,1,1,1,1,1,1,1,1,
    1,1,1,1,1,1,1,1,1,1,1,1,1,1,1,1,1,1,4),(0.,1.020408163265E-02,
    2.040816326531E-02,3.061224489796E-02,4.081632653061E-02,
    5.102040816327E-02,6.122448979592E-02,7.142857142857E-02,
    8.163265306122E-02,9.183673469388E-02,0.102040816327,0.112244897959,
    0.122448979592,0.132653061224,0.142857142857,0.15306122449,
    0.163265306122,0.173469387755,0.183673469388,0.19387755102,
    0.204081632653,0.214285714286,0.224489795918,0.234693877551,
    0.244897959184,0.255102040816,0.265306122449,0.275510204082,
    0.285714285714,0.295918367347,0.30612244898,0.316326530612,
    0.326530612245,0.336734693878,0.34693877551,0.357142857143,
    0.367346938776,0.377551020408,0.387755102041,0.397959183673,
    0.408163265306,0.418367346939,0.428571428571,0.438775510204,
    0.448979591837,0.459183673469,0.469387755102,0.479591836735,
    0.489795918367,0.5,0.510204081633,0.520408163265,0.530612244898,
    0.540816326531,0.551020408163,0.561224489796,0.571428571429,
    0.581632653061,0.591836734694,0.602040816327,0.612244897959,
    0.622448979592,0.632653061224,0.642857142857,0.65306122449,
    0.663265306122,0.673469387755,0.683673469388,0.69387755102,
    0.704081632653,0.714285714286,0.724489795918,0.734693877551,
    0.744897959184,0.755102040816,0.765306122449,0.775510204082,
    0.785714285714,0.795918367347,0.80612244898,0.816326530612,
    0.826530612245,0.836734693878,0.84693877551,0.857142857143,
    0.867346938776,0.877551020408,0.887755102041,0.897959183673,
    0.908163265306,0.918367346939,0.928571428571,0.938775510204,
    0.948979591837,0.959183673469,0.969387755102,0.979591836735,
    0.989795918367,1.),.QUASI_UNIFORM_KNOTS.);
#138 = CARTESIAN_POINT('',(0.,0.,0.));
#139 = CARTESIAN_POINT('',(1.778,1.69170230641,0.));
#140 = CARTESIAN_POINT('',(3.556,2.840785904968,0.));
#141 = CARTESIAN_POINT('',(5.334,3.844542017852,0.));
#142 = CARTESIAN_POINT('',(7.112,4.763014028973,0.));
#143 = CARTESIAN_POINT('',(8.89,5.622028407209,0.));
#144 = CARTESIAN_POINT('',(10.668,6.435807390375,0.));
#145 = CARTESIAN_POINT('',(12.446,7.213275724441,0.));
#146 = CARTESIAN_POINT('',(14.224,7.960514945162,0.));
#147 = CARTESIAN_POINT('',(16.002,8.681912754281,0.));
#148 = CARTESIAN_POINT('',(17.78,9.380770708175,0.));
#149 = CARTESIAN_POINT('',(19.558,10.059654569147,0.));
#150 = CARTESIAN_POINT('',(21.336,10.720609916655,0.));
#151 = CARTESIAN_POINT('',(23.114,11.365301796473,0.));
#152 = CARTESIAN_POINT('',(24.892,11.995108973686,0.));
#153 = CARTESIAN_POINT('',(26.67,12.61118974296,0.));
#154 = CARTESIAN_POINT('',(28.448,13.214529206477,0.));
#155 = CARTESIAN_POINT('',(30.226,13.805974071678,0.));
#156 = CARTESIAN_POINT('',(32.004,14.386258803971,0.));
#157 = CARTESIAN_POINT('',(33.782,14.956025643057,0.));
#158 = CARTESIAN_POINT('',(35.56,15.515840169581,0.));
#159 = CARTESIAN_POINT('',(37.338,16.066203583932,0.));
#160 = CARTESIAN_POINT('',(39.116,16.60756251466,0.));
#161 = CARTESIAN_POINT('',(40.894,17.140316942734,0.));
#162 = CARTESIAN_POINT('',(42.672,17.664826669281,0.));
#163 = CARTESIAN_POINT('',(44.45,18.181416643528,0.));
#164 = CARTESIAN_POINT('',(46.228,18.69038138885,0.));
#165 = CARTESIAN_POINT('',(48.006,19.191988707881,0.));
#166 = CARTESIAN_POINT('',(49.784,19.686482805948,0.));
#167 = CARTESIAN_POINT('',(51.562,20.174086941097,0.));
#168 = CARTESIAN_POINT('',(53.34,20.655005685792,0.));
#169 = CARTESIAN_POINT('',(55.118,21.129426867666,0.));
#170 = CARTESIAN_POINT('',(56.896,21.597523243195,0.));
#171 = CARTESIAN_POINT('',(58.674,22.059453947666,0.));
#172 = CARTESIAN_POINT('',(60.452,22.515365756632,0.));
#173 = CARTESIAN_POINT('',(62.23,22.965394187568,0.));
#174 = CARTESIAN_POINT('',(64.008,23.409664465358,0.));
#175 = CARTESIAN_POINT('',(65.786,23.848292371098,0.));
#176 = CARTESIAN_POINT('',(67.564,24.281384990447,0.));
#177 = CARTESIAN_POINT('',(69.342,24.709041375051,0.));
#178 = CARTESIAN_POINT('',(71.12,25.131353128389,0.));
#179 = CARTESIAN_POINT('',(72.898,25.548404925624,0.));
#180 = CARTESIAN_POINT('',(74.676,25.960274975523,0.));
#181 = CARTESIAN_POINT('',(76.454,26.367035431328,0.));
#182 = CARTESIAN_POINT('',(78.232,26.768752756399,0.));
#183 = CARTESIAN_POINT('',(80.01,27.16548804962,0.));
#184 = CARTESIAN_POINT('',(81.788,27.557297334813,0.));
#185 = CARTESIAN_POINT('',(83.566,27.944231817802,0.));
#186 = CARTESIAN_POINT('',(85.344,28.326338114239,0.));
#187 = CARTESIAN_POINT('',(87.122,28.703658450853,0.));
#188 = CARTESIAN_POINT('',(88.9,29.076230842391,0.));
#189 = CARTESIAN_POINT('',(90.678,29.444089246176,0.));
#190 = CARTESIAN_POINT('',(92.456,29.807263695915,0.));
#191 = CARTESIAN_POINT('',(94.234,30.16578041611,0.));
#192 = CARTESIAN_POINT('',(96.012,30.519661918192,0.));
#193 = CARTESIAN_POINT('',(97.79,30.868927079281,0.));
#194 = CARTESIAN_POINT('',(99.568,31.213591204262,0.));
#195 = CARTESIAN_POINT('',(101.346,31.55366607168,0.));
#196 = CARTESIAN_POINT('',(103.124,31.889159963775,0.));
#197 = CARTESIAN_POINT('',(104.902,32.220077680793,0.));
#198 = CARTESIAN_POINT('',(106.68,32.546420539534,0.));
#199 = CARTESIAN_POINT('',(108.458,32.868186355898,0.));
#200 = CARTESIAN_POINT('',(110.236,33.185369411017,0.));
#201 = CARTESIAN_POINT('',(112.014,33.497960400338,0.));
#202 = CARTESIAN_POINT('',(113.792,33.805946364794,0.));
#203 = CARTESIAN_POINT('',(115.57,34.109310602966,0.));
#204 = CARTESIAN_POINT('',(117.348,34.408032562835,0.));
#205 = CARTESIAN_POINT('',(119.126,34.702087711416,0.));
#206 = CARTESIAN_POINT('',(120.904,34.991447380177,0.));
#207 = CARTESIAN_POINT('',(122.682,35.276078583708,0.));
#208 = CARTESIAN_POINT('',(124.46,35.555943808594,0.));
#209 = CARTESIAN_POINT('',(126.238,35.831000768791,0.));
#210 = CARTESIAN_POINT('',(128.016,36.101202123075,0.));
#211 = CARTESIAN_POINT('',(129.794,36.366495149197,0.));
#212 = CARTESIAN_POINT('',(131.572,36.626821368218,0.));
#213 = CARTESIAN_POINT('',(133.35,36.882116111124,0.));
#214 = CARTESIAN_POINT('',(135.128,37.132308018009,0.));
#215 = CARTESIAN_POINT('',(136.906,37.377318457892,0.));
#216 = CARTESIAN_POINT('',(138.684,37.617060854374,0.));
#217 = CARTESIAN_POINT('',(140.462,37.851439898631,0.));
#218 = CARTESIAN_POINT('',(142.24,38.080350626432,0.));
#219 = CARTESIAN_POINT('',(144.018,38.303677329523,0.));
#220 = CARTESIAN_POINT('',(145.796,38.521292263178,0.));
#221 = CARTESIAN_POINT('',(147.574,38.733054100241,0.));
#222 = CARTESIAN_POINT('',(149.352,38.938806066072,0.));
#223 = CARTESIAN_POINT('',(151.13,39.138373666608,0.));
#224 = CARTESIAN_POINT('',(152.908,39.331561890032,0.));
#225 = CARTESIAN_POINT('',(154.686,39.518151716333,0.));
#226 = CARTESIAN_POINT('',(156.464,39.697895700086,0.));
#227 = CARTESIAN_POINT('',(158.242,39.870512286017,0.));
#228 = CARTESIAN_POINT('',(160.02,40.0356783497,0.));
#229 = CARTESIAN_POINT('',(161.798,40.193019181533,0.));
#230 = CARTESIAN_POINT('',(163.576,40.342094663117,0.));
#231 = CARTESIAN_POINT('',(165.354,40.482379541267,0.));
#232 = CARTESIAN_POINT('',(167.132,40.613234089814,0.));
#233 = CARTESIAN_POINT('',(168.91,40.733858110772,0.));
#234 = CARTESIAN_POINT('',(170.688,40.84321360226,0.));
#235 = CARTESIAN_POINT('',(172.466,40.939881493148,0.));
#236 = CARTESIAN_POINT('',(174.244,41.02175441692,0.));
#237 = CARTESIAN_POINT('',(176.022,41.085186421708,0.));
#238 = CARTESIAN_POINT('',(177.8,41.12,0.));
#239 = AXIS1_PLACEMENT('',#240,#241);
#240 = CARTESIAN_POINT('',(0.,0.,0.));
#241 = DIRECTION('',(1.,0.,0.));
#242 = ADVANCED_FACE('',(#243,#246),#257,.T.);
#243 = FACE_BOUND('',#244,.T.);
#244 = EDGE_LOOP('',(#245));
#245 = ORIENTED_EDGE('',*,*,#129,.T.);
#246 = FACE_BOUND('',#247,.T.);
#247 = EDGE_LOOP('',(#248));
#248 = ORIENTED_EDGE('',*,*,#249,.F.);
#249 = EDGE_CURVE('',#250,#250,#252,.T.);
#250 = VERTEX_POINT('',#251);
#251 = CARTESIAN_POINT('',(177.8,39.37,0.));
#252 = CIRCLE('',#253,39.37);
#253 = AXIS2_PLACEMENT_3D('',#254,#255,#256);
#254 = CARTESIAN_POINT('',(177.8,0.,0.));
#255 = DIRECTION('',(1.,0.,0.));
#256 = DIRECTION('',(0.,1.,0.));
#257 = PLANE('',#258);
#258 = AXIS2_PLACEMENT_3D('',#259,#260,#261);
#259 = CARTESIAN_POINT('',(177.8,0.,0.));
#260 = DIRECTION('',(1.,0.,0.));
#261 = DIRECTION('',(0.,1.,0.));
#262 = ADVANCED_FACE('',(#263,#351,#408,#473),#530,.T.);
#263 = FACE_BOUND('',#264,.T.);
#264 = EDGE_LOOP('',(#265,#298,#306,#313,#314,#343,#349,#350));
#265 = ORIENTED_EDGE('',*,*,#266,.F.);
#266 = EDGE_CURVE('',#267,#269,#271,.T.);
#267 = VERTEX_POINT('',#268);
#268 = CARTESIAN_POINT('',(205.2,39.37,-3.422867287666E-15));
#269 = VERTEX_POINT('',#270);
#270 = CARTESIAN_POINT('',(201.2,39.37,0.));
#271 = B_SPLINE_CURVE_WITH_KNOTS('',7,(#272,#273,#274,#275,#276,#277,
    #278,#279,#280,#281,#282,#283,#284,#285,#286,#287,#288,#289,#290,
    #291,#292,#293,#294,#295,#296,#297),.UNSPECIFIED.,.F.,.F.,(8,6,6,6,8
    ),(0.,0.255753030736,0.500012544966,0.744282098432,1.),
  .UNSPECIFIED.);
#272 = CARTESIAN_POINT('',(205.2,39.37,-7.105427357601E-15));
#273 = CARTESIAN_POINT('',(205.2,39.37,-0.27637547868));
#274 = CARTESIAN_POINT('',(205.15544349443,39.367736491107,
    -0.544912170217));
#275 = CARTESIAN_POINT('',(205.07087652553,39.363440673215,
    -0.797378649942));
#276 = CARTESIAN_POINT('',(204.95237620385,39.357737112954,
    -1.027056359733));
#277 = CARTESIAN_POINT('',(204.80746820285,39.351465204687,
    -1.228952246042));
#278 = CARTESIAN_POINT('',(204.64497413711,39.345342008195,
    -1.400285888078));
#279 = CARTESIAN_POINT('',(204.31236727497,39.334563537671,
    -1.675442214165));
#280 = CARTESIAN_POINT('',(204.13871621394,39.329718262749,
    -1.785434278983));
#281 = CARTESIAN_POINT('',(203.95749123956,39.325603855844,
    -1.872024271279));
#282 = CARTESIAN_POINT('',(203.77124482213,39.322412394546,
    -1.936199025215));
#283 = CARTESIAN_POINT('',(203.58189624921,39.320249553071,
    -1.978718943139));
#284 = CARTESIAN_POINT('',(203.39100344528,39.319167081717,-2.));
#285 = CARTESIAN_POINT('',(203.00898870434,39.319167081717,-2.));
#286 = CARTESIAN_POINT('',(202.81809793568,39.320249639852,
    -1.978717223201));
#287 = CARTESIAN_POINT('',(202.6287539193,39.322412465238,
    -1.936197671942));
#288 = CARTESIAN_POINT('',(202.44251003633,39.325603825396,
    -1.872024597415));
#289 = CARTESIAN_POINT('',(202.26128444217,39.329718235554,
    -1.785435112608));
#290 = CARTESIAN_POINT('',(202.08763196147,39.334563562415,
    -1.675441582499));
#291 = CARTESIAN_POINT('',(201.75505702109,39.345340998481,
    -1.400311664394));
#292 = CARTESIAN_POINT('',(201.59254954299,39.351464316077,
    -1.228980485256));
#293 = CARTESIAN_POINT('',(201.44761458927,39.357737300563,
    -1.027061025783));
#294 = CARTESIAN_POINT('',(201.32909783921,39.363441972581,
    -0.797344310968));
#295 = CARTESIAN_POINT('',(201.24453647789,39.36773750946,
    -0.544845459823));
#296 = CARTESIAN_POINT('',(201.2,39.37,-0.276313380851));
#297 = CARTESIAN_POINT('',(201.2,39.37,-6.661338147751E-15));
#298 = ORIENTED_EDGE('',*,*,#299,.T.);
#299 = EDGE_CURVE('',#267,#300,#302,.T.);
#300 = VERTEX_POINT('',#301);
#301 = CARTESIAN_POINT('',(228.6,39.37,0.));
#302 = LINE('',#303,#304);
#303 = CARTESIAN_POINT('',(177.8,39.37,0.));
#304 = VECTOR('',#305,1.);
#305 = DIRECTION('',(1.,0.,0.));
#306 = ORIENTED_EDGE('',*,*,#307,.F.);
#307 = EDGE_CURVE('',#300,#300,#308,.T.);
#308 = CIRCLE('',#309,39.37);
#309 = AXIS2_PLACEMENT_3D('',#310,#311,#312);
#310 = CARTESIAN_POINT('',(228.6,0.,0.));
#311 = DIRECTION('',(1.,0.,0.));
#312 = DIRECTION('',(0.,1.,0.));
#313 = ORIENTED_EDGE('',*,*,#299,.F.);
#314 = ORIENTED_EDGE('',*,*,#315,.F.);
#315 = EDGE_CURVE('',#269,#267,#316,.T.);
#316 = B_SPLINE_CURVE_WITH_KNOTS('',7,(#317,#318,#319,#320,#321,#322,
    #323,#324,#325,#326,#327,#328,#329,#330,#331,#332,#333,#334,#335,
    #336,#337,#338,#339,#340,#341,#342),.UNSPECIFIED.,.F.,.F.,(8,6,6,6,8
    ),(0.,0.255774730315,0.500053820991,0.744332917026,1.),
  .UNSPECIFIED.);
#317 = CARTESIAN_POINT('',(201.2,39.37,-1.828877468764E-15));
#318 = CARTESIAN_POINT('',(201.2,39.37,0.276375478679));
#319 = CARTESIAN_POINT('',(201.24455650556,39.367736491107,
    0.544912170217));
#320 = CARTESIAN_POINT('',(201.32912347446,39.363440673215,
    0.797378649941));
#321 = CARTESIAN_POINT('',(201.44762379614,39.357737112954,
    1.027056359734));
#322 = CARTESIAN_POINT('',(201.59253179714,39.351465204687,
    1.228952246042));
#323 = CARTESIAN_POINT('',(201.75502586288,39.345342008195,
    1.400285888079));
#324 = CARTESIAN_POINT('',(202.08763196147,39.334563562415,
    1.675441582498));
#325 = CARTESIAN_POINT('',(202.26128444217,39.329718235554,
    1.785435112608));
#326 = CARTESIAN_POINT('',(202.44251003633,39.325603825396,
    1.872024597416));
#327 = CARTESIAN_POINT('',(202.6287539193,39.322412465238,1.936197671942
    ));
#328 = CARTESIAN_POINT('',(202.81809793568,39.320249639852,
    1.978717223202));
#329 = CARTESIAN_POINT('',(203.00898870434,39.319167081717,2.));
#330 = CARTESIAN_POINT('',(203.39101129984,39.319167081717,2.));
#331 = CARTESIAN_POINT('',(203.58190205407,39.320249639887,
    1.978717222187));
#332 = CARTESIAN_POINT('',(203.77124608802,39.322412465057,
    1.936197676763));
#333 = CARTESIAN_POINT('',(203.95748996756,39.325603825752,
    1.872024588325));
#334 = CARTESIAN_POINT('',(204.13871554938,39.329718235229,
    1.785435120794));
#335 = CARTESIAN_POINT('',(204.3123680423,39.334563562537,1.675441579374
    ));
#336 = CARTESIAN_POINT('',(204.64490252881,39.345339687654,
    1.400345127617));
#337 = CARTESIAN_POINT('',(204.80743667815,39.351463459543,1.22900943784
    ));
#338 = CARTESIAN_POINT('',(204.95240647144,39.357738021715,
    1.027052458174));
#339 = CARTESIAN_POINT('',(205.07093712715,39.363443758115,
    0.797287617544));
#340 = CARTESIAN_POINT('',(205.15548652629,39.367738676012,
    0.544759471942));
#341 = CARTESIAN_POINT('',(205.2,39.37,0.276241984317));
#342 = CARTESIAN_POINT('',(205.2,39.37,-2.34966184872E-15));
#343 = ORIENTED_EDGE('',*,*,#344,.F.);
#344 = EDGE_CURVE('',#250,#269,#345,.T.);
#345 = LINE('',#346,#347);
#346 = CARTESIAN_POINT('',(177.8,39.37,0.));
#347 = VECTOR('',#348,1.);
#348 = DIRECTION('',(1.,0.,0.));
#349 = ORIENTED_EDGE('',*,*,#249,.T.);
#350 = ORIENTED_EDGE('',*,*,#344,.T.);
#351 = FACE_BOUND('',#352,.T.);
#352 = EDGE_LOOP('',(#353));
#353 = ORIENTED_EDGE('',*,*,#354,.F.);
#354 = EDGE_CURVE('',#355,#355,#357,.T.);
#355 = VERTEX_POINT('',#356);
#356 = CARTESIAN_POINT('',(205.2,-4.898587196589E-16,39.37));
#357 = B_SPLINE_CURVE_WITH_KNOTS('',7,(#358,#359,#360,#361,#362,#363,
    #364,#365,#366,#367,#368,#369,#370,#371,#372,#373,#374,#375,#376,
    #377,#378,#379,#380,#381,#382,#383,#384,#385,#386,#387,#388,#389,
    #390,#391,#392,#393,#394,#395,#396,#397,#398,#399,#400,#401,#402,
    #403,#404,#405,#406,#407),.UNSPECIFIED.,.T.,.F.,(8,6,6,6,6,6,6,6,8),
  (0.,0.142632433597,0.278854982759,0.448930345896,0.595157193987,
    0.689793638676,0.793898597319,0.894601965912,1.),.UNSPECIFIED.);
#358 = CARTESIAN_POINT('',(205.2,1.110223024625E-15,39.37));
#359 = CARTESIAN_POINT('',(205.2,0.27637547868,39.37));
#360 = CARTESIAN_POINT('',(205.15544349443,0.544912170216,
    39.367736491107));
#361 = CARTESIAN_POINT('',(205.07087652553,0.797378649943,
    39.363440673215));
#362 = CARTESIAN_POINT('',(204.95237620385,1.027056359732,
    39.357737112954));
#363 = CARTESIAN_POINT('',(204.80746820285,1.228952246042,
    39.351465204687));
#364 = CARTESIAN_POINT('',(204.64497413711,1.400285888078,
    39.345342008195));
#365 = CARTESIAN_POINT('',(204.31236727097,1.675442217478,
    39.334563537541));
#366 = CARTESIAN_POINT('',(204.13871622267,1.78543427048,39.329718263086
    ));
#367 = CARTESIAN_POINT('',(203.95749123587,1.87202428045,39.325603855484
    ));
#368 = CARTESIAN_POINT('',(203.77124481445,1.936199020524,
    39.322412394724));
#369 = CARTESIAN_POINT('',(203.58189625924,1.978718944125,
    39.320249553037));
#370 = CARTESIAN_POINT('',(203.39100344115,2.,39.319167081717));
#371 = CARTESIAN_POINT('',(202.96153008577,2.,39.319167081717));
#372 = CARTESIAN_POINT('',(202.72319634309,1.966826700471,
    39.320854349447));
#373 = CARTESIAN_POINT('',(202.48778018929,1.90055123333,39.324226097301
    ));
#374 = CARTESIAN_POINT('',(202.25834301592,1.800084429914,
    39.329158178074));
#375 = CARTESIAN_POINT('',(202.03916325024,1.663665430801,39.33539455826
    ));
#376 = CARTESIAN_POINT('',(201.83621204727,1.489092562171,
    39.342412893236));
#377 = CARTESIAN_POINT('',(201.50658793939,1.090645462054,39.35532185942
    ));
#378 = CARTESIAN_POINT('',(201.36723490729,0.869896944043,39.36146598131
    ));
#379 = CARTESIAN_POINT('',(201.25749818174,0.616989989585,
    39.366930370032));
#380 = CARTESIAN_POINT('',(201.18882289929,0.341119671506,
    39.370613120862));
#381 = CARTESIAN_POINT('',(201.16740432785,5.477624969165E-02,
    39.371693875431));
#382 = CARTESIAN_POINT('',(201.19385050727,-0.228708064024,
    39.370252585324));
#383 = CARTESIAN_POINT('',(201.30747884435,-0.671261218017,
    39.364661156423));
#384 = CARTESIAN_POINT('',(201.37033472749,-0.840471196351,
    39.361627151898));
#385 = CARTESIAN_POINT('',(201.45080627943,-1.002701742075,
    39.357871412882));
#386 = CARTESIAN_POINT('',(201.54794997321,-1.155778470846,
    39.353576234004));
#387 = CARTESIAN_POINT('',(201.66048760031,-1.297681689,39.34897229501)
  );
#388 = CARTESIAN_POINT('',(201.78683590005,-1.426601439426,
    39.344311170931));
#389 = CARTESIAN_POINT('',(202.07730687,-1.666899923989,39.334898157718)
  );
#390 = CARTESIAN_POINT('',(202.24397015813,-1.775252438677,
    39.330183276562));
#391 = CARTESIAN_POINT('',(202.4226918229,-1.864058118605,
    39.325998522005));
#392 = CARTESIAN_POINT('',(202.61071888533,-1.931753524521,
    39.322638763922));
#393 = CARTESIAN_POINT('',(202.80505147901,-1.977255592233,
    39.320323883556));
#394 = CARTESIAN_POINT('',(203.0025366604,-2.,39.319167081717));
#395 = CARTESIAN_POINT('',(203.39101129984,-2.,39.319167081717));
#396 = CARTESIAN_POINT('',(203.58190205407,-1.978717222187,
    39.320249639886));
#397 = CARTESIAN_POINT('',(203.77124608802,-1.936197676763,
    39.322412465057));
#398 = CARTESIAN_POINT('',(203.95748996756,-1.872024588325,
    39.325603825752));
#399 = CARTESIAN_POINT('',(204.13871554938,-1.785435120794,
    39.329718235229));
#400 = CARTESIAN_POINT('',(204.3123680423,-1.675441579374,
    39.334563562537));
#401 = CARTESIAN_POINT('',(204.64490252879,-1.400345127633,
    39.345339687653));
#402 = CARTESIAN_POINT('',(204.80743667815,-1.229009437845,
    39.351463459542));
#403 = CARTESIAN_POINT('',(204.95240647145,-1.027052458157,
    39.357738021716));
#404 = CARTESIAN_POINT('',(205.07093712715,-0.797287617524,
    39.363443758115));
#405 = CARTESIAN_POINT('',(205.15548652629,-0.544759471945,
    39.367738676011));
#406 = CARTESIAN_POINT('',(205.2,-0.276241984341,39.37));
#407 = CARTESIAN_POINT('',(205.2,1.110223024625E-15,39.37));
#408 = FACE_BOUND('',#409,.T.);
#409 = EDGE_LOOP('',(#410));
#410 = ORIENTED_EDGE('',*,*,#411,.T.);
#411 = EDGE_CURVE('',#412,#412,#414,.T.);
#412 = VERTEX_POINT('',#413);
#413 = CARTESIAN_POINT('',(205.2,-39.37,6.556422071924E-15));
#414 = B_SPLINE_CURVE_WITH_KNOTS('',8,(#415,#416,#417,#418,#419,#420,
    #421,#422,#423,#424,#425,#426,#427,#428,#429,#430,#431,#432,#433,
    #434,#435,#436,#437,#438,#439,#440,#441,#442,#443,#444,#445,#446,
    #447,#448,#449,#450,#451,#452,#453,#454,#455,#456,#457,#458,#459,
    #460,#461,#462,#463,#464,#465,#466,#467,#468,#469,#470,#471,#472),
  .UNSPECIFIED.,.T.,.F.,(9,7,7,7,7,7,7,7,9),(0.,0.127137438026,
    0.248561334856,0.36999022492,0.464299659248,0.582636332568,
    0.660025346816,0.813838617823,1.),.UNSPECIFIED.);
#415 = CARTESIAN_POINT('',(205.2,-39.37,8.881784197001E-15));
#416 = CARTESIAN_POINT('',(205.2,-39.37,-0.241828543845));
#417 = CARTESIAN_POINT('',(205.16658262082,-39.36830236833,
    -0.477777997333));
#418 = CARTESIAN_POINT('',(205.10258913887,-39.36505160492,
    -0.702703720045));
#419 = CARTESIAN_POINT('',(205.01162636469,-39.36058889308,
    -0.912217504837));
#420 = CARTESIAN_POINT('',(204.89803570348,-39.35538514735,
    -1.102767317099));
#421 = CARTESIAN_POINT('',(204.76684468641,-39.34993440556,
    -1.271785656551));
#422 = CARTESIAN_POINT('',(204.62370836741,-39.34465286886,
    -1.417878462763));
#423 = CARTESIAN_POINT('',(204.33267735953,-39.33522170703,
    -1.658640250987));
#424 = CARTESIAN_POINT('',(204.18212898475,-39.3309295817,-1.75793625723
    ));
#425 = CARTESIAN_POINT('',(204.02545060592,-39.32714675833,
    -1.839553026711));
#426 = CARTESIAN_POINT('',(203.86436802516,-39.3240081251,
    -1.904111650487));
#427 = CARTESIAN_POINT('',(203.70023910625,-39.32160132909,
    -1.952143991875));
#428 = CARTESIAN_POINT('',(203.53417305471,-39.3199789352,
    -1.984039208094));
#429 = CARTESIAN_POINT('',(203.367128011,-39.31916708171,-2.));
#430 = CARTESIAN_POINT('',(203.0328651163,-39.31916708171,-2.));
#431 = CARTESIAN_POINT('',(202.86582062784,-39.31997900031,
    -1.984037917401));
#432 = CARTESIAN_POINT('',(202.69975792544,-39.32160140571,
    -1.952142503664));
#433 = CARTESIAN_POINT('',(202.53563197782,-39.32400814531,
    -1.904111134679));
#434 = CARTESIAN_POINT('',(202.37455043852,-39.3271467292,
    -1.839553540613));
#435 = CARTESIAN_POINT('',(202.21787132199,-39.33092956726,
    -1.757936730081));
#436 = CARTESIAN_POINT('',(202.06732196885,-39.3352217288,-1.65863969538
    ));
#437 = CARTESIAN_POINT('',(201.81473375512,-39.34340711198,
    -1.449680552285));
#438 = CARTESIAN_POINT('',(201.70870376608,-39.34719696729,
    -1.346734276539));
#439 = CARTESIAN_POINT('',(201.60878368827,-39.35109322828,
    -1.232121306535));
#440 = CARTESIAN_POINT('',(201.51671657783,-39.35496208263,
    -1.105993364376));
#441 = CARTESIAN_POINT('',(201.43426985446,-39.35864542233,
    -0.968723314971));
#442 = CARTESIAN_POINT('',(201.36324110917,-39.36196981573,
    -0.820915699692));
#443 = CARTESIAN_POINT('',(201.30546677743,-39.36476016631,
    -0.663424734754));
#444 = CARTESIAN_POINT('',(201.2093389322,-39.36949043013,
    -0.289031496362));
#445 = CARTESIAN_POINT('',(201.18060679079,-39.37098682019,
    -7.080746724824E-02));
#446 = CARTESIAN_POINT('',(201.17958204497,-39.37107011143,
    0.151710135226));
#447 = CARTESIAN_POINT('',(201.207057497,-39.36962279183,0.372362833901)
  );
#448 = CARTESIAN_POINT('',(201.26173642208,-39.36678764809,
    0.584964303129));
#449 = CARTESIAN_POINT('',(201.34029367087,-39.36292714369,
    0.783893328828));
#450 = CARTESIAN_POINT('',(201.43742057922,-39.3585041949,0.964634112708
    ));
#451 = CARTESIAN_POINT('',(201.61674149708,-39.35096681383,
    1.228496830528));
#452 = CARTESIAN_POINT('',(201.69354981518,-39.34788404645,
    1.325340609488));
#453 = CARTESIAN_POINT('',(201.7753946461,-39.34477793085,1.414707026737
    ));
#454 = CARTESIAN_POINT('',(201.86151329581,-39.34171783145,1.49665820519
    ));
#455 = CARTESIAN_POINT('',(201.95123652927,-39.33876276694,1.57129449804
    ));
#456 = CARTESIAN_POINT('',(202.04397636824,-39.33596155453,
    1.638740831674));
#457 = CARTESIAN_POINT('',(202.13921469355,-39.33335363459,
    1.699134349989));
#458 = CARTESIAN_POINT('',(202.42983586852,-39.32623416529,
    1.858904692953));
#459 = CARTESIAN_POINT('',(202.63152161384,-39.32237895067,
    1.938039166748));
#460 = CARTESIAN_POINT('',(202.83838025687,-39.31964702936,
    1.991180439442));
#461 = CARTESIAN_POINT('',(203.04808828457,-39.31817001956,
    2.019167616536));
#462 = CARTESIAN_POINT('',(203.25872248663,-39.31800290054,
    2.022446274367));
#463 = CARTESIAN_POINT('',(203.46850422323,-39.31914213901,2.00102828737
    ));
#464 = CARTESIAN_POINT('',(203.67555390818,-39.32152452733,
    1.954457906734));
#465 = CARTESIAN_POINT('',(204.12186350459,-39.32921337525,
    1.793776564887));
#466 = CARTESIAN_POINT('',(204.36696671843,-39.33517122396,
    1.664558969667));
#467 = CARTESIAN_POINT('',(204.6017796335,-39.3427034261,1.489988653809)
  );
#468 = CARTESIAN_POINT('',(204.81472804356,-39.35119228414,
    1.269005186052));
#469 = CARTESIAN_POINT('',(204.99379068903,-39.35952517847,
    1.003290227664));
#470 = CARTESIAN_POINT('',(205.12651770617,-39.36626697564,
    0.697336330622));
#471 = CARTESIAN_POINT('',(205.2,-39.37,0.358603837489));
#472 = CARTESIAN_POINT('',(205.2,-39.37,8.881784197001E-15));
#473 = FACE_BOUND('',#474,.T.);
#474 = EDGE_LOOP('',(#475));
#475 = ORIENTED_EDGE('',*,*,#476,.T.);
#476 = EDGE_CURVE('',#477,#477,#479,.T.);
#477 = VERTEX_POINT('',#478);
#478 = CARTESIAN_POINT('',(205.2,-4.898587196589E-16,-39.37));
#479 = B_SPLINE_CURVE_WITH_KNOTS('',7,(#480,#481,#482,#483,#484,#485,
    #486,#487,#488,#489,#490,#491,#492,#493,#494,#495,#496,#497,#498,
    #499,#500,#501,#502,#503,#504,#505,#506,#507,#508,#509,#510,#511,
    #512,#513,#514,#515,#516,#517,#518,#519,#520,#521,#522,#523,#524,
    #525,#526,#527,#528,#529),.UNSPECIFIED.,.T.,.F.,(8,6,6,6,6,6,6,6,8),
  (0.,0.142632433662,0.278854982885,0.4489303461,0.595157193934,
    0.689793638651,0.793898597276,0.894601965883,1.),.UNSPECIFIED.);
#480 = CARTESIAN_POINT('',(205.2,-3.996802888651E-15,-39.37));
#481 = CARTESIAN_POINT('',(205.2,0.276375478679,-39.37));
#482 = CARTESIAN_POINT('',(205.15544349443,0.544912170217,-39.3677364911
    ));
#483 = CARTESIAN_POINT('',(205.07087652553,0.797378649941,
    -39.36344067321));
#484 = CARTESIAN_POINT('',(204.95237620385,1.027056359734,
    -39.35773711295));
#485 = CARTESIAN_POINT('',(204.80746820285,1.228952246042,
    -39.35146520468));
#486 = CARTESIAN_POINT('',(204.64497413711,1.400285888079,
    -39.34534200819));
#487 = CARTESIAN_POINT('',(204.31236727097,1.675442217477,
    -39.33456353754));
#488 = CARTESIAN_POINT('',(204.13871622267,1.785434270481,
    -39.32971826308));
#489 = CARTESIAN_POINT('',(203.95749123587,1.87202428045,-39.32560385548
    ));
#490 = CARTESIAN_POINT('',(203.77124481446,1.936199020524,
    -39.32241239472));
#491 = CARTESIAN_POINT('',(203.58189625924,1.978718944125,
    -39.32024955303));
#492 = CARTESIAN_POINT('',(203.39100344115,2.,-39.31916708171));
#493 = CARTESIAN_POINT('',(202.96153008577,2.,-39.31916708171));
#494 = CARTESIAN_POINT('',(202.72319634309,1.966826700471,
    -39.32085434944));
#495 = CARTESIAN_POINT('',(202.48778018929,1.90055123333,-39.3242260973)
  );
#496 = CARTESIAN_POINT('',(202.25834301592,1.800084429914,
    -39.32915817807));
#497 = CARTESIAN_POINT('',(202.03916325024,1.663665430802,
    -39.33539455826));
#498 = CARTESIAN_POINT('',(201.83621204727,1.489092562171,
    -39.34241289323));
#499 = CARTESIAN_POINT('',(201.50658793972,1.090645462462,-39.3553218594
    ));
#500 = CARTESIAN_POINT('',(201.36723490678,0.869896943665,
    -39.36146598132));
#501 = CARTESIAN_POINT('',(201.25749818183,0.616989989094,
    -39.36693037003));
#502 = CARTESIAN_POINT('',(201.18882289959,0.341119671977,
    -39.37061312084));
#503 = CARTESIAN_POINT('',(201.16740432756,5.477625017301E-02,
    -39.37169387544));
#504 = CARTESIAN_POINT('',(201.1938505074,-0.228708064533,
    -39.37025258531));
#505 = CARTESIAN_POINT('',(201.30747884436,-0.671261218045,
    -39.36466115642));
#506 = CARTESIAN_POINT('',(201.37033472749,-0.840471196322,
    -39.36162715189));
#507 = CARTESIAN_POINT('',(201.45080627941,-1.002701742058,
    -39.35787141288));
#508 = CARTESIAN_POINT('',(201.54794997321,-1.155778470867,-39.353576234
    ));
#509 = CARTESIAN_POINT('',(201.66048760034,-1.297681689018,-39.348972295
    ));
#510 = CARTESIAN_POINT('',(201.78683590002,-1.426601439406,
    -39.34431117093));
#511 = CARTESIAN_POINT('',(202.07730686996,-1.666899923952,
    -39.33489815772));
#512 = CARTESIAN_POINT('',(202.24397015817,-1.775252438725,
    -39.33018327656));
#513 = CARTESIAN_POINT('',(202.42269182295,-1.864058118605,-39.325998522
    ));
#514 = CARTESIAN_POINT('',(202.61071888529,-1.931753524492,
    -39.32263876392));
#515 = CARTESIAN_POINT('',(202.80505147894,-1.977255592245,
    -39.32032388355));
#516 = CARTESIAN_POINT('',(203.00253666046,-2.,-39.31916708171));
#517 = CARTESIAN_POINT('',(203.39101129984,-2.,-39.31916708171));
#518 = CARTESIAN_POINT('',(203.58190205407,-1.978717222187,
    -39.32024963988));
#519 = CARTESIAN_POINT('',(203.77124608802,-1.936197676763,
    -39.32241246505));
#520 = CARTESIAN_POINT('',(203.95748996756,-1.872024588324,
    -39.32560382575));
#521 = CARTESIAN_POINT('',(204.13871554938,-1.785435120794,
    -39.32971823522));
#522 = CARTESIAN_POINT('',(204.3123680423,-1.675441579374,
    -39.33456356253));
#523 = CARTESIAN_POINT('',(204.64490252881,-1.400345127614,
    -39.34533968765));
#524 = CARTESIAN_POINT('',(204.80743667815,-1.22900943784,
    -39.35146345954));
#525 = CARTESIAN_POINT('',(204.95240647144,-1.027052458176,
    -39.35773802171));
#526 = CARTESIAN_POINT('',(205.07093712715,-0.797287617547,
    -39.36344375811));
#527 = CARTESIAN_POINT('',(205.1554865263,-0.544759471942,
    -39.36773867601));
#528 = CARTESIAN_POINT('',(205.2,-0.276241984314,-39.37));
#529 = CARTESIAN_POINT('',(205.2,-3.996802888651E-15,-39.37));
#530 = CYLINDRICAL_SURFACE('',#531,39.37);
#531 = AXIS2_PLACEMENT_3D('',#532,#533,#534);
#532 = CARTESIAN_POINT('',(177.8,0.,0.));
#533 = DIRECTION('',(1.,0.,0.));
#534 = DIRECTION('',(0.,1.,0.));
#535 = ADVANCED_FACE('',(#536),#608,.F.);
#536 = FACE_BOUND('',#537,.F.);
#537 = EDGE_LOOP('',(#538,#571,#576,#577,#578,#579));
#538 = ORIENTED_EDGE('',*,*,#539,.T.);
#539 = EDGE_CURVE('',#540,#542,#544,.T.);
#540 = VERTEX_POINT('',#541);
#541 = CARTESIAN_POINT('',(201.2,33.02,0.));
#542 = VERTEX_POINT('',#543);
#543 = CARTESIAN_POINT('',(205.2,33.02,-2.752171210047E-15));
#544 = B_SPLINE_CURVE_WITH_KNOTS('',7,(#545,#546,#547,#548,#549,#550,
    #551,#552,#553,#554,#555,#556,#557,#558,#559,#560,#561,#562,#563,
    #564,#565,#566,#567,#568,#569,#570),.UNSPECIFIED.,.F.,.F.,(8,6,6,6,8
    ),(0.,0.25578243227,0.500048191476,0.744317904206,1.),
  .UNSPECIFIED.);
#545 = CARTESIAN_POINT('',(201.2,33.02,-2.012064267827E-15));
#546 = CARTESIAN_POINT('',(201.2,33.02,0.276403156425));
#547 = CARTESIAN_POINT('',(201.24456542529,33.017300656873,
    0.544946443383));
#548 = CARTESIAN_POINT('',(201.32913758023,33.012178426075,
    0.797405841742));
#549 = CARTESIAN_POINT('',(201.44763641973,33.005377803137,1.02707240203
    ));
#550 = CARTESIAN_POINT('',(201.59253910108,32.997898730073,
    1.228959096654));
#551 = CARTESIAN_POINT('',(201.75502771301,32.990596324799,
    1.400287418641));
#552 = CARTESIAN_POINT('',(202.08761643511,32.977741613691,
    1.675428737981));
#553 = CARTESIAN_POINT('',(202.26125419883,32.971962599807,
    1.785416526359));
#554 = CARTESIAN_POINT('',(202.44247115415,32.967054631459,
    1.872008398505));
#555 = CARTESIAN_POINT('',(202.62871680613,32.963247140504,
    1.936188804246));
#556 = CARTESIAN_POINT('',(202.81807249735,32.960666574449,
    1.978715019944));
#557 = CARTESIAN_POINT('',(203.00897879699,32.959374994074,2.));
#558 = CARTESIAN_POINT('',(203.39102429474,32.959374994074,2.));
#559 = CARTESIAN_POINT('',(203.58192793988,32.960666616948,1.97871432568
    ));
#560 = CARTESIAN_POINT('',(203.77128108298,32.963247125582,
    1.936189036008));
#561 = CARTESIAN_POINT('',(203.95752717559,32.967054559483,
    1.872009523533));
#562 = CARTESIAN_POINT('',(204.13874668426,32.971962609574,
    1.785416685626));
#563 = CARTESIAN_POINT('',(204.31238571464,32.97774169678,1.675426959543
    ));
#564 = CARTESIAN_POINT('',(204.64490054926,32.990593552102,
    1.400346765247));
#565 = CARTESIAN_POINT('',(204.80742933218,32.997896645816,
    1.229016379179));
#566 = CARTESIAN_POINT('',(204.95239391278,33.005378890273,
    1.027068471341));
#567 = CARTESIAN_POINT('',(205.07092313106,33.012182110683,
    0.797314634895));
#568 = CARTESIAN_POINT('',(205.15547769022,33.017303267097,
    0.544793468384));
#569 = CARTESIAN_POINT('',(205.2,33.02,0.276269415561));
#570 = CARTESIAN_POINT('',(205.2,33.02,-1.644670228083E-15));
#571 = ORIENTED_EDGE('',*,*,#572,.F.);
#572 = EDGE_CURVE('',#267,#542,#573,.T.);
#573 = B_SPLINE_CURVE_WITH_KNOTS('',1,(#574,#575),.UNSPECIFIED.,.F.,.F.,
  (2,2),(-518.1006449852,518.1006449852),.PIECEWISE_BEZIER_KNOTS.);
#574 = CARTESIAN_POINT('',(205.2,518.1006449852,-5.801058523323E-14));
#575 = CARTESIAN_POINT('',(205.2,-518.1006449852,5.703086779391E-14));
#576 = ORIENTED_EDGE('',*,*,#315,.F.);
#577 = ORIENTED_EDGE('',*,*,#266,.F.);
#578 = ORIENTED_EDGE('',*,*,#572,.T.);
#579 = ORIENTED_EDGE('',*,*,#580,.T.);
#580 = EDGE_CURVE('',#542,#540,#581,.T.);
#581 = B_SPLINE_CURVE_WITH_KNOTS('',7,(#582,#583,#584,#585,#586,#587,
    #588,#589,#590,#591,#592,#593,#594,#595,#596,#597,#598,#599,#600,
    #601,#602,#603,#604,#605,#606,#607),.UNSPECIFIED.,.F.,.F.,(8,6,6,6,8
    ),(0.,0.255765267536,0.500012537724,0.744269900078,1.),
  .UNSPECIFIED.);
#582 = CARTESIAN_POINT('',(205.2,33.02,-5.773159728051E-15));
#583 = CARTESIAN_POINT('',(205.2,33.02,-0.276403156425));
#584 = CARTESIAN_POINT('',(205.1554345747,33.017300656873,
    -0.544946443383));
#585 = CARTESIAN_POINT('',(205.07086241976,33.012178426075,
    -0.797405841742));
#586 = CARTESIAN_POINT('',(204.95236358026,33.005377803137,
    -1.02707240203));
#587 = CARTESIAN_POINT('',(204.80746089891,32.997898730073,
    -1.228959096654));
#588 = CARTESIAN_POINT('',(204.64497228698,32.990596324799,
    -1.400287418641));
#589 = CARTESIAN_POINT('',(204.3123849598,32.977741667605,
    -1.675427583999));
#590 = CARTESIAN_POINT('',(204.13874737358,32.971962643234,
    -1.785415828915));
#591 = CARTESIAN_POINT('',(203.95752843955,32.967054594519,
    -1.872009224017));
#592 = CARTESIAN_POINT('',(203.77127977835,32.963247040889,
    -1.936190393104));
#593 = CARTESIAN_POINT('',(203.58192210013,32.960666512859,
    -1.978716055386));
#594 = CARTESIAN_POINT('',(203.39101640205,32.959374994074,-2.));
#595 = CARTESIAN_POINT('',(203.00897570525,32.959374994074,-2.));
#596 = CARTESIAN_POINT('',(202.81807206011,32.960666616948,
    -1.97871432568));
#597 = CARTESIAN_POINT('',(202.62871891701,32.963247125582,
    -1.936189036008));
#598 = CARTESIAN_POINT('',(202.4424728244,32.967054559483,
    -1.872009523533));
#599 = CARTESIAN_POINT('',(202.26125331573,32.971962609574,
    -1.785416685626));
#600 = CARTESIAN_POINT('',(202.08761428535,32.97774169678,
    -1.675426959543));
#601 = CARTESIAN_POINT('',(201.75505892351,32.990595118498,
    -1.400313238213));
#602 = CARTESIAN_POINT('',(201.59255687334,32.997897668741,
    -1.228987380851));
#603 = CARTESIAN_POINT('',(201.4476272011,33.00537802743,-1.027077073921
    ));
#604 = CARTESIAN_POINT('',(201.32911189149,33.012179978409,
    -0.79737144332));
#605 = CARTESIAN_POINT('',(201.24454536501,33.017301873104,
    -0.54487960182));
#606 = CARTESIAN_POINT('',(201.2,33.02,-0.276340965414));
#607 = CARTESIAN_POINT('',(201.2,33.02,-5.995204332976E-15));
#608 = CYLINDRICAL_SURFACE('',#609,2.);
#609 = AXIS2_PLACEMENT_3D('',#610,#611,#612);
#610 = CARTESIAN_POINT('',(203.2,0.,0.));
#611 = DIRECTION('',(0.,-1.,1.110223024625E-16));
#612 = DIRECTION('',(1.,0.,0.));
#613 = ADVANCED_FACE('',(#614,#617),#628,.T.);
#614 = FACE_BOUND('',#615,.T.);
#615 = EDGE_LOOP('',(#616));
#616 = ORIENTED_EDGE('',*,*,#307,.T.);
#617 = FACE_BOUND('',#618,.T.);
#618 = EDGE_LOOP('',(#619));
#619 = ORIENTED_EDGE('',*,*,#620,.F.);
#620 = EDGE_CURVE('',#621,#621,#623,.T.);
#621 = VERTEX_POINT('',#622);
#622 = CARTESIAN_POINT('',(228.6,33.02,0.));
#623 = CIRCLE('',#624,33.02);
#624 = AXIS2_PLACEMENT_3D('',#625,#626,#627);
#625 = CARTESIAN_POINT('',(228.6,0.,0.));
#626 = DIRECTION('',(1.,0.,0.));
#627 = DIRECTION('',(0.,1.,0.));
#628 = PLANE('',#629);
#629 = AXIS2_PLACEMENT_3D('',#630,#631,#632);
#630 = CARTESIAN_POINT('',(228.6,0.,0.));
#631 = DIRECTION('',(1.,0.,0.));
#632 = DIRECTION('',(0.,1.,0.));
#633 = ADVANCED_FACE('',(#634),#706,.F.);
#634 = FACE_BOUND('',#635,.F.);
#635 = EDGE_LOOP('',(#636,#637,#644,#705));
#636 = ORIENTED_EDGE('',*,*,#354,.F.);
#637 = ORIENTED_EDGE('',*,*,#638,.F.);
#638 = EDGE_CURVE('',#639,#355,#641,.T.);
#639 = VERTEX_POINT('',#640);
#640 = CARTESIAN_POINT('',(205.2,-4.898587196589E-16,33.02));
#641 = B_SPLINE_CURVE_WITH_KNOTS('',1,(#642,#643),.UNSPECIFIED.,.F.,.F.,
  (2,2),(-518.1006449852,518.1006449852),.PIECEWISE_BEZIER_KNOTS.);
#642 = CARTESIAN_POINT('',(205.2,-4.898587196589E-16,-518.1006449852));
#643 = CARTESIAN_POINT('',(205.2,-4.898587196589E-16,518.1006449852));
#644 = ORIENTED_EDGE('',*,*,#645,.T.);
#645 = EDGE_CURVE('',#639,#639,#646,.T.);
#646 = B_SPLINE_CURVE_WITH_KNOTS('',8,(#647,#648,#649,#650,#651,#652,
    #653,#654,#655,#656,#657,#658,#659,#660,#661,#662,#663,#664,#665,
    #666,#667,#668,#669,#670,#671,#672,#673,#674,#675,#676,#677,#678,
    #679,#680,#681,#682,#683,#684,#685,#686,#687,#688,#689,#690,#691,
    #692,#693,#694,#695,#696,#697,#698,#699,#700,#701,#702,#703,#704),
  .UNSPECIFIED.,.T.,.F.,(9,7,7,7,7,7,7,7,9),(0.,0.142643761446,
    0.278863776044,0.448933652178,0.595158975984,0.689789279567,
    0.793887810104,0.894591448883,1.),.UNSPECIFIED.);
#647 = CARTESIAN_POINT('',(205.2,6.661338147751E-16,33.02));
#648 = CARTESIAN_POINT('',(205.2,0.241852761872,33.02));
#649 = CARTESIAN_POINT('',(205.16657593103,0.477810621643,
    33.017975492655));
#650 = CARTESIAN_POINT('',(205.10257697786,0.702733567358,
    33.014099262624));
#651 = CARTESIAN_POINT('',(205.01161300001,0.912239121886,
    33.008778114606));
#652 = CARTESIAN_POINT('',(204.89802507476,1.102779912514,
    33.002573150738));
#653 = CARTESIAN_POINT('',(204.76683874593,1.271791177151,
    32.996073128754));
#654 = CARTESIAN_POINT('',(204.62370674854,1.417879802005,32.9897744017)
  );
#655 = CARTESIAN_POINT('',(204.33269284079,1.658627443774,
    32.978526576792));
#656 = CARTESIAN_POINT('',(204.18215676455,1.757918773276,
    32.973407399062));
#657 = CARTESIAN_POINT('',(204.02548553884,1.83953669829,32.968895112906
    ));
#658 = CARTESIAN_POINT('',(203.86440411468,1.904099806304,
    32.965150817814));
#659 = CARTESIAN_POINT('',(203.70027065006,1.952137519042,32.96227934276
    ));
#660 = CARTESIAN_POINT('',(203.53419566907,1.984037040794,
    32.960343633193));
#661 = CARTESIAN_POINT('',(203.36713935544,2.,32.959374994074));
#662 = CARTESIAN_POINT('',(202.99132751115,2.,32.959374994074));
#663 = CARTESIAN_POINT('',(202.78274717662,1.975117323811,
    32.960884788672));
#664 = CARTESIAN_POINT('',(202.57600882148,1.92539229134,32.963902548555
    ));
#665 = CARTESIAN_POINT('',(202.37299944564,1.850292307815,
    32.968353484552));
#666 = CARTESIAN_POINT('',(202.17609233256,1.748891272799,
    32.974085273607));
#667 = CARTESIAN_POINT('',(201.98838287101,1.619984986706,32.98082695189
    ));
#668 = CARTESIAN_POINT('',(201.81403641594,1.462286828653,
    32.988138822932));
#669 = CARTESIAN_POINT('',(201.52565112075,1.113688889865,
    33.001607659036));
#670 = CARTESIAN_POINT('',(201.4020876879,0.925109558601,33.007992940325
    ));
#671 = CARTESIAN_POINT('',(201.29866117024,0.711863565403,
    33.013894122921));
#672 = CARTESIAN_POINT('',(201.22316659267,0.479079491556,
    33.018538249234));
#673 = CARTESIAN_POINT('',(201.18079330657,0.233772331504,
    33.021211901045));
#674 = CARTESIAN_POINT('',(201.1740140163,-1.607398552687E-02,
    33.02159078172));
#675 = CARTESIAN_POINT('',(201.20247001951,-0.262278847765,
    33.019795498996));
#676 = CARTESIAN_POINT('',(201.30189826077,-0.649526279972,
    33.013961734761));
#677 = CARTESIAN_POINT('',(201.35462083905,-0.798168835969,
    33.010921053628));
#678 = CARTESIAN_POINT('',(201.42062945284,-0.941865218506,
    33.007217651904));
#679 = CARTESIAN_POINT('',(201.49937803027,-1.079239933332,
    33.002977313336));
#680 = CARTESIAN_POINT('',(201.59015146522,-1.208992061662,
    32.998357448216));
#681 = CARTESIAN_POINT('',(201.6920746611,-1.329911654286,
    32.993536167823));
#682 = CARTESIAN_POINT('',(201.80412554044,-1.440904673882,
    32.988698670592));
#683 = CARTESIAN_POINT('',(202.05828779469,-1.651165976548,
    32.978875179488));
#684 = CARTESIAN_POINT('',(202.20230489363,-1.748164671858,
    32.973922236791));
#685 = CARTESIAN_POINT('',(202.35567172074,-1.830756182632,
    32.969396422862));
#686 = CARTESIAN_POINT('',(202.5167055043,-1.897905756084,32.96552054211
    ));
#687 = CARTESIAN_POINT('',(202.68359324318,-1.948816611947,
    32.96248099643));
#688 = CARTESIAN_POINT('',(202.85442205978,-1.982941574477,
    32.960410012748));
#689 = CARTESIAN_POINT('',(203.02721895992,-2.,32.959374994074));
#690 = CARTESIAN_POINT('',(203.3671462542,-2.,32.959374994074));
#691 = CARTESIAN_POINT('',(203.53420203529,-1.984035745026,
    32.960343711199));
#692 = CARTESIAN_POINT('',(203.70027365357,-1.95213601698,
    32.962279434965));
#693 = CARTESIAN_POINT('',(203.86440412362,-1.904099281921,
    32.965150842428));
#694 = CARTESIAN_POINT('',(204.02548449207,-1.839537211951,
    32.968895078146));
#695 = CARTESIAN_POINT('',(204.18215644728,-1.757919248707,
    32.973407381631));
#696 = CARTESIAN_POINT('',(204.33269349442,-1.658626903047,
    32.978526602055));
#697 = CARTESIAN_POINT('',(204.62364397622,-1.417931731785,
    32.98977197552));
#698 = CARTESIAN_POINT('',(204.76679714027,-1.271848973395,
    32.996070872542));
#699 = CARTESIAN_POINT('',(204.89803219302,-1.102798935545,
    33.002573048519));
#700 = CARTESIAN_POINT('',(205.01165852038,-0.912191556754,
    33.008780500412));
#701 = CARTESIAN_POINT('',(205.10263109274,-0.702619198679,
    33.014102544417));
#702 = CARTESIAN_POINT('',(205.16660826711,-0.477662449684,
    33.017977450305));
#703 = CARTESIAN_POINT('',(205.2,-0.241735741725,33.02));
#704 = CARTESIAN_POINT('',(205.2,6.661338147751E-16,33.02));
#705 = ORIENTED_EDGE('',*,*,#638,.T.);
#706 = CYLINDRICAL_SURFACE('',#707,2.);
#707 = AXIS2_PLACEMENT_3D('',#708,#709,#710);
#708 = CARTESIAN_POINT('',(203.2,0.,0.));
#709 = DIRECTION('',(0.,0.,1.));
#710 = DIRECTION('',(1.,0.,0.));
#711 = ADVANCED_FACE('',(#712),#784,.F.);
#712 = FACE_BOUND('',#713,.F.);
#713 = EDGE_LOOP('',(#714,#715,#722,#783));
#714 = ORIENTED_EDGE('',*,*,#411,.T.);
#715 = ORIENTED_EDGE('',*,*,#716,.F.);
#716 = EDGE_CURVE('',#717,#412,#719,.T.);
#717 = VERTEX_POINT('',#718);
#718 = CARTESIAN_POINT('',(205.2,-33.02,5.498934640968E-15));
#719 = B_SPLINE_CURVE_WITH_KNOTS('',1,(#720,#721),.UNSPECIFIED.,.F.,.F.,
  (2,2),(-518.1006449852,518.1006449852),.PIECEWISE_BEZIER_KNOTS.);
#720 = CARTESIAN_POINT('',(205.2,518.1006449852,-5.801058523323E-14));
#721 = CARTESIAN_POINT('',(205.2,-518.1006449852,5.703086779391E-14));
#722 = ORIENTED_EDGE('',*,*,#723,.F.);
#723 = EDGE_CURVE('',#717,#717,#724,.T.);
#724 = B_SPLINE_CURVE_WITH_KNOTS('',8,(#725,#726,#727,#728,#729,#730,
    #731,#732,#733,#734,#735,#736,#737,#738,#739,#740,#741,#742,#743,
    #744,#745,#746,#747,#748,#749,#750,#751,#752,#753,#754,#755,#756,
    #757,#758,#759,#760,#761,#762,#763,#764,#765,#766,#767,#768,#769,
    #770,#771,#772,#773,#774,#775,#776,#777,#778,#779,#780,#781,#782),
  .UNSPECIFIED.,.T.,.F.,(9,7,7,7,7,7,7,7,9),(0.,0.12751820433,
    0.249293821509,0.37107447039,0.474146483105,0.583747838372,
    0.660934391321,0.814320408399,1.),.UNSPECIFIED.);
#725 = CARTESIAN_POINT('',(205.2,-33.02,7.771561172376E-15));
#726 = CARTESIAN_POINT('',(205.2,-33.02,-0.241852761872));
#727 = CARTESIAN_POINT('',(205.16657593103,-33.01797549265,
    -0.477810621643));
#728 = CARTESIAN_POINT('',(205.10257697786,-33.01409926262,
    -0.702733567358));
#729 = CARTESIAN_POINT('',(205.01161300001,-33.0087781146,
    -0.912239121886));
#730 = CARTESIAN_POINT('',(204.89802507476,-33.00257315073,
    -1.102779912514));
#731 = CARTESIAN_POINT('',(204.76683874593,-32.99607312875,
    -1.271791177151));
#732 = CARTESIAN_POINT('',(204.62370674854,-32.9897744017,
    -1.417879802005));
#733 = CARTESIAN_POINT('',(204.33269283726,-32.97852657665,
    -1.658627446693));
#734 = CARTESIAN_POINT('',(204.18215677014,-32.97340739932,
    -1.757918767686));
#735 = CARTESIAN_POINT('',(204.02548553981,-32.96889511278,
    -1.839536700853));
#736 = CARTESIAN_POINT('',(203.86440410895,-32.9651508177,-1.90409980856
    ));
#737 = CARTESIAN_POINT('',(203.70027064902,-32.96227934287,
    -1.95213751646));
#738 = CARTESIAN_POINT('',(203.53419567561,-32.96034363316,
    -1.98403704154));
#739 = CARTESIAN_POINT('',(203.36713935179,-32.95937499407,-2.));
#740 = CARTESIAN_POINT('',(203.03285374209,-32.95937499407,-2.));
#741 = CARTESIAN_POINT('',(202.86579797139,-32.96034371123,
    -1.98403574426));
#742 = CARTESIAN_POINT('',(202.69972634567,-32.96227943484,
    -1.952136019635));
#743 = CARTESIAN_POINT('',(202.53559587071,-32.96515084253,
    -1.90409927977));
#744 = CARTESIAN_POINT('',(202.37451550865,-32.96889507826,
    -1.839537209318));
#745 = CARTESIAN_POINT('',(202.21784355814,-32.97340738137,
    -1.757919254105));
#746 = CARTESIAN_POINT('',(202.06730650224,-32.97852660218,
    -1.658626900294));
#747 = CARTESIAN_POINT('',(201.80483611904,-32.98867120639,
    -1.441492515624));
#748 = CARTESIAN_POINT('',(201.68945892814,-32.99363137062,
    -1.327961597371));
#749 = CARTESIAN_POINT('',(201.58144982372,-32.99873550396,
    -1.200368107427));
#750 = CARTESIAN_POINT('',(201.48322164577,-33.00376530706,
    -1.059024012352));
#751 = CARTESIAN_POINT('',(201.39715911803,-33.00846265591,
    -0.904592706059));
#752 = CARTESIAN_POINT('',(201.32561718756,-33.01255030505,
    -0.738085389168));
#753 = CARTESIAN_POINT('',(201.27092928398,-33.01576074803,
    -0.560879990278));
#754 = CARTESIAN_POINT('',(201.1976726411,-33.02011954278,
    -0.176855219789));
#755 = CARTESIAN_POINT('',(201.1823954505,-33.0210775159,
    2.70182868032E-02));
#756 = CARTESIAN_POINT('',(201.19113402338,-33.02055422546,
    0.232338819616));
#757 = CARTESIAN_POINT('',(201.22391485431,-33.01851663753,
    0.434309200747));
#758 = CARTESIAN_POINT('',(201.27930607705,-33.01514754307,
    0.628248063179));
#759 = CARTESIAN_POINT('',(201.35446298763,-33.01080091418,
    0.809953271563));
#760 = CARTESIAN_POINT('',(201.44516420829,-33.00590460413,
    0.976028516863));
#761 = CARTESIAN_POINT('',(201.6167387838,-32.99730446427,1.228492838062
    ));
#762 = CARTESIAN_POINT('',(201.6935442099,-32.99362822655,1.325333598866
    ));
#763 = CARTESIAN_POINT('',(201.77538635117,-32.98992397296,
    1.414698170632));
#764 = CARTESIAN_POINT('',(201.86150299029,-32.98627440313,
    1.496648803927));
#765 = CARTESIAN_POINT('',(201.95122543926,-32.98274990145,
    1.571285877784));
#766 = CARTESIAN_POINT('',(202.04396631529,-32.97940870833,
    1.638734220167));
#767 = CARTESIAN_POINT('',(202.13920812423,-32.97629790024,
    1.699130738475));
#768 = CARTESIAN_POINT('',(202.42981759811,-32.96780608881,
    1.858894648714));
#769 = CARTESIAN_POINT('',(202.63149449414,-32.96320724682,
    1.938030257653));
#770 = CARTESIAN_POINT('',(202.83835490702,-32.95994780853,
    1.991177353868));
#771 = CARTESIAN_POINT('',(203.04807284053,-32.95818538287,
    2.019169492275));
#772 = CARTESIAN_POINT('',(203.25872011293,-32.95798596397,
    2.022449090882));
#773 = CARTESIAN_POINT('',(203.46851200273,-32.95934530843,
    2.001028121055));
#774 = CARTESIAN_POINT('',(203.67556341749,-32.96218756628,
    1.954454483173));
#775 = CARTESIAN_POINT('',(204.12189848706,-32.97135999046,
    1.793763970424));
#776 = CARTESIAN_POINT('',(204.36700301325,-32.97846737524,
    1.664534166867));
#777 = CARTESIAN_POINT('',(204.60179994605,-32.98745134985,
    1.489962575321));
#778 = CARTESIAN_POINT('',(204.81472868572,-32.99757466755,
    1.268991069702));
#779 = CARTESIAN_POINT('',(204.99377886369,-33.00751009851,
    1.003296754873));
#780 = CARTESIAN_POINT('',(205.12650646738,-33.01554840079,
    0.697362099784));
#781 = CARTESIAN_POINT('',(205.2,-33.02,0.358631282712));
#782 = CARTESIAN_POINT('',(205.2,-33.02,7.771561172376E-15));
#783 = ORIENTED_EDGE('',*,*,#716,.T.);
#784 = CYLINDRICAL_SURFACE('',#785,2.);
#785 = AXIS2_PLACEMENT_3D('',#786,#787,#788);
#786 = CARTESIAN_POINT('',(203.2,0.,0.));
#787 = DIRECTION('',(0.,-1.,1.110223024625E-16));
#788 = DIRECTION('',(1.,0.,0.));
#789 = ADVANCED_FACE('',(#790),#862,.F.);
#790 = FACE_BOUND('',#791,.F.);
#791 = EDGE_LOOP('',(#792,#855,#860,#861));
#792 = ORIENTED_EDGE('',*,*,#793,.F.);
#793 = EDGE_CURVE('',#794,#794,#796,.T.);
#794 = VERTEX_POINT('',#795);
#795 = CARTESIAN_POINT('',(205.2,-4.898587196589E-16,-33.02));
#796 = B_SPLINE_CURVE_WITH_KNOTS('',8,(#797,#798,#799,#800,#801,#802,
    #803,#804,#805,#806,#807,#808,#809,#810,#811,#812,#813,#814,#815,
    #816,#817,#818,#819,#820,#821,#822,#823,#824,#825,#826,#827,#828,
    #829,#830,#831,#832,#833,#834,#835,#836,#837,#838,#839,#840,#841,
    #842,#843,#844,#845,#846,#847,#848,#849,#850,#851,#852,#853,#854),
  .UNSPECIFIED.,.T.,.F.,(9,7,7,7,7,7,7,7,9),(0.,0.14264375617,
    0.278863769111,0.448933646885,0.595158972102,0.689789276539,
    0.793887808108,0.894591447863,1.),.UNSPECIFIED.);
#797 = CARTESIAN_POINT('',(205.2,-3.330669073875E-15,-33.02));
#798 = CARTESIAN_POINT('',(205.2,0.241852761872,-33.02));
#799 = CARTESIAN_POINT('',(205.16657593103,0.477810621644,
    -33.01797549265));
#800 = CARTESIAN_POINT('',(205.10257697786,0.702733567358,
    -33.01409926262));
#801 = CARTESIAN_POINT('',(205.01161300001,0.912239121886,-33.0087781146
    ));
#802 = CARTESIAN_POINT('',(204.89802507476,1.102779912514,
    -33.00257315073));
#803 = CARTESIAN_POINT('',(204.76683874593,1.271791177151,
    -32.99607312875));
#804 = CARTESIAN_POINT('',(204.62370674854,1.417879802005,-32.9897744017
    ));
#805 = CARTESIAN_POINT('',(204.33269283726,1.658627446693,
    -32.97852657665));
#806 = CARTESIAN_POINT('',(204.18215677014,1.757918767686,
    -32.97340739932));
#807 = CARTESIAN_POINT('',(204.02548553981,1.839536700853,
    -32.96889511278));
#808 = CARTESIAN_POINT('',(203.86440410895,1.90409980856,-32.9651508177)
  );
#809 = CARTESIAN_POINT('',(203.70027064902,1.95213751646,-32.96227934287
    ));
#810 = CARTESIAN_POINT('',(203.53419567561,1.98403704154,-32.96034363316
    ));
#811 = CARTESIAN_POINT('',(203.36713935179,2.,-32.95937499407));
#812 = CARTESIAN_POINT('',(202.99132751115,2.,-32.95937499407));
#813 = CARTESIAN_POINT('',(202.78274717662,1.975117323811,
    -32.96088478867));
#814 = CARTESIAN_POINT('',(202.57600882148,1.92539229134,-32.96390254855
    ));
#815 = CARTESIAN_POINT('',(202.37299944564,1.850292307815,
    -32.96835348455));
#816 = CARTESIAN_POINT('',(202.17609233256,1.748891272799,-32.9740852736
    ));
#817 = CARTESIAN_POINT('',(201.98838287101,1.619984986706,
    -32.98082695189));
#818 = CARTESIAN_POINT('',(201.81403641594,1.462286828653,
    -32.98813882293));
#819 = CARTESIAN_POINT('',(201.52565112075,1.113688889865,
    -33.00160765903));
#820 = CARTESIAN_POINT('',(201.4020876879,0.925109558601,-33.00799294032
    ));
#821 = CARTESIAN_POINT('',(201.29866117024,0.711863565402,
    -33.01389412292));
#822 = CARTESIAN_POINT('',(201.22316659267,0.479079491557,
    -33.01853824923));
#823 = CARTESIAN_POINT('',(201.18079330657,0.233772331504,
    -33.02121190104));
#824 = CARTESIAN_POINT('',(201.1740140163,-1.607398552727E-02,
    -33.02159078172));
#825 = CARTESIAN_POINT('',(201.20247001951,-0.262278847764,
    -33.01979549899));
#826 = CARTESIAN_POINT('',(201.30189826075,-0.649526279878,
    -33.01396173476));
#827 = CARTESIAN_POINT('',(201.35462083905,-0.798168836028,
    -33.01092105362));
#828 = CARTESIAN_POINT('',(201.42062945289,-0.941865218589,
    -33.0072176519));
#829 = CARTESIAN_POINT('',(201.49937803029,-1.079239933322,
    -33.00297731333));
#830 = CARTESIAN_POINT('',(201.59015146516,-1.208992061585,
    -32.99835744821));
#831 = CARTESIAN_POINT('',(201.69207466103,-1.329911654253,
    -32.99353616782));
#832 = CARTESIAN_POINT('',(201.80412554052,-1.440904673949,
    -32.98869867058));
#833 = CARTESIAN_POINT('',(202.05828779472,-1.651165976572,
    -32.97887517948));
#834 = CARTESIAN_POINT('',(202.20230489362,-1.748164671837,
    -32.97392223679));
#835 = CARTESIAN_POINT('',(202.35567172071,-1.830756182618,
    -32.96939642286));
#836 = CARTESIAN_POINT('',(202.51670550429,-1.897905756095,
    -32.9655205421));
#837 = CARTESIAN_POINT('',(202.68359324322,-1.948816611957,
    -32.96248099642));
#838 = CARTESIAN_POINT('',(202.85442205981,-1.98294157447,
    -32.96041001274));
#839 = CARTESIAN_POINT('',(203.02721895988,-2.,-32.95937499407));
#840 = CARTESIAN_POINT('',(203.3671462542,-2.,-32.95937499407));
#841 = CARTESIAN_POINT('',(203.53420203529,-1.984035745026,
    -32.96034371119));
#842 = CARTESIAN_POINT('',(203.70027365357,-1.952136016981,
    -32.96227943496));
#843 = CARTESIAN_POINT('',(203.86440412362,-1.904099281921,
    -32.96515084242));
#844 = CARTESIAN_POINT('',(204.02548449207,-1.839537211951,
    -32.96889507814));
#845 = CARTESIAN_POINT('',(204.18215644728,-1.757919248707,
    -32.97340738163));
#846 = CARTESIAN_POINT('',(204.33269349442,-1.658626903047,
    -32.97852660205));
#847 = CARTESIAN_POINT('',(204.62364397622,-1.417931731785,
    -32.98977197552));
#848 = CARTESIAN_POINT('',(204.76679714027,-1.271848973395,
    -32.99607087254));
#849 = CARTESIAN_POINT('',(204.89803219302,-1.102798935545,
    -33.00257304851));
#850 = CARTESIAN_POINT('',(205.01165852038,-0.912191556754,
    -33.00878050041));
#851 = CARTESIAN_POINT('',(205.10263109274,-0.702619198678,
    -33.01410254441));
#852 = CARTESIAN_POINT('',(205.16660826711,-0.477662449685,
    -33.0179774503));
#853 = CARTESIAN_POINT('',(205.2,-0.241735741725,-33.02));
#854 = CARTESIAN_POINT('',(205.2,-3.330669073875E-15,-33.02));
#855 = ORIENTED_EDGE('',*,*,#856,.F.);
#856 = EDGE_CURVE('',#477,#794,#857,.T.);
#857 = B_SPLINE_CURVE_WITH_KNOTS('',1,(#858,#859),.UNSPECIFIED.,.F.,.F.,
  (2,2),(-518.1006449852,518.1006449852),.PIECEWISE_BEZIER_KNOTS.);
#858 = CARTESIAN_POINT('',(205.2,-4.898587196589E-16,-518.1006449852));
#859 = CARTESIAN_POINT('',(205.2,-4.898587196589E-16,518.1006449852));
#860 = ORIENTED_EDGE('',*,*,#476,.T.);
#861 = ORIENTED_EDGE('',*,*,#856,.T.);
#862 = CYLINDRICAL_SURFACE('',#863,2.);
#863 = AXIS2_PLACEMENT_3D('',#864,#865,#866);
#864 = CARTESIAN_POINT('',(203.2,0.,0.));
#865 = DIRECTION('',(0.,0.,1.));
#866 = DIRECTION('',(1.,0.,0.));
#867 = ADVANCED_FACE('',(#868,#896,#899,#902),#905,.F.);
#868 = FACE_BOUND('',#869,.T.);
#869 = EDGE_LOOP('',(#870,#871,#877,#878,#886,#893,#894,#895));
#870 = ORIENTED_EDGE('',*,*,#620,.T.);
#871 = ORIENTED_EDGE('',*,*,#872,.T.);
#872 = EDGE_CURVE('',#621,#542,#873,.T.);
#873 = LINE('',#874,#875);
#874 = CARTESIAN_POINT('',(228.6,33.02,0.));
#875 = VECTOR('',#876,1.);
#876 = DIRECTION('',(-1.,0.,0.));
#877 = ORIENTED_EDGE('',*,*,#580,.T.);
#878 = ORIENTED_EDGE('',*,*,#879,.T.);
#879 = EDGE_CURVE('',#540,#880,#882,.T.);
#880 = VERTEX_POINT('',#881);
#881 = CARTESIAN_POINT('',(171.45,33.02,0.));
#882 = LINE('',#883,#884);
#883 = CARTESIAN_POINT('',(228.6,33.02,0.));
#884 = VECTOR('',#885,1.);
#885 = DIRECTION('',(-1.,0.,0.));
#886 = ORIENTED_EDGE('',*,*,#887,.F.);
#887 = EDGE_CURVE('',#880,#880,#888,.T.);
#888 = CIRCLE('',#889,33.02);
#889 = AXIS2_PLACEMENT_3D('',#890,#891,#892);
#890 = CARTESIAN_POINT('',(171.45,0.,0.));
#891 = DIRECTION('',(1.,0.,0.));
#892 = DIRECTION('',(0.,1.,0.));
#893 = ORIENTED_EDGE('',*,*,#879,.F.);
#894 = ORIENTED_EDGE('',*,*,#539,.T.);
#895 = ORIENTED_EDGE('',*,*,#872,.F.);
#896 = FACE_BOUND('',#897,.T.);
#897 = EDGE_LOOP('',(#898));
#898 = ORIENTED_EDGE('',*,*,#723,.F.);
#899 = FACE_BOUND('',#900,.T.);
#900 = EDGE_LOOP('',(#901));
#901 = ORIENTED_EDGE('',*,*,#793,.F.);
#902 = FACE_BOUND('',#903,.T.);
#903 = EDGE_LOOP('',(#904));
#904 = ORIENTED_EDGE('',*,*,#645,.T.);
#905 = CYLINDRICAL_SURFACE('',#906,33.02);
#906 = AXIS2_PLACEMENT_3D('',#907,#908,#909);
#907 = CARTESIAN_POINT('',(228.6,0.,0.));
#908 = DIRECTION('',(-1.,-0.,-0.));
#909 = DIRECTION('',(0.,1.,0.));
#910 = ADVANCED_FACE('',(#911,#914),#925,.F.);
#911 = FACE_BOUND('',#912,.T.);
#912 = EDGE_LOOP('',(#913));
#913 = ORIENTED_EDGE('',*,*,#887,.T.);
#914 = FACE_BOUND('',#915,.T.);
#915 = EDGE_LOOP('',(#916));
#916 = ORIENTED_EDGE('',*,*,#917,.F.);
#917 = EDGE_CURVE('',#918,#918,#920,.T.);
#918 = VERTEX_POINT('',#919);
#919 = CARTESIAN_POINT('',(171.45,34.572387818668,0.));
#920 = CIRCLE('',#921,34.572387818668);
#921 = AXIS2_PLACEMENT_3D('',#922,#923,#924);
#922 = CARTESIAN_POINT('',(171.45,0.,0.));
#923 = DIRECTION('',(1.,0.,0.));
#924 = DIRECTION('',(0.,1.,0.));
#925 = PLANE('',#926);
#926 = AXIS2_PLACEMENT_3D('',#927,#928,#929);
#927 = CARTESIAN_POINT('',(171.45,0.,0.));
#928 = DIRECTION('',(1.,0.,0.));
#929 = DIRECTION('',(0.,1.,0.));
#930 = ADVANCED_FACE('',(#931),#1041,.F.);
#931 = FACE_BOUND('',#932,.F.);
#932 = EDGE_LOOP('',(#933,#1039,#1040));
#933 = ORIENTED_EDGE('',*,*,#934,.T.);
#934 = EDGE_CURVE('',#935,#918,#937,.T.);
#935 = VERTEX_POINT('',#936);
#936 = CARTESIAN_POINT('',(10.461376953125,0.,0.));
#937 = B_SPLINE_CURVE_WITH_KNOTS('',3,(#938,#939,#940,#941,#942,#943,
    #944,#945,#946,#947,#948,#949,#950,#951,#952,#953,#954,#955,#956,
    #957,#958,#959,#960,#961,#962,#963,#964,#965,#966,#967,#968,#969,
    #970,#971,#972,#973,#974,#975,#976,#977,#978,#979,#980,#981,#982,
    #983,#984,#985,#986,#987,#988,#989,#990,#991,#992,#993,#994,#995,
    #996,#997,#998,#999,#1000,#1001,#1002,#1003,#1004,#1005,#1006,#1007,
    #1008,#1009,#1010,#1011,#1012,#1013,#1014,#1015,#1016,#1017,#1018,
    #1019,#1020,#1021,#1022,#1023,#1024,#1025,#1026,#1027,#1028,#1029,
    #1030,#1031,#1032,#1033,#1034,#1035,#1036,#1037,#1038),
  .UNSPECIFIED.,.F.,.F.,(4,1,1,1,1,1,1,1,1,1,1,1,1,1,1,1,1,1,1,1,1,1,1,1
    ,1,1,1,1,1,1,1,1,1,1,1,1,1,1,1,1,1,1,1,1,1,1,1,1,1,1,1,1,1,1,1,1,1,1
    ,1,1,1,1,1,1,1,1,1,1,1,1,1,1,1,1,1,1,1,1,1,1,1,1,1,1,1,1,1,1,1,1,1,1
    ,1,1,1,1,1,1,4),(0.,1.020408163265E-02,2.040816326531E-02,
    3.061224489796E-02,4.081632653061E-02,5.102040816327E-02,
    6.122448979592E-02,7.142857142857E-02,8.163265306122E-02,
    9.183673469388E-02,0.102040816327,0.112244897959,0.122448979592,
    0.132653061224,0.142857142857,0.15306122449,0.163265306122,
    0.173469387755,0.183673469388,0.19387755102,0.204081632653,
    0.214285714286,0.224489795918,0.234693877551,0.244897959184,
    0.255102040816,0.265306122449,0.275510204082,0.285714285714,
    0.295918367347,0.30612244898,0.316326530612,0.326530612245,
    0.336734693878,0.34693877551,0.357142857143,0.367346938776,
    0.377551020408,0.387755102041,0.397959183673,0.408163265306,
    0.418367346939,0.428571428571,0.438775510204,0.448979591837,
    0.459183673469,0.469387755102,0.479591836735,0.489795918367,0.5,
    0.510204081633,0.520408163265,0.530612244898,0.540816326531,
    0.551020408163,0.561224489796,0.571428571429,0.581632653061,
    0.591836734694,0.602040816327,0.612244897959,0.622448979592,
    0.632653061224,0.642857142857,0.65306122449,0.663265306122,
    0.673469387755,0.683673469388,0.69387755102,0.704081632653,
    0.714285714286,0.724489795918,0.734693877551,0.744897959184,
    0.755102040816,0.765306122449,0.775510204082,0.785714285714,
    0.795918367347,0.80612244898,0.816326530612,0.826530612245,
    0.836734693878,0.84693877551,0.857142857143,0.867346938776,
    0.877551020408,0.887755102041,0.897959183673,0.908163265306,
    0.918367346939,0.928571428571,0.938775510204,0.948979591837,
    0.959183673469,0.969387755102,0.979591836735,0.989795918367,1.),
  .QUASI_UNIFORM_KNOTS.);
#938 = CARTESIAN_POINT('',(10.461376953125,0.,0.));
#939 = CARTESIAN_POINT('',(12.071263183594,1.356855151442,0.));
#940 = CARTESIAN_POINT('',(13.681149414062,2.278707448202,0.));
#941 = CARTESIAN_POINT('',(15.291035644531,3.084151673802,0.));
#942 = CARTESIAN_POINT('',(16.900921875,3.821330178926,0.));
#943 = CARTESIAN_POINT('',(18.510808105469,4.510948581157,0.));
#944 = CARTESIAN_POINT('',(20.120694335938,5.164408397243,0.));
#945 = CARTESIAN_POINT('',(21.730580566406,5.788864005764,0.));
#946 = CARTESIAN_POINT('',(23.340466796875,6.389190476395,0.));
#947 = CARTESIAN_POINT('',(24.950353027344,6.968905089225,0.));
#948 = CARTESIAN_POINT('',(26.560239257812,7.530654530431,0.));
#949 = CARTESIAN_POINT('',(28.170125488281,8.076495763266,0.));
#950 = CARTESIAN_POINT('',(29.78001171875,8.608068872842,0.));
#951 = CARTESIAN_POINT('',(31.389897949219,9.126709011454,0.));
#952 = CARTESIAN_POINT('',(32.999784179687,9.633521950732,0.));
#953 = CARTESIAN_POINT('',(34.609670410156,10.129436832653,0.));
#954 = CARTESIAN_POINT('',(36.219556640625,10.615244064652,0.));
#955 = CARTESIAN_POINT('',(37.829442871094,11.091623210709,0.));
#956 = CARTESIAN_POINT('',(39.439329101562,11.559163952929,0.));
#957 = CARTESIAN_POINT('',(41.049215332031,12.01838213462,0.));
#958 = CARTESIAN_POINT('',(42.6591015625,12.469732237003,0.));
#959 = CARTESIAN_POINT('',(44.268987792969,12.913617220838,0.));
#960 = CARTESIAN_POINT('',(45.878874023437,13.350396388236,0.));
#961 = CARTESIAN_POINT('',(47.488760253906,13.78039173458,0.));
#962 = CARTESIAN_POINT('',(49.098646484375,14.203893133287,0.));
#963 = CARTESIAN_POINT('',(50.708532714844,14.621162607301,0.));
#964 = CARTESIAN_POINT('',(52.318418945313,15.032437878008,0.));
#965 = CARTESIAN_POINT('',(53.928305175781,15.437935336588,0.));
#966 = CARTESIAN_POINT('',(55.53819140625,15.837852549451,0.));
#967 = CARTESIAN_POINT('',(57.148077636719,16.232370384522,0.));
#968 = CARTESIAN_POINT('',(58.757963867187,16.621654826583,0.));
#969 = CARTESIAN_POINT('',(60.367850097656,17.00585853568,0.));
#970 = CARTESIAN_POINT('',(61.977736328125,17.385122191778,0.));
#971 = CARTESIAN_POINT('',(63.587622558594,17.759575660446,0.));
#972 = CARTESIAN_POINT('',(65.197508789062,18.12933900778,0.));
#973 = CARTESIAN_POINT('',(66.807395019531,18.494523387618,0.));
#974 = CARTESIAN_POINT('',(68.41728125,18.855231819963,0.));
#975 = CARTESIAN_POINT('',(70.027167480469,19.211559876309,0.));
#976 = CARTESIAN_POINT('',(71.637053710937,19.563596284852,0.));
#977 = CARTESIAN_POINT('',(73.246939941406,19.911423466485,0.));
#978 = CARTESIAN_POINT('',(74.856826171875,20.255118010698,0.));
#979 = CARTESIAN_POINT('',(76.466712402344,20.594751099097,0.));
#980 = CARTESIAN_POINT('',(78.076598632812,20.930388883043,0.));
#981 = CARTESIAN_POINT('',(79.686484863281,21.262092820977,0.));
#982 = CARTESIAN_POINT('',(81.29637109375,21.589919980142,0.));
#983 = CARTESIAN_POINT('',(82.906257324219,21.913923306763,0.));
#984 = CARTESIAN_POINT('',(84.516143554687,22.234151868144,0.));
#985 = CARTESIAN_POINT('',(86.126029785156,22.550651069673,0.));
#986 = CARTESIAN_POINT('',(87.735916015625,22.863462849313,0.));
#987 = CARTESIAN_POINT('',(89.345802246094,23.172625851792,0.));
#988 = CARTESIAN_POINT('',(90.955688476562,23.478175584414,0.));
#989 = CARTESIAN_POINT('',(92.565574707031,23.780144556142,0.));
#990 = CARTESIAN_POINT('',(94.1754609375,24.078562401395,0.));
#991 = CARTESIAN_POINT('',(95.785347167969,24.373455989769,0.));
#992 = CARTESIAN_POINT('',(97.395233398437,24.664849522767,0.));
#993 = CARTESIAN_POINT('',(99.005119628906,24.952764618403,0.));
#994 = CARTESIAN_POINT('',(100.61500585937,25.237220384484,0.));
#995 = CARTESIAN_POINT('',(102.22489208984,25.518233481173,0.));
#996 = CARTESIAN_POINT('',(103.83477832031,25.795818173379,0.));
#997 = CARTESIAN_POINT('',(105.44466455078,26.069986373377,0.));
#998 = CARTESIAN_POINT('',(107.05455078125,26.340747673993,0.));
#999 = CARTESIAN_POINT('',(108.66443701171,26.608109372552,0.));
#1000 = CARTESIAN_POINT('',(110.27432324218,26.872076485746,0.));
#1001 = CARTESIAN_POINT('',(111.88420947265,27.132651755438,0.));
#1002 = CARTESIAN_POINT('',(113.49409570312,27.389835645367,0.));
#1003 = CARTESIAN_POINT('',(115.10398193359,27.643626328582,0.));
#1004 = CARTESIAN_POINT('',(116.71386816406,27.894019665386,0.));
#1005 = CARTESIAN_POINT('',(118.32375439453,28.141009171405,0.));
#1006 = CARTESIAN_POINT('',(119.933640625,28.384585975326,0.));
#1007 = CARTESIAN_POINT('',(121.54352685546,28.624738765707,0.));
#1008 = CARTESIAN_POINT('',(123.15341308593,28.861453726104,0.));
#1009 = CARTESIAN_POINT('',(124.7632993164,29.094714457621,0.));
#1010 = CARTESIAN_POINT('',(126.37318554687,29.324501887787,0.));
#1011 = CARTESIAN_POINT('',(127.98307177734,29.550794164447,0.));
#1012 = CARTESIAN_POINT('',(129.59295800781,29.773566533118,0.));
#1013 = CARTESIAN_POINT('',(131.20284423828,29.992791195935,0.));
#1014 = CARTESIAN_POINT('',(132.81273046875,30.208437149977,0.));
#1015 = CARTESIAN_POINT('',(134.42261669921,30.42047000233,0.));
#1016 = CARTESIAN_POINT('',(136.03250292968,30.628851758711,0.));
#1017 = CARTESIAN_POINT('',(137.64238916015,30.833540581873,0.));
#1018 = CARTESIAN_POINT('',(139.25227539062,31.034490515196,0.));
#1019 = CARTESIAN_POINT('',(140.86216162109,31.231651165945,0.));
#1020 = CARTESIAN_POINT('',(142.47204785156,31.42496734144,0.));
#1021 = CARTESIAN_POINT('',(144.08193408203,31.614378629887,0.));
#1022 = CARTESIAN_POINT('',(145.6918203125,31.799818915677,0.));
#1023 = CARTESIAN_POINT('',(147.30170654296,31.981215816485,0.));
#1024 = CARTESIAN_POINT('',(148.91159277343,32.158490026294,0.));
#1025 = CARTESIAN_POINT('',(150.5214790039,32.331554544225,0.));
#1026 = CARTESIAN_POINT('',(152.13136523437,32.500313763479,0.));
#1027 = CARTESIAN_POINT('',(153.74125146484,32.664662387107,0.));
#1028 = CARTESIAN_POINT('',(155.35113769531,32.824484127048,0.));
#1029 = CARTESIAN_POINT('',(156.96102392578,32.979650128518,0.));
#1030 = CARTESIAN_POINT('',(158.57091015625,33.130017041599,0.));
#1031 = CARTESIAN_POINT('',(160.18079638671,33.275424632718,0.));
#1032 = CARTESIAN_POINT('',(161.79068261718,33.415692785628,0.));
#1033 = CARTESIAN_POINT('',(163.40056884765,33.550617676468,0.));
#1034 = CARTESIAN_POINT('',(165.01045507812,33.679966806179,0.));
#1035 = CARTESIAN_POINT('',(166.62034130859,33.803472410553,0.));
#1036 = CARTESIAN_POINT('',(168.23022753906,33.920822495401,0.));
#1037 = CARTESIAN_POINT('',(169.84011376953,34.03164826628,0.));
#1038 = CARTESIAN_POINT('',(171.45,34.572387818668,0.));
#1039 = ORIENTED_EDGE('',*,*,#917,.F.);
#1040 = ORIENTED_EDGE('',*,*,#934,.F.);
#1041 = SURFACE_OF_REVOLUTION('',#1042,#1144);
#1042 = B_SPLINE_CURVE_WITH_KNOTS('',3,(#1043,#1044,#1045,#1046,#1047,
    #1048,#1049,#1050,#1051,#1052,#1053,#1054,#1055,#1056,#1057,#1058,
    #1059,#1060,#1061,#1062,#1063,#1064,#1065,#1066,#1067,#1068,#1069,
    #1070,#1071,#1072,#1073,#1074,#1075,#1076,#1077,#1078,#1079,#1080,
    #1081,#1082,#1083,#1084,#1085,#1086,#1087,#1088,#1089,#1090,#1091,
    #1092,#1093,#1094,#1095,#1096,#1097,#1098,#1099,#1100,#1101,#1102,
    #1103,#1104,#1105,#1106,#1107,#1108,#1109,#1110,#1111,#1112,#1113,
    #1114,#1115,#1116,#1117,#1118,#1119,#1120,#1121,#1122,#1123,#1124,
    #1125,#1126,#1127,#1128,#1129,#1130,#1131,#1132,#1133,#1134,#1135,
    #1136,#1137,#1138,#1139,#1140,#1141,#1142,#1143),.UNSPECIFIED.,.F.,
  .F.,(4,1,1,1,1,1,1,1,1,1,1,1,1,1,1,1,1,1,1,1,1,1,1,1,1,1,1,1,1,1,1,1,1
    ,1,1,1,1,1,1,1,1,1,1,1,1,1,1,1,1,1,1,1,1,1,1,1,1,1,1,1,1,1,1,1,1,1,1
    ,1,1,1,1,1,1,1,1,1,1,1,1,1,1,1,1,1,1,1,1,1,1,1,1,1,1,1,1,1,1,1,4),(
    0.,1.020408163265E-02,2.040816326531E-02,3.061224489796E-02,
    4.081632653061E-02,5.102040816327E-02,6.122448979592E-02,
    7.142857142857E-02,8.163265306122E-02,9.183673469388E-02,
    0.102040816327,0.112244897959,0.122448979592,0.132653061224,
    0.142857142857,0.15306122449,0.163265306122,0.173469387755,
    0.183673469388,0.19387755102,0.204081632653,0.214285714286,
    0.224489795918,0.234693877551,0.244897959184,0.255102040816,
    0.265306122449,0.275510204082,0.285714285714,0.295918367347,
    0.30612244898,0.316326530612,0.326530612245,0.336734693878,
    0.34693877551,0.357142857143,0.367346938776,0.377551020408,
    0.387755102041,0.397959183673,0.408163265306,0.418367346939,
    0.428571428571,0.438775510204,0.448979591837,0.459183673469,
    0.469387755102,0.479591836735,0.489795918367,0.5,0.510204081633,
    0.520408163265,0.530612244898,0.540816326531,0.551020408163,
    0.561224489796,0.571428571429,0.581632653061,0.591836734694,
    0.602040816327,0.612244897959,0.622448979592,0.632653061224,
    0.642857142857,0.65306122449,0.663265306122,0.673469387755,
    0.683673469388,0.69387755102,0.704081632653,0.714285714286,
    0.724489795918,0.734693877551,0.744897959184,0.755102040816,
    0.765306122449,0.775510204082,0.785714285714,0.795918367347,
    0.80612244898,0.816326530612,0.826530612245,0.836734693878,
    0.84693877551,0.857142857143,0.867346938776,0.877551020408,
    0.887755102041,0.897959183673,0.908163265306,0.918367346939,
    0.928571428571,0.938775510204,0.948979591837,0.959183673469,
    0.969387755102,0.979591836735,0.989795918367,1.),
  .QUASI_UNIFORM_KNOTS.);
#1043 = CARTESIAN_POINT('',(10.461376953125,0.,0.));
#1044 = CARTESIAN_POINT('',(12.071263183594,1.356855151442,0.));
#1045 = CARTESIAN_POINT('',(13.681149414062,2.278707448202,0.));
#1046 = CARTESIAN_POINT('',(15.291035644531,3.084151673802,0.));
#1047 = CARTESIAN_POINT('',(16.900921875,3.821330178926,0.));
#1048 = CARTESIAN_POINT('',(18.510808105469,4.510948581157,0.));
#1049 = CARTESIAN_POINT('',(20.120694335938,5.164408397243,0.));
#1050 = CARTESIAN_POINT('',(21.730580566406,5.788864005764,0.));
#1051 = CARTESIAN_POINT('',(23.340466796875,6.389190476395,0.));
#1052 = CARTESIAN_POINT('',(24.950353027344,6.968905089225,0.));
#1053 = CARTESIAN_POINT('',(26.560239257812,7.530654530431,0.));
#1054 = CARTESIAN_POINT('',(28.170125488281,8.076495763266,0.));
#1055 = CARTESIAN_POINT('',(29.78001171875,8.608068872842,0.));
#1056 = CARTESIAN_POINT('',(31.389897949219,9.126709011454,0.));
#1057 = CARTESIAN_POINT('',(32.999784179687,9.633521950732,0.));
#1058 = CARTESIAN_POINT('',(34.609670410156,10.129436832653,0.));
#1059 = CARTESIAN_POINT('',(36.219556640625,10.615244064652,0.));
#1060 = CARTESIAN_POINT('',(37.829442871094,11.091623210709,0.));
#1061 = CARTESIAN_POINT('',(39.439329101562,11.559163952929,0.));
#1062 = CARTESIAN_POINT('',(41.049215332031,12.01838213462,0.));
#1063 = CARTESIAN_POINT('',(42.6591015625,12.469732237003,0.));
#1064 = CARTESIAN_POINT('',(44.268987792969,12.913617220838,0.));
#1065 = CARTESIAN_POINT('',(45.878874023437,13.350396388236,0.));
#1066 = CARTESIAN_POINT('',(47.488760253906,13.78039173458,0.));
#1067 = CARTESIAN_POINT('',(49.098646484375,14.203893133287,0.));
#1068 = CARTESIAN_POINT('',(50.708532714844,14.621162607301,0.));
#1069 = CARTESIAN_POINT('',(52.318418945313,15.032437878008,0.));
#1070 = CARTESIAN_POINT('',(53.928305175781,15.437935336588,0.));
#1071 = CARTESIAN_POINT('',(55.53819140625,15.837852549451,0.));
#1072 = CARTESIAN_POINT('',(57.148077636719,16.232370384522,0.));
#1073 = CARTESIAN_POINT('',(58.757963867187,16.621654826583,0.));
#1074 = CARTESIAN_POINT('',(60.367850097656,17.00585853568,0.));
#1075 = CARTESIAN_POINT('',(61.977736328125,17.385122191778,0.));
#1076 = CARTESIAN_POINT('',(63.587622558594,17.759575660446,0.));
#1077 = CARTESIAN_POINT('',(65.197508789062,18.12933900778,0.));
#1078 = CARTESIAN_POINT('',(66.807395019531,18.494523387618,0.));
#1079 = CARTESIAN_POINT('',(68.41728125,18.855231819963,0.));
#1080 = CARTESIAN_POINT('',(70.027167480469,19.211559876309,0.));
#1081 = CARTESIAN_POINT('',(71.637053710937,19.563596284852,0.));
#1082 = CARTESIAN_POINT('',(73.246939941406,19.911423466485,0.));
#1083 = CARTESIAN_POINT('',(74.856826171875,20.255118010698,0.));
#1084 = CARTESIAN_POINT('',(76.466712402344,20.594751099097,0.));
#1085 = CARTESIAN_POINT('',(78.076598632812,20.930388883043,0.));
#1086 = CARTESIAN_POINT('',(79.686484863281,21.262092820977,0.));
#1087 = CARTESIAN_POINT('',(81.29637109375,21.589919980142,0.));
#1088 = CARTESIAN_POINT('',(82.906257324219,21.913923306763,0.));
#1089 = CARTESIAN_POINT('',(84.516143554687,22.234151868144,0.));
#1090 = CARTESIAN_POINT('',(86.126029785156,22.550651069673,0.));
#1091 = CARTESIAN_POINT('',(87.735916015625,22.863462849313,0.));
#1092 = CARTESIAN_POINT('',(89.345802246094,23.172625851792,0.));
#1093 = CARTESIAN_POINT('',(90.955688476562,23.478175584414,0.));
#1094 = CARTESIAN_POINT('',(92.565574707031,23.780144556142,0.));
#1095 = CARTESIAN_POINT('',(94.1754609375,24.078562401395,0.));
#1096 = CARTESIAN_POINT('',(95.785347167969,24.373455989769,0.));
#1097 = CARTESIAN_POINT('',(97.395233398437,24.664849522767,0.));
#1098 = CARTESIAN_POINT('',(99.005119628906,24.952764618403,0.));
#1099 = CARTESIAN_POINT('',(100.61500585937,25.237220384484,0.));
#1100 = CARTESIAN_POINT('',(102.22489208984,25.518233481173,0.));
#1101 = CARTESIAN_POINT('',(103.83477832031,25.795818173379,0.));
#1102 = CARTESIAN_POINT('',(105.44466455078,26.069986373377,0.));
#1103 = CARTESIAN_POINT('',(107.05455078125,26.340747673993,0.));
#1104 = CARTESIAN_POINT('',(108.66443701171,26.608109372552,0.));
#1105 = CARTESIAN_POINT('',(110.27432324218,26.872076485746,0.));
#1106 = CARTESIAN_POINT('',(111.88420947265,27.132651755438,0.));
#1107 = CARTESIAN_POINT('',(113.49409570312,27.389835645367,0.));
#1108 = CARTESIAN_POINT('',(115.10398193359,27.643626328582,0.));
#1109 = CARTESIAN_POINT('',(116.71386816406,27.894019665386,0.));
#1110 = CARTESIAN_POINT('',(118.32375439453,28.141009171405,0.));
#1111 = CARTESIAN_POINT('',(119.933640625,28.384585975326,0.));
#1112 = CARTESIAN_POINT('',(121.54352685546,28.624738765707,0.));
#1113 = CARTESIAN_POINT('',(123.15341308593,28.861453726104,0.));
#1114 = CARTESIAN_POINT('',(124.7632993164,29.094714457621,0.));
#1115 = CARTESIAN_POINT('',(126.37318554687,29.324501887787,0.));
#1116 = CARTESIAN_POINT('',(127.98307177734,29.550794164447,0.));
#1117 = CARTESIAN_POINT('',(129.59295800781,29.773566533118,0.));
#1118 = CARTESIAN_POINT('',(131.20284423828,29.992791195935,0.));
#1119 = CARTESIAN_POINT('',(132.81273046875,30.208437149977,0.));
#1120 = CARTESIAN_POINT('',(134.42261669921,30.42047000233,0.));
#1121 = CARTESIAN_POINT('',(136.03250292968,30.628851758711,0.));
#1122 = CARTESIAN_POINT('',(137.64238916015,30.833540581873,0.));
#1123 = CARTESIAN_POINT('',(139.25227539062,31.034490515196,0.));
#1124 = CARTESIAN_POINT('',(140.86216162109,31.231651165945,0.));
#1125 = CARTESIAN_POINT('',(142.47204785156,31.42496734144,0.));
#1126 = CARTESIAN_POINT('',(144.08193408203,31.614378629887,0.));
#1127 = CARTESIAN_POINT('',(145.6918203125,31.799818915677,0.));
#1128 = CARTESIAN_POINT('',(147.30170654296,31.981215816485,0.));
#1129 = CARTESIAN_POINT('',(148.91159277343,32.158490026294,0.));
#1130 = CARTESIAN_POINT('',(150.5214790039,32.331554544225,0.));
#1131 = CARTESIAN_POINT('',(152.13136523437,32.500313763479,0.));
#1132 = CARTESIAN_POINT('',(153.74125146484,32.664662387107,0.));
#1133 = CARTESIAN_POINT('',(155.35113769531,32.824484127048,0.));
#1134 = CARTESIAN_POINT('',(156.96102392578,32.979650128518,0.));
#1135 = CARTESIAN_POINT('',(158.57091015625,33.130017041599,0.));
#1136 = CARTESIAN_POINT('',(160.18079638671,33.275424632718,0.));
#1137 = CARTESIAN_POINT('',(161.79068261718,33.415692785628,0.));
#1138 = CARTESIAN_POINT('',(163.40056884765,33.550617676468,0.));
#1139 = CARTESIAN_POINT('',(165.01045507812,33.679966806179,0.));
#1140 = CARTESIAN_POINT('',(166.62034130859,33.803472410553,0.));
#1141 = CARTESIAN_POINT('',(168.23022753906,33.920822495401,0.));
#1142 = CARTESIAN_POINT('',(169.84011376953,34.03164826628,0.));
#1143 = CARTESIAN_POINT('',(171.45,34.572387818668,0.));
#1144 = AXIS1_PLACEMENT('',#1145,#1146);
#1145 = CARTESIAN_POINT('',(0.,0.,0.));
#1146 = DIRECTION('',(1.,0.,0.));
#1147 = ( GEOMETRIC_REPRESENTATION_CONTEXT(3) 
GLOBAL_UNCERTAINTY_ASSIGNED_CONTEXT((#1151)) 
GLOBAL_UNIT_ASSIGNED_CONTEXT((#1148,#1149,#1150)) REPRESENTATION_CONTEXT
('Context #1','3D Context with UNIT and UNCERTAINTY') );
#1148 = ( LENGTH_UNIT() NAMED_UNIT(*) SI_UNIT(.MILLI.,.METRE.) );
#1149 = ( NAMED_UNIT(*) PLANE_ANGLE_UNIT() SI_UNIT($,.RADIAN.) );
#1150 = ( NAMED_UNIT(*) SI_UNIT($,.STERADIAN.) SOLID_ANGLE_UNIT() );
#1151 = UNCERTAINTY_MEASURE_WITH_UNIT(LENGTH_MEASURE(2.E-04),#1148,
  'distance_accuracy_value','confusion accuracy');
#1152 = PRODUCT_RELATED_PRODUCT_CATEGORY('part',$,(#7));
#1153 = MECHANICAL_DESIGN_GEOMETRIC_PRESENTATION_REPRESENTATION('',(
    #1154),#1147);
#1154 = STYLED_ITEM('color',(#1155),#15);
#1155 = PRESENTATION_STYLE_ASSIGNMENT((#1156,#1162));
#1156 = SURFACE_STYLE_USAGE(.BOTH.,#1157);
#1157 = SURFACE_SIDE_STYLE('',(#1158));
#1158 = SURFACE_STYLE_FILL_AREA(#1159);
#1159 = FILL_AREA_STYLE('',(#1160));
#1160 = FILL_AREA_STYLE_COLOUR('',#1161);
#1161 = DRAUGHTING_PRE_DEFINED_COLOUR('black');
#1162 = CURVE_STYLE('',#1163,POSITIVE_LENGTH_MEASURE(0.1),#1164);
#1163 = DRAUGHTING_PRE_DEFINED_CURVE_FONT('continuous');
#1164 = COLOUR_RGB('',0.678431390124,0.709803936702,0.741176476869);
ENDSEC;
END-ISO-10303-21;
