ISO-10303-21;
HEADER;
FILE_DESCRIPTION(('FreeCAD Model'),'2;1');
FILE_NAME('Open CASCADE Shape Model','2026-07-12T17:42:26',(''),(''),
  'Open CASCADE STEP processor 7.9','FreeCAD','Unknown');
FILE_SCHEMA(('AUTOMOTIVE_DESIGN { 1 0 10303 214 1 1 1 1 }'));
ENDSEC;
DATA;
#1 = APPLICATION_PROTOCOL_DEFINITION('international standard',
  'automotive_design',2000,#2);
#2 = APPLICATION_CONTEXT(
  'core data for automotive mechanical design processes');
#3 = SHAPE_DEFINITION_REPRESENTATION(#4,#10);
#4 = PRODUCT_DEFINITION_SHAPE('','',#5);
#5 = PRODUCT_DEFINITION('design','',#6,#9);
#6 = PRODUCT_DEFINITION_FORMATION('','',#7);
#7 = PRODUCT('AvBayInt','AvBayInt','',(#8));
#8 = PRODUCT_CONTEXT('',#2,'mechanical');
#9 = PRODUCT_DEFINITION_CONTEXT('part definition',#2,'design');
#10 = ADVANCED_BREP_SHAPE_REPRESENTATION('',(#11,#15),#699);
#11 = AXIS2_PLACEMENT_3D('',#12,#13,#14);
#12 = CARTESIAN_POINT('',(0.,0.,0.));
#13 = DIRECTION('',(0.,0.,1.));
#14 = DIRECTION('',(1.,0.,-0.));
#15 = MANIFOLD_SOLID_BREP('',#16);
#16 = CLOSED_SHELL('',(#17,#328,#348,#501,#521,#669));
#17 = ADVANCED_FACE('',(#18,#188),#323,.T.);
#18 = FACE_BOUND('',#19,.F.);
#19 = EDGE_LOOP('',(#20,#29,#37,#74,#111,#119,#126,#127,#187));
#20 = ORIENTED_EDGE('',*,*,#21,.F.);
#21 = EDGE_CURVE('',#22,#22,#24,.T.);
#22 = VERTEX_POINT('',#23);
#23 = CARTESIAN_POINT('',(37.62,0.,-101.6));
#24 = CIRCLE('',#25,37.62);
#25 = AXIS2_PLACEMENT_3D('',#26,#27,#28);
#26 = CARTESIAN_POINT('',(0.,0.,-101.6));
#27 = DIRECTION('',(0.,0.,1.));
#28 = DIRECTION('',(1.,0.,0.));
#29 = ORIENTED_EDGE('',*,*,#30,.T.);
#30 = EDGE_CURVE('',#22,#31,#33,.T.);
#31 = VERTEX_POINT('',#32);
#32 = CARTESIAN_POINT('',(37.62,0.,-10.));
#33 = LINE('',#34,#35);
#34 = CARTESIAN_POINT('',(37.62,0.,-101.6));
#35 = VECTOR('',#36,1.);
#36 = DIRECTION('',(0.,0.,1.));
#37 = ORIENTED_EDGE('',*,*,#38,.T.);
#38 = EDGE_CURVE('',#31,#39,#41,.T.);
#39 = VERTEX_POINT('',#40);
#40 = CARTESIAN_POINT('',(36.266574142039,10.,-2.449293598295E-15));
#41 = B_SPLINE_CURVE_WITH_KNOTS('',7,(#42,#43,#44,#45,#46,#47,#48,#49,
    #50,#51,#52,#53,#54,#55,#56,#57,#58,#59,#60,#61,#62,#63,#64,#65,#66,
    #67,#68,#69,#70,#71,#72,#73),.UNSPECIFIED.,.F.,.F.,(8,6,6,6,6,8),(0.
    ,0.171315420336,0.285272444982,0.436056277412,0.561225868201,1.),
  .UNSPECIFIED.);
#42 = CARTESIAN_POINT('',(37.62,-9.184850993605E-16,-10.));
#43 = CARTESIAN_POINT('',(37.62,0.470661303286,-10.));
#44 = CARTESIAN_POINT('',(37.613130232619,0.940532372779,-9.974155680412
    ));
#45 = CARTESIAN_POINT('',(37.599431970515,1.406594903802,-9.92262367441)
  );
#46 = CARTESIAN_POINT('',(37.579203621183,1.865862022663,-9.846132500019
    ));
#47 = CARTESIAN_POINT('',(37.552992214234,2.315441219828,-9.745974331016
    ));
#48 = CARTESIAN_POINT('',(37.521555876138,2.752596149182,-9.624004286409
    ));
#49 = CARTESIAN_POINT('',(37.46201109855,3.455657234841,-9.38861817467)
  );
#50 = CARTESIAN_POINT('',(37.436285583495,3.730211773448,-9.285904705003
    ));
#51 = CARTESIAN_POINT('',(37.408836912264,3.998197529079,-9.175019776338
    ));
#52 = CARTESIAN_POINT('',(37.379886617003,4.259370168555,-9.056482482696
    ));
#53 = CARTESIAN_POINT('',(37.349658152268,4.513514321722,-8.930818754707
    ));
#54 = CARTESIAN_POINT('',(37.31837345028,4.760443497512,-8.798562049042)
  );
#55 = CARTESIAN_POINT('',(37.243744190152,5.316972539785,-8.477249856674
    ));
#56 = CARTESIAN_POINT('',(37.199758140165,5.621121277712,-8.28360281998)
  );
#57 = CARTESIAN_POINT('',(37.154739180965,5.91247304828,-8.080323995301)
  );
#58 = CARTESIAN_POINT('',(37.109101046977,6.191102466163,-7.868338112656
    ));
#59 = CARTESIAN_POINT('',(37.063222825675,6.457122632099,-7.648490539994
    ));
#60 = CARTESIAN_POINT('',(37.01744843096,6.710675838782,-7.421554258646)
  );
#61 = CARTESIAN_POINT('',(36.934429603355,7.152190895335,-6.994553965105
    ));
#62 = CARTESIAN_POINT('',(36.897049753416,7.344017746812,-6.796435787498
    ));
#63 = CARTESIAN_POINT('',(36.860116272669,7.527529372532,-6.594246536366
    ));
#64 = CARTESIAN_POINT('',(36.823783625123,7.702848608551,-6.388319018572
    ));
#65 = CARTESIAN_POINT('',(36.788191751918,7.870096670636,-6.178954634364
    ));
#66 = CARTESIAN_POINT('',(36.753466830401,8.029393239269,-5.966423394307
    ));
#67 = CARTESIAN_POINT('',(36.601431767971,8.711801640061,-4.995684350616
    ));
#68 = CARTESIAN_POINT('',(36.495093713101,9.146901990559,-4.203836099124
    ));
#69 = CARTESIAN_POINT('',(36.405753105653,9.490362772332,-3.38641589623)
  );
#70 = CARTESIAN_POINT('',(36.336712556726,9.74563142739,-2.551434231753)
  );
#71 = CARTESIAN_POINT('',(36.28997911433,9.915118319599,-1.705157466391)
  );
#72 = CARTESIAN_POINT('',(36.266574142039,10.,-0.852974639674));
#73 = CARTESIAN_POINT('',(36.266574142039,10.,-1.7763568394E-15));
#74 = ORIENTED_EDGE('',*,*,#75,.T.);
#75 = EDGE_CURVE('',#39,#76,#78,.T.);
#76 = VERTEX_POINT('',#77);
#77 = CARTESIAN_POINT('',(37.62,0.,10.));
#78 = B_SPLINE_CURVE_WITH_KNOTS('',7,(#79,#80,#81,#82,#83,#84,#85,#86,
    #87,#88,#89,#90,#91,#92,#93,#94,#95,#96,#97,#98,#99,#100,#101,#102,
    #103,#104,#105,#106,#107,#108,#109,#110),.UNSPECIFIED.,.F.,.F.,(8,6,
    6,6,6,8),(0.,0.438774382146,0.563943980372,0.714727821761,
    0.828684853175,1.),.UNSPECIFIED.);
#79 = CARTESIAN_POINT('',(36.266574142039,10.,-1.224646799147E-15));
#80 = CARTESIAN_POINT('',(36.266574142039,10.,0.852974782365));
#81 = CARTESIAN_POINT('',(36.289979122498,9.915118290439,1.705157870106)
  );
#82 = CARTESIAN_POINT('',(36.336712590299,9.745631303543,2.551434732732)
  );
#83 = CARTESIAN_POINT('',(36.405753156911,9.490362588462,3.386416220041)
  );
#84 = CARTESIAN_POINT('',(36.495093711167,9.146901956681,4.203835969033)
  );
#85 = CARTESIAN_POINT('',(36.601431707507,8.711801911451,4.995683964558)
  );
#86 = CARTESIAN_POINT('',(36.753466830401,8.029393239269,5.966423394307)
  );
#87 = CARTESIAN_POINT('',(36.788191751918,7.870096670636,6.178954634364)
  );
#88 = CARTESIAN_POINT('',(36.823783625123,7.702848608551,6.388319018572)
  );
#89 = CARTESIAN_POINT('',(36.860116272669,7.527529372532,6.594246536366)
  );
#90 = CARTESIAN_POINT('',(36.897049753416,7.344017746812,6.796435787498)
  );
#91 = CARTESIAN_POINT('',(36.934429603355,7.152190895335,6.994553965105)
  );
#92 = CARTESIAN_POINT('',(37.01744843096,6.710675838782,7.421554258646)
  );
#93 = CARTESIAN_POINT('',(37.063222825675,6.457122632099,7.648490539994)
  );
#94 = CARTESIAN_POINT('',(37.109101046977,6.191102466163,7.868338112656)
  );
#95 = CARTESIAN_POINT('',(37.154739180965,5.91247304828,8.080323995301)
  );
#96 = CARTESIAN_POINT('',(37.199758140165,5.621121277712,8.28360281998)
  );
#97 = CARTESIAN_POINT('',(37.243744190152,5.316972539785,8.477249856674)
  );
#98 = CARTESIAN_POINT('',(37.31837345028,4.760443497518,8.798562049038)
  );
#99 = CARTESIAN_POINT('',(37.349658152268,4.513514321723,8.930818754707)
  );
#100 = CARTESIAN_POINT('',(37.379886617004,4.25937016855,9.056482482699)
  );
#101 = CARTESIAN_POINT('',(37.408836912264,3.998197529074,9.17501977634)
  );
#102 = CARTESIAN_POINT('',(37.436285583495,3.730211773449,9.285904705002
    ));
#103 = CARTESIAN_POINT('',(37.46201109855,3.455657234849,9.388618174667)
  );
#104 = CARTESIAN_POINT('',(37.521555816925,2.75259684832,9.624004052336)
  );
#105 = CARTESIAN_POINT('',(37.552992190339,2.315441720399,9.745974244548
    ));
#106 = CARTESIAN_POINT('',(37.579203660922,1.865861716809,9.846132654761
    ));
#107 = CARTESIAN_POINT('',(37.599432044196,1.406593594229,9.92262395235)
  );
#108 = CARTESIAN_POINT('',(37.613130285031,0.940530369006,9.974155877297
    ));
#109 = CARTESIAN_POINT('',(37.62,0.470659507986,10.));
#110 = CARTESIAN_POINT('',(37.62,1.530808498934E-15,10.));
#111 = ORIENTED_EDGE('',*,*,#112,.T.);
#112 = EDGE_CURVE('',#76,#113,#115,.T.);
#113 = VERTEX_POINT('',#114);
#114 = CARTESIAN_POINT('',(37.62,0.,101.6));
#115 = LINE('',#116,#117);
#116 = CARTESIAN_POINT('',(37.62,0.,-101.6));
#117 = VECTOR('',#118,1.);
#118 = DIRECTION('',(0.,0.,1.));
#119 = ORIENTED_EDGE('',*,*,#120,.T.);
#120 = EDGE_CURVE('',#113,#113,#121,.T.);
#121 = CIRCLE('',#122,37.62);
#122 = AXIS2_PLACEMENT_3D('',#123,#124,#125);
#123 = CARTESIAN_POINT('',(0.,0.,101.6));
#124 = DIRECTION('',(0.,0.,1.));
#125 = DIRECTION('',(1.,0.,0.));
#126 = ORIENTED_EDGE('',*,*,#112,.F.);
#127 = ORIENTED_EDGE('',*,*,#128,.T.);
#128 = EDGE_CURVE('',#76,#31,#129,.T.);
#129 = B_SPLINE_CURVE_WITH_KNOTS('',6,(#130,#131,#132,#133,#134,#135,
    #136,#137,#138,#139,#140,#141,#142,#143,#144,#145,#146,#147,#148,
    #149,#150,#151,#152,#153,#154,#155,#156,#157,#158,#159,#160,#161,
    #162,#163,#164,#165,#166,#167,#168,#169,#170,#171,#172,#173,#174,
    #175,#176,#177,#178,#179,#180,#181,#182,#183,#184,#185,#186),
  .UNSPECIFIED.,.F.,.F.,(7,5,5,5,5,5,5,5,5,5,5,7),(0.,8.563580266817E-02
    ,0.142599742404,0.217972376697,0.280541165666,0.378045911547,
    0.499953795833,0.665447833458,0.781974767114,0.857365727573,
    0.914343517569,1.),.UNSPECIFIED.);
#130 = CARTESIAN_POINT('',(37.62,-3.552713678801E-15,10.));
#131 = CARTESIAN_POINT('',(37.62,-0.549104854059,10.));
#132 = CARTESIAN_POINT('',(37.610382325659,-1.097103380298,
    9.963817952547));
#133 = CARTESIAN_POINT('',(37.591219204162,-1.638713546165,9.89172796582
    ));
#134 = CARTESIAN_POINT('',(37.563182843904,-2.168726657642,
    9.785338545714));
#135 = CARTESIAN_POINT('',(37.527515640069,-2.682227625359,
    9.647563794322));
#136 = CARTESIAN_POINT('',(37.458046732902,-3.502465558422,
    9.372946664029));
#137 = CARTESIAN_POINT('',(37.427581123732,-3.82131025946,9.251087921392
    ));
#138 = CARTESIAN_POINT('',(37.394778753664,-4.130862981285,
    9.117968667552));
#139 = CARTESIAN_POINT('',(37.360030434791,-4.430713084904,
    8.974500902895));
#140 = CARTESIAN_POINT('',(37.323727445963,-4.720517413771,
    8.821613384237));
#141 = CARTESIAN_POINT('',(37.236659975814,-5.369801296416,
    8.446749159812));
#142 = CARTESIAN_POINT('',(37.184997405905,-5.72164927023,8.218344284047
    ));
#143 = CARTESIAN_POINT('',(37.13204551226,-6.055590881817,7.976808778742
    ));
#144 = CARTESIAN_POINT('',(37.078508426599,-6.371784578624,
    7.723710557875));
#145 = CARTESIAN_POINT('',(37.025008823365,-6.670467765788,7.46044049529
    ));
#146 = CARTESIAN_POINT('',(36.928153524492,-7.185568665099,
    6.962273486159));
#147 = CARTESIAN_POINT('',(36.884608244986,-7.407397379497,
    6.730100708033));
#148 = CARTESIAN_POINT('',(36.841747293431,-7.617628367309,
    6.492355907616));
#149 = CARTESIAN_POINT('',(36.799832067378,-7.816475596875,
    6.249603166514));
#150 = CARTESIAN_POINT('',(36.759090963267,-8.004149355038,
    6.002333303989));
#151 = CARTESIAN_POINT('',(36.658371037206,-8.456230095972,
    5.359239775807));
#152 = CARTESIAN_POINT('',(36.60034796624,-8.704991504958,4.957530667449
    ));
#153 = CARTESIAN_POINT('',(36.546419544984,-8.927840496477,4.54751393321
    ));
#154 = CARTESIAN_POINT('',(36.497190593372,-9.125407762199,
    4.130561567207));
#155 = CARTESIAN_POINT('',(36.453133611732,-9.29822432712,3.707813119235
    ));
#156 = CARTESIAN_POINT('',(36.366463662415,-9.632315190914,
    2.745674716391));
#157 = CARTESIAN_POINT('',(36.326974664615,-9.779863838407,
    2.203607158953));
#158 = CARTESIAN_POINT('',(36.296892112645,-9.890047053585,
    1.656199142455));
#159 = CARTESIAN_POINT('',(36.276681417465,-9.963344385322,
    1.105319728156));
#160 = CARTESIAN_POINT('',(36.266574142039,-10.,0.552687035139));
#161 = CARTESIAN_POINT('',(36.266574142039,-10.,-0.750291168811));
#162 = CARTESIAN_POINT('',(36.285201014273,-9.932446900672,
    -1.500328953766));
#163 = CARTESIAN_POINT('',(36.322429589739,-9.797430559436,
    -2.245988683075));
#164 = CARTESIAN_POINT('',(36.377486966775,-9.594077147102,
    -2.983073408511));
#165 = CARTESIAN_POINT('',(36.44880878737,-9.320705571064,
    -3.706655078022));
#166 = CARTESIAN_POINT('',(36.593583604091,-8.731375085248,
    -4.905906219259));
#167 = CARTESIAN_POINT('',(36.660163438336,-8.45194321649,
    -5.391593385197));
#168 = CARTESIAN_POINT('',(36.73262103058,-8.13559216545,-5.86551538416)
  );
#169 = CARTESIAN_POINT('',(36.809822710838,-7.781057596526,
    -6.325217975473));
#170 = CARTESIAN_POINT('',(36.890286808134,-7.386953409942,
    -6.767509244518));
#171 = CARTESIAN_POINT('',(37.025008823365,-6.670467765792,
    -7.460440495286));
#172 = CARTESIAN_POINT('',(37.0785084266,-6.371784578623,-7.723710557877
    ));
#173 = CARTESIAN_POINT('',(37.132045512261,-6.055590881813,
    -7.976808778745));
#174 = CARTESIAN_POINT('',(37.184997405905,-5.721649270229,
    -8.218344284047));
#175 = CARTESIAN_POINT('',(37.236659975813,-5.369801296421,
    -8.446749159809));
#176 = CARTESIAN_POINT('',(37.323727445964,-4.720517413764,
    -8.821613384242));
#177 = CARTESIAN_POINT('',(37.36003043479,-4.430713084905,
    -8.974500902893));
#178 = CARTESIAN_POINT('',(37.394778753663,-4.130862981292,
    -9.117968667548));
#179 = CARTESIAN_POINT('',(37.427581123732,-3.821310259462,
    -9.251087921391));
#180 = CARTESIAN_POINT('',(37.458046732902,-3.502465558414,
    -9.372946664032));
#181 = CARTESIAN_POINT('',(37.527515571006,-2.682228440805,
    -9.647563521309));
#182 = CARTESIAN_POINT('',(37.563182838072,-2.168727032236,
    -9.785338533844));
#183 = CARTESIAN_POINT('',(37.59121927806,-1.638712730239,-9.89172824545
    ));
#184 = CARTESIAN_POINT('',(37.610382399043,-1.097101412881,
    -9.963818228216));
#185 = CARTESIAN_POINT('',(37.62,-0.549102759318,-10.));
#186 = CARTESIAN_POINT('',(37.62,-5.329070518201E-15,-10.));
#187 = ORIENTED_EDGE('',*,*,#30,.F.);
#188 = FACE_BOUND('',#189,.F.);
#189 = EDGE_LOOP('',(#190));
#190 = ORIENTED_EDGE('',*,*,#191,.F.);
#191 = EDGE_CURVE('',#192,#192,#194,.T.);
#192 = VERTEX_POINT('',#193);
#193 = CARTESIAN_POINT('',(-36.26657414203,10.,-2.449293598295E-15));
#194 = B_SPLINE_CURVE_WITH_KNOTS('',7,(#195,#196,#197,#198,#199,#200,
    #201,#202,#203,#204,#205,#206,#207,#208,#209,#210,#211,#212,#213,
    #214,#215,#216,#217,#218,#219,#220,#221,#222,#223,#224,#225,#226,
    #227,#228,#229,#230,#231,#232,#233,#234,#235,#236,#237,#238,#239,
    #240,#241,#242,#243,#244,#245,#246,#247,#248,#249,#250,#251,#252,
    #253,#254,#255,#256,#257,#258,#259,#260,#261,#262,#263,#264,#265,
    #266,#267,#268,#269,#270,#271,#272,#273,#274,#275,#276,#277,#278,
    #279,#280,#281,#282,#283,#284,#285,#286,#287,#288,#289,#290,#291,
    #292,#293,#294,#295,#296,#297,#298,#299,#300,#301,#302,#303,#304,
    #305,#306,#307,#308,#309,#310,#311,#312,#313,#314,#315,#316,#317,
    #318,#319,#320,#321,#322),.UNSPECIFIED.,.T.,.F.,(8,6,6,6,6,6,6,6,6,6
    ,6,6,6,6,6,6,6,6,6,6,6,8),(0.,0.109661883626,0.140945236695,
    0.178630299314,0.220668206117,0.249900143038,0.292723280588,
    0.321208733522,0.358899659336,0.390187879596,0.438946213079,
    0.499907609282,0.582664747232,0.640935343528,0.67863543351,
    0.720690103447,0.749933696978,0.792773910792,0.821270722649,
    0.85897667818,0.890277374999,1.),.UNSPECIFIED.);
#195 = CARTESIAN_POINT('',(-36.26657414203,10.,-1.7763568394E-15));
#196 = CARTESIAN_POINT('',(-36.26657414203,10.,0.852974782364));
#197 = CARTESIAN_POINT('',(-36.28997912249,9.915118290441,1.705157870108
    ));
#198 = CARTESIAN_POINT('',(-36.33671259029,9.74563130354,2.55143473273)
  );
#199 = CARTESIAN_POINT('',(-36.40575315691,9.490362588466,3.386416220043
    ));
#200 = CARTESIAN_POINT('',(-36.49509371116,9.146901956679,4.203835969032
    ));
#201 = CARTESIAN_POINT('',(-36.6014317075,8.711801911451,4.995683964558)
  );
#202 = CARTESIAN_POINT('',(-36.7534668304,8.029393239269,5.966423394307)
  );
#203 = CARTESIAN_POINT('',(-36.78819175191,7.870096670636,6.178954634364
    ));
#204 = CARTESIAN_POINT('',(-36.82378362512,7.702848608551,6.388319018572
    ));
#205 = CARTESIAN_POINT('',(-36.86011627266,7.527529372532,6.594246536366
    ));
#206 = CARTESIAN_POINT('',(-36.89704975341,7.344017746812,6.796435787498
    ));
#207 = CARTESIAN_POINT('',(-36.93442960335,7.152190895335,6.994553965105
    ));
#208 = CARTESIAN_POINT('',(-37.01744843096,6.710675838785,7.421554258642
    ));
#209 = CARTESIAN_POINT('',(-37.06322282567,6.4571226321,7.648490539994)
  );
#210 = CARTESIAN_POINT('',(-37.10910104697,6.19110246616,7.868338112659)
  );
#211 = CARTESIAN_POINT('',(-37.15473918096,5.912473048277,8.080323995303
    ));
#212 = CARTESIAN_POINT('',(-37.19975814016,5.621121277712,8.283602819979
    ));
#213 = CARTESIAN_POINT('',(-37.24374419015,5.316972539789,8.477249856671
    ));
#214 = CARTESIAN_POINT('',(-37.33366437026,4.64641528604,8.864396267631)
  );
#215 = CARTESIAN_POINT('',(-37.37930582807,4.276359062525,9.055591819647
    ));
#216 = CARTESIAN_POINT('',(-37.42243093022,3.890550376221,9.231882883091
    ));
#217 = CARTESIAN_POINT('',(-37.46228253891,3.48987158352,9.391426383861)
  );
#218 = CARTESIAN_POINT('',(-37.49811961884,3.075358965444,9.532491429453
    ));
#219 = CARTESIAN_POINT('',(-37.52924755819,2.648193342635,9.653456753851
    ));
#220 = CARTESIAN_POINT('',(-37.57298970631,1.904768708125,9.821894240419
    ));
#221 = CARTESIAN_POINT('',(-37.58834201678,1.594591678927,9.880477636076
    ));
#222 = CARTESIAN_POINT('',(-37.60087306185,1.280132900119,9.927960486003
    ));
#223 = CARTESIAN_POINT('',(-37.61040104576,0.962402224708,9.963889739058
    ));
#224 = CARTESIAN_POINT('',(-37.61679915878,0.64243531451,9.987957271144)
  );
#225 = CARTESIAN_POINT('',(-37.62,0.321282893306,10.));
#226 = CARTESIAN_POINT('',(-37.62,-0.470661303413,10.));
#227 = CARTESIAN_POINT('',(-37.61313023261,-0.940532372794,
    9.974155680398));
#228 = CARTESIAN_POINT('',(-37.59943197051,-1.406594903702,
    9.922623674415));
#229 = CARTESIAN_POINT('',(-37.57920362119,-1.865862022563,
    9.846132500046));
#230 = CARTESIAN_POINT('',(-37.55299221423,-2.315441219841,
    9.745974331026));
#231 = CARTESIAN_POINT('',(-37.52155587612,-2.752596149303,
    9.624004286368));
#232 = CARTESIAN_POINT('',(-37.46201109855,-3.455657234848,
    9.388618174667));
#233 = CARTESIAN_POINT('',(-37.43628558349,-3.730211773449,
    9.285904705002));
#234 = CARTESIAN_POINT('',(-37.40883691226,-3.998197529074,9.17501977634
    ));
#235 = CARTESIAN_POINT('',(-37.379886617,-4.25937016855,9.056482482699)
  );
#236 = CARTESIAN_POINT('',(-37.34965815226,-4.513514321723,
    8.930818754707));
#237 = CARTESIAN_POINT('',(-37.31837345028,-4.760443497518,
    8.798562049038));
#238 = CARTESIAN_POINT('',(-37.24374419015,-5.316972539789,
    8.477249856671));
#239 = CARTESIAN_POINT('',(-37.19975814016,-5.621121277712,
    8.283602819979));
#240 = CARTESIAN_POINT('',(-37.15473918096,-5.912473048277,
    8.080323995303));
#241 = CARTESIAN_POINT('',(-37.10910104697,-6.19110246616,7.868338112659
    ));
#242 = CARTESIAN_POINT('',(-37.06322282567,-6.4571226321,7.648490539994)
  );
#243 = CARTESIAN_POINT('',(-37.01744843096,-6.710675838785,
    7.421554258643));
#244 = CARTESIAN_POINT('',(-36.93442960335,-7.152190895335,
    6.994553965105));
#245 = CARTESIAN_POINT('',(-36.89704975341,-7.344017746812,
    6.796435787498));
#246 = CARTESIAN_POINT('',(-36.86011627266,-7.527529372532,
    6.594246536366));
#247 = CARTESIAN_POINT('',(-36.82378362512,-7.702848608551,
    6.388319018572));
#248 = CARTESIAN_POINT('',(-36.78819175191,-7.870096670636,
    6.178954634364));
#249 = CARTESIAN_POINT('',(-36.7534668304,-8.029393239269,5.966423394307
    ));
#250 = CARTESIAN_POINT('',(-36.66713546671,-8.416891010451,5.41520037977
    ));
#251 = CARTESIAN_POINT('',(-36.61692598532,-8.633916821657,
    5.072304688263));
#252 = CARTESIAN_POINT('',(-36.56953172432,-8.832333791138,
    4.723235382982));
#253 = CARTESIAN_POINT('',(-36.52532142364,-9.012512178761,
    4.368820070417));
#254 = CARTESIAN_POINT('',(-36.48460288561,-9.174783918151,
    4.009776306378));
#255 = CARTESIAN_POINT('',(-36.44763143281,-9.319433843453,
    3.646732460107));
#256 = CARTESIAN_POINT('',(-36.37334290577,-9.605797437364,
    2.822042410969));
#257 = CARTESIAN_POINT('',(-36.33825723541,-9.737707081983,
    2.358483603928));
#258 = CARTESIAN_POINT('',(-36.30978463491,-9.842825675652,
    1.890802578092));
#259 = CARTESIAN_POINT('',(-36.28823038614,-9.921460195756,
    1.420107964904));
#260 = CARTESIAN_POINT('',(-36.27379362448,-9.973817418088,
    0.947424673015));
#261 = CARTESIAN_POINT('',(-36.26657414203,-10.,0.473731744397));
#262 = CARTESIAN_POINT('',(-36.26657414203,-10.,-0.643106716124));
#263 = CARTESIAN_POINT('',(-36.27987905077,-9.951747786194,
    -1.286032443779));
#264 = CARTESIAN_POINT('',(-36.30647448596,-9.85529470568,
    -1.926420227657));
#265 = CARTESIAN_POINT('',(-36.34602560846,-9.710279097008,
    -2.561882136833));
#266 = CARTESIAN_POINT('',(-36.3978646298,-9.51597098252,-3.189811028371
    ));
#267 = CARTESIAN_POINT('',(-36.46094535643,-9.271301604933,
    -3.80718909788));
#268 = CARTESIAN_POINT('',(-36.58503806037,-8.76616117267,
    -4.835118679764));
#269 = CARTESIAN_POINT('',(-36.64114062371,-8.53178091665,
    -5.252825593598));
#270 = CARTESIAN_POINT('',(-36.70156777354,-8.271171200563,
    -5.66240593023));
#271 = CARTESIAN_POINT('',(-36.76570746928,-7.983648756218,
    -6.062530802924));
#272 = CARTESIAN_POINT('',(-36.83281245753,-7.668456378903,
    -6.451586940092));
#273 = CARTESIAN_POINT('',(-36.90197241252,-7.324806419526,
    -6.827613158885));
#274 = CARTESIAN_POINT('',(-37.01744843096,-6.710675838785,
    -7.421554258642));
#275 = CARTESIAN_POINT('',(-37.06322282567,-6.4571226321,-7.648490539994
    ));
#276 = CARTESIAN_POINT('',(-37.10910104697,-6.19110246616,
    -7.868338112659));
#277 = CARTESIAN_POINT('',(-37.15473918096,-5.912473048277,
    -8.080323995303));
#278 = CARTESIAN_POINT('',(-37.19975814016,-5.621121277712,
    -8.283602819979));
#279 = CARTESIAN_POINT('',(-37.24374419015,-5.316972539789,
    -8.477249856671));
#280 = CARTESIAN_POINT('',(-37.33366437029,-4.646415285845,
    -8.864396267743));
#281 = CARTESIAN_POINT('',(-37.37930582807,-4.276359062504,
    -9.055591819635));
#282 = CARTESIAN_POINT('',(-37.42243093021,-3.890550376384,
    -9.231882883007));
#283 = CARTESIAN_POINT('',(-37.4622825389,-3.489871583687,
    -9.391426383815));
#284 = CARTESIAN_POINT('',(-37.49811961885,-3.07535896542,
    -9.532491429483));
#285 = CARTESIAN_POINT('',(-37.5292475582,-2.648193342418,-9.6534567539)
  );
#286 = CARTESIAN_POINT('',(-37.57298970631,-1.904768708125,
    -9.821894240419));
#287 = CARTESIAN_POINT('',(-37.58834201678,-1.594591678927,
    -9.880477636076));
#288 = CARTESIAN_POINT('',(-37.60087306185,-1.280132900119,
    -9.927960486003));
#289 = CARTESIAN_POINT('',(-37.61040104576,-0.962402224707,
    -9.963889739058));
#290 = CARTESIAN_POINT('',(-37.61679915878,-0.64243531451,
    -9.987957271144));
#291 = CARTESIAN_POINT('',(-37.62,-0.321282893306,-10.));
#292 = CARTESIAN_POINT('',(-37.62,0.470661303285,-10.));
#293 = CARTESIAN_POINT('',(-37.61313023261,0.940532372779,
    -9.974155680412));
#294 = CARTESIAN_POINT('',(-37.59943197051,1.406594903802,-9.92262367441
    ));
#295 = CARTESIAN_POINT('',(-37.57920362118,1.865862022664,
    -9.846132500019));
#296 = CARTESIAN_POINT('',(-37.55299221423,2.315441219828,
    -9.745974331016));
#297 = CARTESIAN_POINT('',(-37.52155587613,2.752596149182,
    -9.624004286409));
#298 = CARTESIAN_POINT('',(-37.46201109855,3.455657234841,-9.38861817467
    ));
#299 = CARTESIAN_POINT('',(-37.43628558349,3.730211773448,
    -9.285904705003));
#300 = CARTESIAN_POINT('',(-37.40883691226,3.998197529079,
    -9.175019776338));
#301 = CARTESIAN_POINT('',(-37.379886617,4.259370168555,-9.056482482696)
  );
#302 = CARTESIAN_POINT('',(-37.34965815226,4.513514321722,
    -8.930818754707));
#303 = CARTESIAN_POINT('',(-37.31837345028,4.760443497512,
    -8.798562049042));
#304 = CARTESIAN_POINT('',(-37.24374419015,5.316972539785,
    -8.477249856674));
#305 = CARTESIAN_POINT('',(-37.19975814016,5.621121277712,-8.28360281998
    ));
#306 = CARTESIAN_POINT('',(-37.15473918096,5.91247304828,-8.080323995301
    ));
#307 = CARTESIAN_POINT('',(-37.10910104697,6.191102466163,
    -7.868338112656));
#308 = CARTESIAN_POINT('',(-37.06322282567,6.4571226321,-7.648490539994)
  );
#309 = CARTESIAN_POINT('',(-37.01744843096,6.710675838782,
    -7.421554258646));
#310 = CARTESIAN_POINT('',(-36.93442960335,7.152190895335,
    -6.994553965105));
#311 = CARTESIAN_POINT('',(-36.89704975341,7.344017746812,
    -6.796435787498));
#312 = CARTESIAN_POINT('',(-36.86011627266,7.527529372532,
    -6.594246536366));
#313 = CARTESIAN_POINT('',(-36.82378362512,7.702848608551,
    -6.388319018572));
#314 = CARTESIAN_POINT('',(-36.78819175191,7.870096670636,
    -6.178954634364));
#315 = CARTESIAN_POINT('',(-36.7534668304,8.029393239269,-5.966423394307
    ));
#316 = CARTESIAN_POINT('',(-36.60143176797,8.711801640061,
    -4.995684350616));
#317 = CARTESIAN_POINT('',(-36.4950937131,9.146901990559,-4.203836099123
    ));
#318 = CARTESIAN_POINT('',(-36.40575310565,9.490362772333,
    -3.386415896233));
#319 = CARTESIAN_POINT('',(-36.33671255672,9.745631427389,
    -2.551434231749));
#320 = CARTESIAN_POINT('',(-36.28997911433,9.9151183196,-1.705157466393)
  );
#321 = CARTESIAN_POINT('',(-36.26657414203,10.,-0.852974639674));
#322 = CARTESIAN_POINT('',(-36.26657414203,10.,-1.7763568394E-15));
#323 = CYLINDRICAL_SURFACE('',#324,37.62);
#324 = AXIS2_PLACEMENT_3D('',#325,#326,#327);
#325 = CARTESIAN_POINT('',(0.,0.,-101.6));
#326 = DIRECTION('',(-0.,-0.,-1.));
#327 = DIRECTION('',(1.,0.,0.));
#328 = ADVANCED_FACE('',(#329,#332),#343,.F.);
#329 = FACE_BOUND('',#330,.F.);
#330 = EDGE_LOOP('',(#331));
#331 = ORIENTED_EDGE('',*,*,#21,.T.);
#332 = FACE_BOUND('',#333,.T.);
#333 = EDGE_LOOP('',(#334));
#334 = ORIENTED_EDGE('',*,*,#335,.T.);
#335 = EDGE_CURVE('',#336,#336,#338,.T.);
#336 = VERTEX_POINT('',#337);
#337 = CARTESIAN_POINT('',(36.995,0.,-101.6));
#338 = CIRCLE('',#339,36.995);
#339 = AXIS2_PLACEMENT_3D('',#340,#341,#342);
#340 = CARTESIAN_POINT('',(0.,0.,-101.6));
#341 = DIRECTION('',(0.,0.,1.));
#342 = DIRECTION('',(1.,0.,0.));
#343 = PLANE('',#344);
#344 = AXIS2_PLACEMENT_3D('',#345,#346,#347);
#345 = CARTESIAN_POINT('',(-3.5187094478E-15,1.597034434371E-15,-101.6)
  );
#346 = DIRECTION('',(0.,0.,1.));
#347 = DIRECTION('',(1.,0.,0.));
#348 = ADVANCED_FACE('',(#349),#496,.F.);
#349 = FACE_BOUND('',#350,.F.);
#350 = EDGE_LOOP('',(#351,#352,#359,#396,#458,#493,#494,#495));
#351 = ORIENTED_EDGE('',*,*,#75,.F.);
#352 = ORIENTED_EDGE('',*,*,#353,.F.);
#353 = EDGE_CURVE('',#354,#39,#356,.T.);
#354 = VERTEX_POINT('',#355);
#355 = CARTESIAN_POINT('',(35.617832963278,10.,-2.449293598295E-15));
#356 = B_SPLINE_CURVE_WITH_KNOTS('',1,(#357,#358),.UNSPECIFIED.,.F.,.F.,
  (2,2),(-463.3351423732,463.33514237329),.PIECEWISE_BEZIER_KNOTS.);
#357 = CARTESIAN_POINT('',(-463.3351423732,10.,-2.449293598295E-15));
#358 = CARTESIAN_POINT('',(463.33514237329,10.,-2.449293598295E-15));
#359 = ORIENTED_EDGE('',*,*,#360,.T.);
#360 = EDGE_CURVE('',#354,#361,#363,.T.);
#361 = VERTEX_POINT('',#362);
#362 = CARTESIAN_POINT('',(36.995,0.,10.));
#363 = B_SPLINE_CURVE_WITH_KNOTS('',7,(#364,#365,#366,#367,#368,#369,
    #370,#371,#372,#373,#374,#375,#376,#377,#378,#379,#380,#381,#382,
    #383,#384,#385,#386,#387,#388,#389,#390,#391,#392,#393,#394,#395),
  .UNSPECIFIED.,.F.,.F.,(8,6,6,6,6,8),(0.,0.438734820414,0.563926973577,
    0.714741623357,0.828708346005,1.),.UNSPECIFIED.);
#364 = CARTESIAN_POINT('',(35.617832963278,10.,-1.224646799147E-15));
#365 = CARTESIAN_POINT('',(35.617832963278,10.,0.853097115378));
#366 = CARTESIAN_POINT('',(35.641671080199,9.915093937394,1.705390513373
    ));
#367 = CARTESIAN_POINT('',(35.689268183736,9.74556261911,2.551743010291)
  );
#368 = CARTESIAN_POINT('',(35.759575605074,9.490245200464,3.386745619337
    ));
#369 = CARTESIAN_POINT('',(35.850534133799,9.146757035319,4.204119099374
    ));
#370 = CARTESIAN_POINT('',(35.958766065716,8.711683703252,4.995852117989
    ));
#371 = CARTESIAN_POINT('',(36.113475436972,8.029386016566,5.966433668741
    ));
#372 = CARTESIAN_POINT('',(36.148816605324,7.870084631082,6.178970420101
    ));
#373 = CARTESIAN_POINT('',(36.185038062481,7.702834252863,6.388336408886
    ));
#374 = CARTESIAN_POINT('',(36.222011327594,7.527515205425,6.594262426638
    ));
#375 = CARTESIAN_POINT('',(36.259593968572,7.34400618119,6.796447822391)
  );
#376 = CARTESIAN_POINT('',(36.297628832706,7.152184151518,6.99456048722)
  );
#377 = CARTESIAN_POINT('',(36.38209936132,6.710678143378,7.421552029813)
  );
#378 = CARTESIAN_POINT('',(36.428671919002,6.457129773677,7.648483982664
    ));
#379 = CARTESIAN_POINT('',(36.475347666531,6.191115322714,7.868327378051
    ));
#380 = CARTESIAN_POINT('',(36.521777098116,5.912490472984,8.080310974229
    ));
#381 = CARTESIAN_POINT('',(36.567574969556,5.621139802616,8.283590574837
    ));
#382 = CARTESIAN_POINT('',(36.612320781813,5.3169861536,8.477241996734)
  );
#383 = CARTESIAN_POINT('',(36.688233465551,4.760461778063,8.798551494761
    ));
#384 = CARTESIAN_POINT('',(36.720053630689,4.513546979942,8.930801473687
    ));
#385 = CARTESIAN_POINT('',(36.750799247783,4.259412049394,9.056462345691
    ));
#386 = CARTESIAN_POINT('',(36.780244736784,3.998242160778,9.17500048056)
  );
#387 = CARTESIAN_POINT('',(36.80816293107,3.730251306874,9.285889537158)
  );
#388 = CARTESIAN_POINT('',(36.834328558689,3.455682386714,9.388609753778
    ));
#389 = CARTESIAN_POINT('',(36.8948839804,2.752652841813,9.623985305614)
  );
#390 = CARTESIAN_POINT('',(36.926852810251,2.315528618612,9.745951620231
    ));
#391 = CARTESIAN_POINT('',(36.953509210964,1.865958626363,9.846114201979
    ));
#392 = CARTESIAN_POINT('',(36.97408155855,1.406683393769,9.922612819468)
  );
#393 = CARTESIAN_POINT('',(36.98801309722,0.940599425161,9.974151701722)
  );
#394 = CARTESIAN_POINT('',(36.995,0.470697525377,10.));
#395 = CARTESIAN_POINT('',(36.995,1.530808498934E-15,10.));
#396 = ORIENTED_EDGE('',*,*,#397,.T.);
#397 = EDGE_CURVE('',#361,#398,#400,.T.);
#398 = VERTEX_POINT('',#399);
#399 = CARTESIAN_POINT('',(36.995,0.,-10.));
#400 = B_SPLINE_CURVE_WITH_KNOTS('',6,(#401,#402,#403,#404,#405,#406,
    #407,#408,#409,#410,#411,#412,#413,#414,#415,#416,#417,#418,#419,
    #420,#421,#422,#423,#424,#425,#426,#427,#428,#429,#430,#431,#432,
    #433,#434,#435,#436,#437,#438,#439,#440,#441,#442,#443,#444,#445,
    #446,#447,#448,#449,#450,#451,#452,#453,#454,#455,#456,#457),
  .UNSPECIFIED.,.F.,.F.,(7,5,5,5,5,5,5,5,5,5,5,7),(0.,8.562350863467E-02
    ,0.142591925559,0.217979474201,0.2805591344,0.378066030496,
    0.499952479675,0.665423704875,0.781965945794,0.857372420242,
    0.91435513891,1.),.UNSPECIFIED.);
#401 = CARTESIAN_POINT('',(36.995,-3.552713678801E-15,10.));
#402 = CARTESIAN_POINT('',(36.995,-0.549149218013,10.));
#403 = CARTESIAN_POINT('',(36.985218261111,-1.097182327939,9.96381210536
    ));
#404 = CARTESIAN_POINT('',(36.965728899807,-1.638811496698,
    9.891712866053));
#405 = CARTESIAN_POINT('',(36.937216197747,-2.168822181187,
    9.785315620373));
#406 = CARTESIAN_POINT('',(36.900944427395,-2.682292943851,
    9.647541925574));
#407 = CARTESIAN_POINT('',(36.830296364535,-3.502494902266,
    9.372936839658));
#408 = CARTESIAN_POINT('',(36.799309557684,-3.821353868718,
    9.251070616158));
#409 = CARTESIAN_POINT('',(36.765946121109,-4.130908379823,
    9.117947878862));
#410 = CARTESIAN_POINT('',(36.730603416681,-4.430750275488,
    8.974481634797));
#411 = CARTESIAN_POINT('',(36.693679165711,-4.720538741074,
    8.821601070914));
#412 = CARTESIAN_POINT('',(36.605114368016,-5.369817179204,8.44673998988
    ));
#413 = CARTESIAN_POINT('',(36.552559210171,-5.721668851981,
    8.218330808819));
#414 = CARTESIAN_POINT('',(36.498690514075,-6.05560668873,7.97679609829)
  );
#415 = CARTESIAN_POINT('',(36.444223869806,-6.371793501353,
    7.723702417737));
#416 = CARTESIAN_POINT('',(36.389792041991,-6.670470454487,
    7.460437894981));
#417 = CARTESIAN_POINT('',(36.291243091942,-7.185560797313,
    6.962281095293));
#418 = CARTESIAN_POINT('',(36.246934319224,-7.407384334741,
    6.730114513231));
#419 = CARTESIAN_POINT('',(36.203319083871,-7.617613358438,
    6.492373361694));
#420 = CARTESIAN_POINT('',(36.160663367294,-7.816462112095,6.24962047181
    ));
#421 = CARTESIAN_POINT('',(36.119199700399,-8.004140928551,
    6.002345290828));
#422 = CARTESIAN_POINT('',(36.016696054405,-8.456201459667,5.3592805115)
  );
#423 = CARTESIAN_POINT('',(35.957641591024,-8.704950726504,
    4.957598626395));
#424 = CARTESIAN_POINT('',(35.902747825397,-8.927800414206,
    4.547592824842));
#425 = CARTESIAN_POINT('',(35.852632105029,-9.125377328349,
    4.130633277056));
#426 = CARTESIAN_POINT('',(35.807777476142,-9.298208540233,
    3.707858583423));
#427 = CARTESIAN_POINT('',(35.71954240362,-9.632298193945,2.74572366546)
  );
#428 = CARTESIAN_POINT('',(35.679337611497,-9.779846577766,
    2.203678318054));
#429 = CARTESIAN_POINT('',(35.648706105021,-9.89003650826,1.65626962404)
  );
#430 = CARTESIAN_POINT('',(35.628125341549,-9.963340789048,1.10537297035
    ));
#431 = CARTESIAN_POINT('',(35.617832963278,-10.,0.552714149567));
#432 = CARTESIAN_POINT('',(35.617832963278,-10.,-0.750356484494));
#433 = CARTESIAN_POINT('',(35.636802403397,-9.932435141962,
    -1.500455214621));
#434 = CARTESIAN_POINT('',(35.674715260493,-9.79739674666,
    -2.246152914803));
#435 = CARTESIAN_POINT('',(35.730778166078,-9.594022713182,
    -2.983235155891));
#436 = CARTESIAN_POINT('',(35.803386601358,-9.320652863901,
    -3.706762333844));
#437 = CARTESIAN_POINT('',(35.950752800073,-8.731346645539,
    -4.90596409231));
#438 = CARTESIAN_POINT('',(36.018527898894,-8.451892569239,
    -5.391677109717));
#439 = CARTESIAN_POINT('',(36.092276774661,-8.135530760263,
    -5.865599433159));
#440 = CARTESIAN_POINT('',(36.170843359975,-7.781000385198,
    -6.325283594347));
#441 = CARTESIAN_POINT('',(36.252718915521,-7.386916887157,
    -6.767544566621));
#442 = CARTESIAN_POINT('',(36.389792041991,-6.670470454484,
    -7.460437894985));
#443 = CARTESIAN_POINT('',(36.444223869806,-6.371793501354,
    -7.723702417736));
#444 = CARTESIAN_POINT('',(36.498690514074,-6.055606688734,
    -7.976796098287));
#445 = CARTESIAN_POINT('',(36.552559210171,-5.721668851982,
    -8.218330808819));
#446 = CARTESIAN_POINT('',(36.605114368017,-5.3698171792,-8.446739989882
    ));
#447 = CARTESIAN_POINT('',(36.693679165712,-4.720538741066,
    -8.821601070918));
#448 = CARTESIAN_POINT('',(36.73060341668,-4.43075027549,-8.974481634795
    ));
#449 = CARTESIAN_POINT('',(36.765946121108,-4.130908379831,
    -9.117947878858));
#450 = CARTESIAN_POINT('',(36.799309557684,-3.82135386872,
    -9.251070616158));
#451 = CARTESIAN_POINT('',(36.830296364536,-3.502494902257,
    -9.372936839661));
#452 = CARTESIAN_POINT('',(36.900944356532,-2.682293766548,
    -9.647541650134));
#453 = CARTESIAN_POINT('',(36.937216191739,-2.168822559437,
    -9.78531560827));
#454 = CARTESIAN_POINT('',(36.965728975382,-1.638810676558,
    -9.891713147261));
#455 = CARTESIAN_POINT('',(36.985218336108,-1.097180350049,
    -9.963812382411));
#456 = CARTESIAN_POINT('',(36.995,-0.54914711294,-10.));
#457 = CARTESIAN_POINT('',(36.995,-5.329070518201E-15,-10.));
#458 = ORIENTED_EDGE('',*,*,#459,.T.);
#459 = EDGE_CURVE('',#398,#354,#460,.T.);
#460 = B_SPLINE_CURVE_WITH_KNOTS('',7,(#461,#462,#463,#464,#465,#466,
    #467,#468,#469,#470,#471,#472,#473,#474,#475,#476,#477,#478,#479,
    #480,#481,#482,#483,#484,#485,#486,#487,#488,#489,#490,#491,#492),
  .UNSPECIFIED.,.F.,.F.,(8,6,6,6,6,8),(0.,0.171291929597,0.285258645242,
    0.436073285756,0.561265431227,1.),.UNSPECIFIED.);
#461 = CARTESIAN_POINT('',(36.995,-9.184850993605E-16,-10.));
#462 = CARTESIAN_POINT('',(36.995,0.470699329725,-10.));
#463 = CARTESIAN_POINT('',(36.98801304365,0.940601439389,-9.974151503828
    ));
#464 = CARTESIAN_POINT('',(36.974081483223,1.406684710086,
    -9.922612540041));
#465 = CARTESIAN_POINT('',(36.953509170353,1.865958932907,
    -9.846114046476));
#466 = CARTESIAN_POINT('',(36.926852834789,2.315528113377,
    -9.745951707573));
#467 = CARTESIAN_POINT('',(36.89488404114,2.752652136644,-9.623985541706
    ));
#468 = CARTESIAN_POINT('',(36.834328558689,3.455682386714,
    -9.388609753778));
#469 = CARTESIAN_POINT('',(36.80816293107,3.730251306874,-9.285889537158
    ));
#470 = CARTESIAN_POINT('',(36.780244736784,3.998242160778,-9.17500048056
    ));
#471 = CARTESIAN_POINT('',(36.750799247783,4.259412049394,
    -9.056462345691));
#472 = CARTESIAN_POINT('',(36.720053630689,4.513546979941,
    -8.930801473687));
#473 = CARTESIAN_POINT('',(36.688233465551,4.760461778063,
    -8.798551494761));
#474 = CARTESIAN_POINT('',(36.612320781813,5.3169861536,-8.477241996734)
  );
#475 = CARTESIAN_POINT('',(36.567574969556,5.621139802616,
    -8.283590574837));
#476 = CARTESIAN_POINT('',(36.521777098116,5.912490472983,-8.08031097423
    ));
#477 = CARTESIAN_POINT('',(36.475347666531,6.191115322714,
    -7.868327378051));
#478 = CARTESIAN_POINT('',(36.428671919002,6.457129773677,
    -7.648483982664));
#479 = CARTESIAN_POINT('',(36.38209936132,6.710678143378,-7.421552029813
    ));
#480 = CARTESIAN_POINT('',(36.297628832706,7.152184151518,-6.99456048722
    ));
#481 = CARTESIAN_POINT('',(36.259593968572,7.34400618119,-6.796447822391
    ));
#482 = CARTESIAN_POINT('',(36.222011327594,7.527515205425,
    -6.594262426638));
#483 = CARTESIAN_POINT('',(36.185038062481,7.702834252863,
    -6.388336408887));
#484 = CARTESIAN_POINT('',(36.148816605324,7.870084631082,
    -6.178970420101));
#485 = CARTESIAN_POINT('',(36.113475436972,8.029386016566,
    -5.966433668741));
#486 = CARTESIAN_POINT('',(35.958766127357,8.711683431405,
    -4.995852504697));
#487 = CARTESIAN_POINT('',(35.850534135925,9.146757068639,-4.20411923051
    ));
#488 = CARTESIAN_POINT('',(35.75957555294,9.490245384249,-3.386745296326
    ));
#489 = CARTESIAN_POINT('',(35.689268149296,9.745562743869,
    -2.551742508101));
#490 = CARTESIAN_POINT('',(35.641671071594,9.915093967577,-1.70539010549
    ));
#491 = CARTESIAN_POINT('',(35.617832963278,10.,-0.853096967542));
#492 = CARTESIAN_POINT('',(35.617832963278,10.,-1.7763568394E-15));
#493 = ORIENTED_EDGE('',*,*,#353,.T.);
#494 = ORIENTED_EDGE('',*,*,#38,.F.);
#495 = ORIENTED_EDGE('',*,*,#128,.F.);
#496 = CYLINDRICAL_SURFACE('',#497,10.);
#497 = AXIS2_PLACEMENT_3D('',#498,#499,#500);
#498 = CARTESIAN_POINT('',(0.,0.,0.));
#499 = DIRECTION('',(1.,0.,0.));
#500 = DIRECTION('',(0.,1.,0.));
#501 = ADVANCED_FACE('',(#502,#505),#516,.T.);
#502 = FACE_BOUND('',#503,.T.);
#503 = EDGE_LOOP('',(#504));
#504 = ORIENTED_EDGE('',*,*,#120,.T.);
#505 = FACE_BOUND('',#506,.F.);
#506 = EDGE_LOOP('',(#507));
#507 = ORIENTED_EDGE('',*,*,#508,.T.);
#508 = EDGE_CURVE('',#509,#509,#511,.T.);
#509 = VERTEX_POINT('',#510);
#510 = CARTESIAN_POINT('',(36.995,0.,101.6));
#511 = CIRCLE('',#512,36.995);
#512 = AXIS2_PLACEMENT_3D('',#513,#514,#515);
#513 = CARTESIAN_POINT('',(0.,0.,101.6));
#514 = DIRECTION('',(0.,0.,1.));
#515 = DIRECTION('',(1.,0.,0.));
#516 = PLANE('',#517);
#517 = AXIS2_PLACEMENT_3D('',#518,#519,#520);
#518 = CARTESIAN_POINT('',(-3.5187094478E-15,1.597034434371E-15,101.6));
#519 = DIRECTION('',(0.,0.,1.));
#520 = DIRECTION('',(1.,0.,0.));
#521 = ADVANCED_FACE('',(#522),#664,.F.);
#522 = FACE_BOUND('',#523,.F.);
#523 = EDGE_LOOP('',(#524,#657,#662,#663));
#524 = ORIENTED_EDGE('',*,*,#525,.F.);
#525 = EDGE_CURVE('',#526,#526,#528,.T.);
#526 = VERTEX_POINT('',#527);
#527 = CARTESIAN_POINT('',(-35.61783296327,10.,-2.449293598295E-15));
#528 = B_SPLINE_CURVE_WITH_KNOTS('',7,(#529,#530,#531,#532,#533,#534,
    #535,#536,#537,#538,#539,#540,#541,#542,#543,#544,#545,#546,#547,
    #548,#549,#550,#551,#552,#553,#554,#555,#556,#557,#558,#559,#560,
    #561,#562,#563,#564,#565,#566,#567,#568,#569,#570,#571,#572,#573,
    #574,#575,#576,#577,#578,#579,#580,#581,#582,#583,#584,#585,#586,
    #587,#588,#589,#590,#591,#592,#593,#594,#595,#596,#597,#598,#599,
    #600,#601,#602,#603,#604,#605,#606,#607,#608,#609,#610,#611,#612,
    #613,#614,#615,#616,#617,#618,#619,#620,#621,#622,#623,#624,#625,
    #626,#627,#628,#629,#630,#631,#632,#633,#634,#635,#636,#637,#638,
    #639,#640,#641,#642,#643,#644,#645,#646,#647,#648,#649,#650,#651,
    #652,#653,#654,#655,#656),.UNSPECIFIED.,.T.,.F.,(8,6,6,6,6,6,6,6,6,6
    ,6,6,6,6,6,6,6,6,6,6,6,8),(0.,0.109650793502,0.14093944053,
    0.178631789645,0.220670843199,0.24989739602,0.292714439726,
    0.321202167417,0.358900598808,0.390194294769,0.438953766311,
    0.499904520442,0.582650355036,0.640928674899,0.678636570361,
    0.720692963434,0.749931570837,0.792766274588,0.821265752147,
    0.858979732397,0.890286335561,1.),.UNSPECIFIED.);
#529 = CARTESIAN_POINT('',(-35.61783296327,10.,-1.7763568394E-15));
#530 = CARTESIAN_POINT('',(-35.61783296327,10.,0.853097115379));
#531 = CARTESIAN_POINT('',(-35.64167108019,9.915093937394,1.705390513369
    ));
#532 = CARTESIAN_POINT('',(-35.68926818373,9.745562619109,2.551743010299
    ));
#533 = CARTESIAN_POINT('',(-35.75957560507,9.490245200467,3.386745619329
    ));
#534 = CARTESIAN_POINT('',(-35.85053413379,9.146757035317,4.204119099378
    ));
#535 = CARTESIAN_POINT('',(-35.95876606571,8.711683703253,4.995852117988
    ));
#536 = CARTESIAN_POINT('',(-36.11347543697,8.029386016566,5.966433668741
    ));
#537 = CARTESIAN_POINT('',(-36.14881660532,7.870084631083,6.178970420101
    ));
#538 = CARTESIAN_POINT('',(-36.18503806248,7.702834252863,6.388336408886
    ));
#539 = CARTESIAN_POINT('',(-36.22201132759,7.527515205425,6.594262426638
    ));
#540 = CARTESIAN_POINT('',(-36.25959396857,7.34400618119,6.796447822391)
  );
#541 = CARTESIAN_POINT('',(-36.2976288327,7.152184151518,6.994560487219)
  );
#542 = CARTESIAN_POINT('',(-36.38209936132,6.710678143378,7.421552029813
    ));
#543 = CARTESIAN_POINT('',(-36.428671919,6.457129773677,7.648483982664)
  );
#544 = CARTESIAN_POINT('',(-36.47534766653,6.191115322714,7.868327378051
    ));
#545 = CARTESIAN_POINT('',(-36.52177709811,5.912490472984,8.080310974229
    ));
#546 = CARTESIAN_POINT('',(-36.56757496955,5.621139802616,8.283590574837
    ));
#547 = CARTESIAN_POINT('',(-36.61232078181,5.3169861536,8.477241996734)
  );
#548 = CARTESIAN_POINT('',(-36.70378403528,4.646458811938,8.864371137942
    ));
#549 = CARTESIAN_POINT('',(-36.75020458785,4.276437197026,9.055552236013
    ));
#550 = CARTESIAN_POINT('',(-36.79406567806,3.890651222221,9.231838851133
    ));
#551 = CARTESIAN_POINT('',(-36.83459762513,3.489979806783,9.391386668001
    ));
#552 = CARTESIAN_POINT('',(-36.87104697789,3.075455474491,9.532462751319
    ));
#553 = CARTESIAN_POINT('',(-36.90270718099,2.648255105861,9.653442760176
    ));
#554 = CARTESIAN_POINT('',(-36.94719334728,1.904790247272,9.821889360301
    ));
#555 = CARTESIAN_POINT('',(-36.96280533701,1.594624485746,9.880471852689
    ));
#556 = CARTESIAN_POINT('',(-36.97554863535,1.28016861879,9.92795591041)
  );
#557 = CARTESIAN_POINT('',(-36.98523816459,0.962434340766,9.963887093875
    ));
#558 = CARTESIAN_POINT('',(-36.99174482909,0.642459103376,9.987956331812
    ));
#559 = CARTESIAN_POINT('',(-36.995,0.321295391662,10.));
#560 = CARTESIAN_POINT('',(-36.995,-0.470699329854,10.));
#561 = CARTESIAN_POINT('',(-36.98801304364,-0.940601439404,
    9.974151503814));
#562 = CARTESIAN_POINT('',(-36.97408148322,-1.406684709986,
    9.922612540047));
#563 = CARTESIAN_POINT('',(-36.95350917036,-1.865958932806,
    9.846114046503));
#564 = CARTESIAN_POINT('',(-36.92685283479,-2.31552811339,9.745951707583
    ));
#565 = CARTESIAN_POINT('',(-36.89488404112,-2.752652136767,
    9.623985541665));
#566 = CARTESIAN_POINT('',(-36.83432855868,-3.455682386707,9.38860975378
    ));
#567 = CARTESIAN_POINT('',(-36.80816293107,-3.730251306874,
    9.285889537159));
#568 = CARTESIAN_POINT('',(-36.78024473678,-3.998242160784,
    9.175000480558));
#569 = CARTESIAN_POINT('',(-36.75079924778,-4.259412049399,
    9.056462345688));
#570 = CARTESIAN_POINT('',(-36.72005363068,-4.513546979941,
    8.930801473687));
#571 = CARTESIAN_POINT('',(-36.68823346555,-4.760461778057,
    8.798551494764));
#572 = CARTESIAN_POINT('',(-36.61232078181,-5.3169861536,8.477241996734)
  );
#573 = CARTESIAN_POINT('',(-36.56757496955,-5.621139802616,
    8.283590574837));
#574 = CARTESIAN_POINT('',(-36.52177709811,-5.912490472983,
    8.080310974229));
#575 = CARTESIAN_POINT('',(-36.47534766653,-6.191115322714,
    7.868327378051));
#576 = CARTESIAN_POINT('',(-36.428671919,-6.457129773677,7.648483982664)
  );
#577 = CARTESIAN_POINT('',(-36.38209936132,-6.710678143378,
    7.421552029813));
#578 = CARTESIAN_POINT('',(-36.2976288327,-7.152184151518,6.99456048722)
  );
#579 = CARTESIAN_POINT('',(-36.25959396857,-7.34400618119,6.796447822391
    ));
#580 = CARTESIAN_POINT('',(-36.22201132759,-7.527515205425,
    6.594262426638));
#581 = CARTESIAN_POINT('',(-36.18503806248,-7.702834252863,
    6.388336408887));
#582 = CARTESIAN_POINT('',(-36.14881660532,-7.870084631082,
    6.178970420101));
#583 = CARTESIAN_POINT('',(-36.11347543697,-8.029386016566,
    5.966433668741));
#584 = CARTESIAN_POINT('',(-36.02561516897,-8.416866471809,5.41523528646
    ));
#585 = CARTESIAN_POINT('',(-35.97451429484,-8.633879507407,
    5.072364879282));
#586 = CARTESIAN_POINT('',(-35.92627372495,-8.832293405191,
    4.723309596936));
#587 = CARTESIAN_POINT('',(-35.88126965952,-9.012476234553,
    4.368895875791));
#588 = CARTESIAN_POINT('',(-35.83981649677,-9.174757674602,
    4.009840507447));
#589 = CARTESIAN_POINT('',(-35.80217532155,-9.319420308211,
    3.646771439848));
#590 = CARTESIAN_POINT('',(-35.72654525939,-9.605782868533,
    2.822084367315));
#591 = CARTESIAN_POINT('',(-35.69082469495,-9.737689896678,
    2.358548417306));
#592 = CARTESIAN_POINT('',(-35.66183389351,-9.842812252334,1.89087335004
    ));
#593 = CARTESIAN_POINT('',(-35.63988577782,-9.921452628596,
    1.420171058178));
#594 = CARTESIAN_POINT('',(-35.62518466204,-9.973814849321,
    0.947470450134));
#595 = CARTESIAN_POINT('',(-35.61783296327,-10.,0.473754985336));
#596 = CARTESIAN_POINT('',(-35.61783296327,-10.,-0.643162700995));
#597 = CARTESIAN_POINT('',(-35.63138256336,-9.951739387115,
    -1.286141291728));
#598 = CARTESIAN_POINT('',(-35.65846689316,-9.855270344647,
    -1.926568186153));
#599 = CARTESIAN_POINT('',(-35.69874222003,-9.710236446598,
    -2.562045303841));
#600 = CARTESIAN_POINT('',(-35.7515234333,-9.515917041959,
    -3.189957206735));
#601 = CARTESIAN_POINT('',(-35.81573903351,-9.271256427365,
    -3.807281031442));
#602 = CARTESIAN_POINT('',(-35.94205291812,-8.766136811626,
    -4.835168252984));
#603 = CARTESIAN_POINT('',(-35.99916358494,-8.531736591039,
    -5.252901961887));
#604 = CARTESIAN_POINT('',(-36.06067011361,-8.271114392681,
    -5.66248986597));
#605 = CARTESIAN_POINT('',(-36.12594816836,-7.98358917095,
    -6.062606930811));
#606 = CARTESIAN_POINT('',(-36.19423637584,-7.668405100043,
    -6.451643872139));
#607 = CARTESIAN_POINT('',(-36.26460811005,-7.32477508567,
    -6.827643462644));
#608 = CARTESIAN_POINT('',(-36.38209936131,-6.710678143382,
    -7.421552029809));
#609 = CARTESIAN_POINT('',(-36.428671919,-6.457129773677,-7.648483982664
    ));
#610 = CARTESIAN_POINT('',(-36.47534766653,-6.191115322711,
    -7.868327378054));
#611 = CARTESIAN_POINT('',(-36.52177709811,-5.91249047298,
    -8.080310974232));
#612 = CARTESIAN_POINT('',(-36.56757496955,-5.621139802616,
    -8.283590574836));
#613 = CARTESIAN_POINT('',(-36.61232078181,-5.316986153604,
    -8.477241996732));
#614 = CARTESIAN_POINT('',(-36.70378403569,-4.646458808928,
    -8.864371139679));
#615 = CARTESIAN_POINT('',(-36.75020458752,-4.276437200786,
    -9.055552234688));
#616 = CARTESIAN_POINT('',(-36.79406567773,-3.89065122468,
    -9.231838849756));
#617 = CARTESIAN_POINT('',(-36.83459762534,-3.489979803377,
    -9.391386668829));
#618 = CARTESIAN_POINT('',(-36.87104697824,-3.0754554709,-9.532462752769
    ));
#619 = CARTESIAN_POINT('',(-36.90270718074,-2.64825511012,
    -9.653442759211));
#620 = CARTESIAN_POINT('',(-36.94719334729,-1.904790247082,
    -9.821889360344));
#621 = CARTESIAN_POINT('',(-36.96280533701,-1.594624485725,
    -9.880471852679));
#622 = CARTESIAN_POINT('',(-36.97554863534,-1.280168618943,
    -9.927955910381));
#623 = CARTESIAN_POINT('',(-36.98523816458,-0.962434340919,
    -9.963887093869));
#624 = CARTESIAN_POINT('',(-36.99174482909,-0.642459103355,
    -9.987956331826));
#625 = CARTESIAN_POINT('',(-36.995,-0.321295391469,-10.));
#626 = CARTESIAN_POINT('',(-36.995,0.470699329855,-10.));
#627 = CARTESIAN_POINT('',(-36.98801304364,0.940601439404,
    -9.974151503814));
#628 = CARTESIAN_POINT('',(-36.97408148322,1.406684709985,
    -9.922612540047));
#629 = CARTESIAN_POINT('',(-36.95350917036,1.865958932806,
    -9.846114046503));
#630 = CARTESIAN_POINT('',(-36.92685283479,2.31552811339,-9.745951707583
    ));
#631 = CARTESIAN_POINT('',(-36.89488404112,2.752652136767,
    -9.623985541665));
#632 = CARTESIAN_POINT('',(-36.83432855868,3.455682386714,
    -9.388609753778));
#633 = CARTESIAN_POINT('',(-36.80816293107,3.730251306874,
    -9.285889537158));
#634 = CARTESIAN_POINT('',(-36.78024473678,3.998242160778,-9.17500048056
    ));
#635 = CARTESIAN_POINT('',(-36.75079924778,4.259412049394,
    -9.056462345691));
#636 = CARTESIAN_POINT('',(-36.72005363068,4.513546979941,
    -8.930801473687));
#637 = CARTESIAN_POINT('',(-36.68823346555,4.760461778063,
    -8.798551494761));
#638 = CARTESIAN_POINT('',(-36.61232078181,5.316986153604,
    -8.477241996732));
#639 = CARTESIAN_POINT('',(-36.56757496955,5.621139802616,
    -8.283590574837));
#640 = CARTESIAN_POINT('',(-36.52177709811,5.91249047298,-8.080310974232
    ));
#641 = CARTESIAN_POINT('',(-36.47534766653,6.191115322711,
    -7.868327378054));
#642 = CARTESIAN_POINT('',(-36.428671919,6.457129773677,-7.648483982664)
  );
#643 = CARTESIAN_POINT('',(-36.38209936131,6.710678143382,
    -7.421552029809));
#644 = CARTESIAN_POINT('',(-36.2976288327,7.152184151518,-6.99456048722)
  );
#645 = CARTESIAN_POINT('',(-36.25959396857,7.34400618119,-6.796447822391
    ));
#646 = CARTESIAN_POINT('',(-36.22201132759,7.527515205425,
    -6.594262426638));
#647 = CARTESIAN_POINT('',(-36.18503806248,7.702834252863,
    -6.388336408887));
#648 = CARTESIAN_POINT('',(-36.14881660532,7.870084631082,
    -6.178970420101));
#649 = CARTESIAN_POINT('',(-36.11347543697,8.029386016566,
    -5.966433668741));
#650 = CARTESIAN_POINT('',(-35.95876612735,8.711683431405,
    -4.995852504697));
#651 = CARTESIAN_POINT('',(-35.85053413592,9.146757068639,
    -4.204119230509));
#652 = CARTESIAN_POINT('',(-35.75957555294,9.49024538425,-3.386745296328
    ));
#653 = CARTESIAN_POINT('',(-35.68926814929,9.745562743868,-2.5517425081)
  );
#654 = CARTESIAN_POINT('',(-35.64167107159,9.915093967578,
    -1.705390105489));
#655 = CARTESIAN_POINT('',(-35.61783296327,10.,-0.853096967543));
#656 = CARTESIAN_POINT('',(-35.61783296327,10.,-1.7763568394E-15));
#657 = ORIENTED_EDGE('',*,*,#658,.F.);
#658 = EDGE_CURVE('',#192,#526,#659,.T.);
#659 = B_SPLINE_CURVE_WITH_KNOTS('',1,(#660,#661),.UNSPECIFIED.,.F.,.F.,
  (2,2),(-463.3351423732,463.33514237329),.PIECEWISE_BEZIER_KNOTS.);
#660 = CARTESIAN_POINT('',(-463.3351423732,10.,-2.449293598295E-15));
#661 = CARTESIAN_POINT('',(463.33514237329,10.,-2.449293598295E-15));
#662 = ORIENTED_EDGE('',*,*,#191,.T.);
#663 = ORIENTED_EDGE('',*,*,#658,.T.);
#664 = CYLINDRICAL_SURFACE('',#665,10.);
#665 = AXIS2_PLACEMENT_3D('',#666,#667,#668);
#666 = CARTESIAN_POINT('',(0.,0.,0.));
#667 = DIRECTION('',(1.,0.,0.));
#668 = DIRECTION('',(0.,1.,0.));
#669 = ADVANCED_FACE('',(#670,#691),#694,.F.);
#670 = FACE_BOUND('',#671,.T.);
#671 = EDGE_LOOP('',(#672,#673,#679,#680,#681,#687,#688,#689,#690));
#672 = ORIENTED_EDGE('',*,*,#335,.F.);
#673 = ORIENTED_EDGE('',*,*,#674,.T.);
#674 = EDGE_CURVE('',#336,#398,#675,.T.);
#675 = LINE('',#676,#677);
#676 = CARTESIAN_POINT('',(36.995,0.,-101.6));
#677 = VECTOR('',#678,1.);
#678 = DIRECTION('',(0.,0.,1.));
#679 = ORIENTED_EDGE('',*,*,#459,.T.);
#680 = ORIENTED_EDGE('',*,*,#360,.T.);
#681 = ORIENTED_EDGE('',*,*,#682,.T.);
#682 = EDGE_CURVE('',#361,#509,#683,.T.);
#683 = LINE('',#684,#685);
#684 = CARTESIAN_POINT('',(36.995,0.,-101.6));
#685 = VECTOR('',#686,1.);
#686 = DIRECTION('',(0.,0.,1.));
#687 = ORIENTED_EDGE('',*,*,#508,.T.);
#688 = ORIENTED_EDGE('',*,*,#682,.F.);
#689 = ORIENTED_EDGE('',*,*,#397,.T.);
#690 = ORIENTED_EDGE('',*,*,#674,.F.);
#691 = FACE_BOUND('',#692,.T.);
#692 = EDGE_LOOP('',(#693));
#693 = ORIENTED_EDGE('',*,*,#525,.F.);
#694 = CYLINDRICAL_SURFACE('',#695,36.995);
#695 = AXIS2_PLACEMENT_3D('',#696,#697,#698);
#696 = CARTESIAN_POINT('',(0.,0.,-101.6));
#697 = DIRECTION('',(-0.,-0.,-1.));
#698 = DIRECTION('',(1.,0.,0.));
#699 = ( GEOMETRIC_REPRESENTATION_CONTEXT(3) 
GLOBAL_UNCERTAINTY_ASSIGNED_CONTEXT((#703)) GLOBAL_UNIT_ASSIGNED_CONTEXT
((#700,#701,#702)) REPRESENTATION_CONTEXT('Context #1',
  '3D Context with UNIT and UNCERTAINTY') );
#700 = ( LENGTH_UNIT() NAMED_UNIT(*) SI_UNIT(.MILLI.,.METRE.) );
#701 = ( NAMED_UNIT(*) PLANE_ANGLE_UNIT() SI_UNIT($,.RADIAN.) );
#702 = ( NAMED_UNIT(*) SI_UNIT($,.STERADIAN.) SOLID_ANGLE_UNIT() );
#703 = UNCERTAINTY_MEASURE_WITH_UNIT(LENGTH_MEASURE(2.E-06),#700,
  'distance_accuracy_value','confusion accuracy');
#704 = PRODUCT_RELATED_PRODUCT_CATEGORY('part',$,(#7));
#705 = MECHANICAL_DESIGN_GEOMETRIC_PRESENTATION_REPRESENTATION('',(#706)
  ,#699);
#706 = STYLED_ITEM('color',(#707),#15);
#707 = PRESENTATION_STYLE_ASSIGNMENT((#708,#716));
#708 = SURFACE_STYLE_USAGE(.BOTH.,#709);
#709 = SURFACE_SIDE_STYLE('',(#710,#714));
#710 = SURFACE_STYLE_FILL_AREA(#711);
#711 = FILL_AREA_STYLE('',(#712));
#712 = FILL_AREA_STYLE_COLOUR('',#713);
#713 = COLOUR_RGB('',0.800000010877,0.800000010877,0.901960800373);
#714 = SURFACE_STYLE_RENDERING_WITH_PROPERTIES(.NORMAL_SHADING.,#713,(
    #715));
#715 = SURFACE_STYLE_TRANSPARENT(0.699999988079);
#716 = CURVE_STYLE('',#717,POSITIVE_LENGTH_MEASURE(0.1),#718);
#717 = DRAUGHTING_PRE_DEFINED_CURVE_FONT('continuous');
#718 = COLOUR_RGB('',0.678431390124,0.709803936702,0.741176476869);
ENDSEC;
END-ISO-10303-21;
