ISO-10303-21;
HEADER;
FILE_DESCRIPTION(('FreeCAD Model'),'2;1');
FILE_NAME('Open CASCADE Shape Model','2026-07-20T12:26:01',(''),(''),
  'Open CASCADE STEP processor 7.9','FreeCAD','Unknown');
FILE_SCHEMA(('AUTOMOTIVE_DESIGN { 1 0 10303 214 1 1 1 1 }'));
ENDSEC;
DATA;
#1 = APPLICATION_PROTOCOL_DEFINITION('international standard',
  'automotive_design',2000,#2);
#2 = APPLICATION_CONTEXT(
  'core data for automotive mechanical design processes');
#3 = SHAPE_DEFINITION_REPRESENTATION(#4,#10);
#4 = PRODUCT_DEFINITION_SHAPE('','',#5);
#5 = PRODUCT_DEFINITION('design','',#6,#9);
#6 = PRODUCT_DEFINITION_FORMATION('','',#7);
#7 = PRODUCT('Fin','Fin','',(#8));
#8 = PRODUCT_CONTEXT('',#2,'mechanical');
#9 = PRODUCT_DEFINITION_CONTEXT('part definition',#2,'design');
#10 = ADVANCED_BREP_SHAPE_REPRESENTATION('',(#11,#15),#429);
#11 = AXIS2_PLACEMENT_3D('',#12,#13,#14);
#12 = CARTESIAN_POINT('',(0.,0.,0.));
#13 = DIRECTION('',(0.,0.,1.));
#14 = DIRECTION('',(1.,0.,-0.));
#15 = MANIFOLD_SOLID_BREP('',#16);
#16 = CLOSED_SHELL('',(#17,#57,#88,#128,#159,#190,#221,#252,#283,#314,
    #345,#367,#392,#417));
#17 = ADVANCED_FACE('',(#18),#52,.T.);
#18 = FACE_BOUND('',#19,.T.);
#19 = EDGE_LOOP('',(#20,#30,#38,#46));
#20 = ORIENTED_EDGE('',*,*,#21,.T.);
#21 = EDGE_CURVE('',#22,#24,#26,.T.);
#22 = VERTEX_POINT('',#23);
#23 = CARTESIAN_POINT('',(-18.4277,0.,-19.05));
#24 = VERTEX_POINT('',#25);
#25 = CARTESIAN_POINT('',(-18.4277,-3.,-19.05));
#26 = LINE('',#27,#28);
#27 = CARTESIAN_POINT('',(-18.4277,-4.23E-15,-19.05));
#28 = VECTOR('',#29,1.);
#29 = DIRECTION('',(0.,-1.,2.2E-16));
#30 = ORIENTED_EDGE('',*,*,#31,.T.);
#31 = EDGE_CURVE('',#24,#32,#34,.T.);
#32 = VERTEX_POINT('',#33);
#33 = CARTESIAN_POINT('',(-18.4277,-3.,-4.E-15));
#34 = LINE('',#35,#36);
#35 = CARTESIAN_POINT('',(-18.4277,-3.,-19.05));
#36 = VECTOR('',#37,1.);
#37 = DIRECTION('',(-2.2E-16,-2.2E-16,1.));
#38 = ORIENTED_EDGE('',*,*,#39,.F.);
#39 = EDGE_CURVE('',#40,#32,#42,.T.);
#40 = VERTEX_POINT('',#41);
#41 = CARTESIAN_POINT('',(-18.4277,0.,-4.E-15));
#42 = LINE('',#43,#44);
#43 = CARTESIAN_POINT('',(-18.4277,0.,-4.09E-15));
#44 = VECTOR('',#45,1.);
#45 = DIRECTION('',(0.,-1.,2.2E-16));
#46 = ORIENTED_EDGE('',*,*,#47,.F.);
#47 = EDGE_CURVE('',#22,#40,#48,.T.);
#48 = LINE('',#49,#50);
#49 = CARTESIAN_POINT('',(-18.4277,8.32E-15,-19.05));
#50 = VECTOR('',#51,1.);
#51 = DIRECTION('',(-2.2E-16,-2.2E-16,1.));
#52 = PLANE('',#53);
#53 = AXIS2_PLACEMENT_3D('',#54,#55,#56);
#54 = CARTESIAN_POINT('',(-18.4277,-4.23E-15,-19.05));
#55 = DIRECTION('',(-1.,-0.,-2.2E-16));
#56 = DIRECTION('',(-2.2E-16,2.2E-16,1.));
#57 = ADVANCED_FACE('',(#58),#83,.F.);
#58 = FACE_BOUND('',#59,.F.);
#59 = EDGE_LOOP('',(#60,#61,#69,#77));
#60 = ORIENTED_EDGE('',*,*,#21,.T.);
#61 = ORIENTED_EDGE('',*,*,#62,.T.);
#62 = EDGE_CURVE('',#24,#63,#65,.T.);
#63 = VERTEX_POINT('',#64);
#64 = CARTESIAN_POINT('',(-9.21385,-3.,-19.05));
#65 = LINE('',#66,#67);
#66 = CARTESIAN_POINT('',(-18.4277,-3.,-19.05));
#67 = VECTOR('',#68,1.);
#68 = DIRECTION('',(1.,-2.2E-16,2.2E-16));
#69 = ORIENTED_EDGE('',*,*,#70,.F.);
#70 = EDGE_CURVE('',#71,#63,#73,.T.);
#71 = VERTEX_POINT('',#72);
#72 = CARTESIAN_POINT('',(-9.21385,0.,-19.05));
#73 = LINE('',#74,#75);
#74 = CARTESIAN_POINT('',(-9.21385,-4.23E-15,-19.05));
#75 = VECTOR('',#76,1.);
#76 = DIRECTION('',(0.,-1.,2.2E-16));
#77 = ORIENTED_EDGE('',*,*,#78,.F.);
#78 = EDGE_CURVE('',#22,#71,#79,.T.);
#79 = LINE('',#80,#81);
#80 = CARTESIAN_POINT('',(-18.4277,8.32E-15,-19.05));
#81 = VECTOR('',#82,1.);
#82 = DIRECTION('',(1.,-2.2E-16,2.2E-16));
#83 = PLANE('',#84);
#84 = AXIS2_PLACEMENT_3D('',#85,#86,#87);
#85 = CARTESIAN_POINT('',(-18.4277,-4.23E-15,-19.05));
#86 = DIRECTION('',(-2.2E-16,2.2E-16,1.));
#87 = DIRECTION('',(1.,0.,2.2E-16));
#88 = ADVANCED_FACE('',(#89),#123,.T.);
#89 = FACE_BOUND('',#90,.T.);
#90 = EDGE_LOOP('',(#91,#101,#109,#117));
#91 = ORIENTED_EDGE('',*,*,#92,.T.);
#92 = EDGE_CURVE('',#93,#95,#97,.T.);
#93 = VERTEX_POINT('',#94);
#94 = CARTESIAN_POINT('',(1.75,0.,0.));
#95 = VERTEX_POINT('',#96);
#96 = CARTESIAN_POINT('',(1.75,-3.,0.));
#97 = LINE('',#98,#99);
#98 = CARTESIAN_POINT('',(1.75,0.,3.9E-16));
#99 = VECTOR('',#100,1.);
#100 = DIRECTION('',(0.,-1.,2.2E-16));
#101 = ORIENTED_EDGE('',*,*,#102,.T.);
#102 = EDGE_CURVE('',#95,#103,#105,.T.);
#103 = VERTEX_POINT('',#104);
#104 = CARTESIAN_POINT('',(70.33,-3.,-104.3805682658));
#105 = LINE('',#106,#107);
#106 = CARTESIAN_POINT('',(1.75,-3.,-4.440892098501E-16));
#107 = VECTOR('',#108,1.);
#108 = DIRECTION('',(0.549105497333,6.E-17,-0.835753045342));
#109 = ORIENTED_EDGE('',*,*,#110,.F.);
#110 = EDGE_CURVE('',#111,#103,#113,.T.);
#111 = VERTEX_POINT('',#112);
#112 = CARTESIAN_POINT('',(70.33,0.,-104.3805682658));
#113 = LINE('',#114,#115);
#114 = CARTESIAN_POINT('',(70.33,-2.318E-14,-104.3805682658));
#115 = VECTOR('',#116,1.);
#116 = DIRECTION('',(0.,-1.,2.2E-16));
#117 = ORIENTED_EDGE('',*,*,#118,.F.);
#118 = EDGE_CURVE('',#93,#111,#119,.T.);
#119 = LINE('',#120,#121);
#120 = CARTESIAN_POINT('',(1.75,-3.9E-16,3.9E-16));
#121 = VECTOR('',#122,1.);
#122 = DIRECTION('',(0.549105497333,6.E-17,-0.835753045342));
#123 = PLANE('',#124);
#124 = AXIS2_PLACEMENT_3D('',#125,#126,#127);
#125 = CARTESIAN_POINT('',(1.75,0.,3.9E-16));
#126 = DIRECTION('',(0.835753045342,1.2E-16,0.549105497333));
#127 = DIRECTION('',(0.549105497333,-1.9E-16,-0.835753045342));
#128 = ADVANCED_FACE('',(#129),#154,.T.);
#129 = FACE_BOUND('',#130,.T.);
#130 = EDGE_LOOP('',(#131,#132,#140,#148));
#131 = ORIENTED_EDGE('',*,*,#110,.T.);
#132 = ORIENTED_EDGE('',*,*,#133,.T.);
#133 = EDGE_CURVE('',#103,#134,#136,.T.);
#134 = VERTEX_POINT('',#135);
#135 = CARTESIAN_POINT('',(70.33,-3.,-155.1805682658));
#136 = LINE('',#137,#138);
#137 = CARTESIAN_POINT('',(70.33,-3.,-104.3805682658));
#138 = VECTOR('',#139,1.);
#139 = DIRECTION('',(2.2E-16,2.2E-16,-1.));
#140 = ORIENTED_EDGE('',*,*,#141,.F.);
#141 = EDGE_CURVE('',#142,#134,#144,.T.);
#142 = VERTEX_POINT('',#143);
#143 = CARTESIAN_POINT('',(70.33,0.,-155.1805682658));
#144 = LINE('',#145,#146);
#145 = CARTESIAN_POINT('',(70.33,-3.446E-14,-155.1805682658));
#146 = VECTOR('',#147,1.);
#147 = DIRECTION('',(0.,-1.,2.2E-16));
#148 = ORIENTED_EDGE('',*,*,#149,.F.);
#149 = EDGE_CURVE('',#111,#142,#150,.T.);
#150 = LINE('',#151,#152);
#151 = CARTESIAN_POINT('',(70.33,7.56E-15,-104.3805682658));
#152 = VECTOR('',#153,1.);
#153 = DIRECTION('',(2.2E-16,2.2E-16,-1.));
#154 = PLANE('',#155);
#155 = AXIS2_PLACEMENT_3D('',#156,#157,#158);
#156 = CARTESIAN_POINT('',(70.33,-2.318E-14,-104.3805682658));
#157 = DIRECTION('',(1.,0.,2.2E-16));
#158 = DIRECTION('',(2.2E-16,-2.2E-16,-1.));
#159 = ADVANCED_FACE('',(#160),#185,.F.);
#160 = FACE_BOUND('',#161,.F.);
#161 = EDGE_LOOP('',(#162,#172,#178,#179));
#162 = ORIENTED_EDGE('',*,*,#163,.T.);
#163 = EDGE_CURVE('',#164,#166,#168,.T.);
#164 = VERTEX_POINT('',#165);
#165 = CARTESIAN_POINT('',(1.75,0.,-101.6));
#166 = VERTEX_POINT('',#167);
#167 = CARTESIAN_POINT('',(1.75,-3.,-101.6));
#168 = LINE('',#169,#170);
#169 = CARTESIAN_POINT('',(1.75,-2.256E-14,-101.6));
#170 = VECTOR('',#171,1.);
#171 = DIRECTION('',(0.,-1.,2.2E-16));
#172 = ORIENTED_EDGE('',*,*,#173,.T.);
#173 = EDGE_CURVE('',#166,#134,#174,.T.);
#174 = LINE('',#175,#176);
#175 = CARTESIAN_POINT('',(1.75,-3.,-101.6));
#176 = VECTOR('',#177,1.);
#177 = DIRECTION('',(0.788010753607,-4.E-17,-0.615661475326));
#178 = ORIENTED_EDGE('',*,*,#141,.F.);
#179 = ORIENTED_EDGE('',*,*,#180,.F.);
#180 = EDGE_CURVE('',#164,#142,#181,.T.);
#181 = LINE('',#182,#183);
#182 = CARTESIAN_POINT('',(1.75,2.217E-14,-101.6));
#183 = VECTOR('',#184,1.);
#184 = DIRECTION('',(0.788010753607,-4.E-17,-0.615661475326));
#185 = PLANE('',#186);
#186 = AXIS2_PLACEMENT_3D('',#187,#188,#189);
#187 = CARTESIAN_POINT('',(1.75,-2.256E-14,-101.6));
#188 = DIRECTION('',(0.615661475326,1.7E-16,0.788010753607));
#189 = DIRECTION('',(0.788010753607,-1.4E-16,-0.615661475326));
#190 = ADVANCED_FACE('',(#191),#216,.F.);
#191 = FACE_BOUND('',#192,.F.);
#192 = EDGE_LOOP('',(#193,#203,#209,#210));
#193 = ORIENTED_EDGE('',*,*,#194,.T.);
#194 = EDGE_CURVE('',#195,#197,#199,.T.);
#195 = VERTEX_POINT('',#196);
#196 = CARTESIAN_POINT('',(2.3E-14,0.,-101.6));
#197 = VERTEX_POINT('',#198);
#198 = CARTESIAN_POINT('',(2.3E-14,-3.,-101.6));
#199 = LINE('',#200,#201);
#200 = CARTESIAN_POINT('',(2.256E-14,-2.256E-14,-101.6));
#201 = VECTOR('',#202,1.);
#202 = DIRECTION('',(0.,-1.,2.2E-16));
#203 = ORIENTED_EDGE('',*,*,#204,.T.);
#204 = EDGE_CURVE('',#197,#166,#205,.T.);
#205 = LINE('',#206,#207);
#206 = CARTESIAN_POINT('',(2.189E-14,-3.,-101.6));
#207 = VECTOR('',#208,1.);
#208 = DIRECTION('',(1.,-2.2E-16,2.2E-16));
#209 = ORIENTED_EDGE('',*,*,#163,.F.);
#210 = ORIENTED_EDGE('',*,*,#211,.F.);
#211 = EDGE_CURVE('',#195,#164,#212,.T.);
#212 = LINE('',#213,#214);
#213 = CARTESIAN_POINT('',(2.256E-14,2.256E-14,-101.6));
#214 = VECTOR('',#215,1.);
#215 = DIRECTION('',(1.,-2.2E-16,2.2E-16));
#216 = PLANE('',#217);
#217 = AXIS2_PLACEMENT_3D('',#218,#219,#220);
#218 = CARTESIAN_POINT('',(2.256E-14,-2.256E-14,-101.6));
#219 = DIRECTION('',(-2.2E-16,2.2E-16,1.));
#220 = DIRECTION('',(1.,0.,2.2E-16));
#221 = ADVANCED_FACE('',(#222),#247,.T.);
#222 = FACE_BOUND('',#223,.T.);
#223 = EDGE_LOOP('',(#224,#225,#233,#241));
#224 = ORIENTED_EDGE('',*,*,#194,.T.);
#225 = ORIENTED_EDGE('',*,*,#226,.T.);
#226 = EDGE_CURVE('',#197,#227,#229,.T.);
#227 = VERTEX_POINT('',#228);
#228 = CARTESIAN_POINT('',(2.E-14,-3.,-88.9));
#229 = LINE('',#230,#231);
#230 = CARTESIAN_POINT('',(2.189E-14,-3.,-101.6));
#231 = VECTOR('',#232,1.);
#232 = DIRECTION('',(-2.2E-16,-2.2E-16,1.));
#233 = ORIENTED_EDGE('',*,*,#234,.F.);
#234 = EDGE_CURVE('',#235,#227,#237,.T.);
#235 = VERTEX_POINT('',#236);
#236 = CARTESIAN_POINT('',(2.E-14,0.,-88.9));
#237 = LINE('',#238,#239);
#238 = CARTESIAN_POINT('',(1.974E-14,-1.974E-14,-88.9));
#239 = VECTOR('',#240,1.);
#240 = DIRECTION('',(0.,-1.,2.2E-16));
#241 = ORIENTED_EDGE('',*,*,#242,.F.);
#242 = EDGE_CURVE('',#195,#235,#243,.T.);
#243 = LINE('',#244,#245);
#244 = CARTESIAN_POINT('',(2.256E-14,2.256E-14,-101.6));
#245 = VECTOR('',#246,1.);
#246 = DIRECTION('',(-2.2E-16,-2.2E-16,1.));
#247 = PLANE('',#248);
#248 = AXIS2_PLACEMENT_3D('',#249,#250,#251);
#249 = CARTESIAN_POINT('',(2.256E-14,-2.256E-14,-101.6));
#250 = DIRECTION('',(-1.,-0.,-2.2E-16));
#251 = DIRECTION('',(-2.2E-16,2.2E-16,1.));
#252 = ADVANCED_FACE('',(#253),#278,.F.);
#253 = FACE_BOUND('',#254,.F.);
#254 = EDGE_LOOP('',(#255,#265,#271,#272));
#255 = ORIENTED_EDGE('',*,*,#256,.T.);
#256 = EDGE_CURVE('',#257,#259,#261,.T.);
#257 = VERTEX_POINT('',#258);
#258 = CARTESIAN_POINT('',(-18.4277,0.,-88.9));
#259 = VERTEX_POINT('',#260);
#260 = CARTESIAN_POINT('',(-18.4277,-3.,-88.9));
#261 = LINE('',#262,#263);
#262 = CARTESIAN_POINT('',(-18.4277,-1.974E-14,-88.9));
#263 = VECTOR('',#264,1.);
#264 = DIRECTION('',(0.,-1.,2.2E-16));
#265 = ORIENTED_EDGE('',*,*,#266,.T.);
#266 = EDGE_CURVE('',#259,#227,#267,.T.);
#267 = LINE('',#268,#269);
#268 = CARTESIAN_POINT('',(-18.4277,-3.,-88.9));
#269 = VECTOR('',#270,1.);
#270 = DIRECTION('',(1.,-2.2E-16,2.2E-16));
#271 = ORIENTED_EDGE('',*,*,#234,.F.);
#272 = ORIENTED_EDGE('',*,*,#273,.F.);
#273 = EDGE_CURVE('',#257,#235,#274,.T.);
#274 = LINE('',#275,#276);
#275 = CARTESIAN_POINT('',(-18.4277,2.383E-14,-88.9));
#276 = VECTOR('',#277,1.);
#277 = DIRECTION('',(1.,-2.2E-16,2.2E-16));
#278 = PLANE('',#279);
#279 = AXIS2_PLACEMENT_3D('',#280,#281,#282);
#280 = CARTESIAN_POINT('',(-18.4277,-1.974E-14,-88.9));
#281 = DIRECTION('',(-2.2E-16,2.2E-16,1.));
#282 = DIRECTION('',(1.,0.,2.2E-16));
#283 = ADVANCED_FACE('',(#284),#309,.F.);
#284 = FACE_BOUND('',#285,.F.);
#285 = EDGE_LOOP('',(#286,#296,#302,#303));
#286 = ORIENTED_EDGE('',*,*,#287,.T.);
#287 = EDGE_CURVE('',#288,#290,#292,.T.);
#288 = VERTEX_POINT('',#289);
#289 = CARTESIAN_POINT('',(-18.4277,0.,-25.4));
#290 = VERTEX_POINT('',#291);
#291 = CARTESIAN_POINT('',(-18.4277,-3.,-25.4));
#292 = LINE('',#293,#294);
#293 = CARTESIAN_POINT('',(-18.4277,-5.64E-15,-25.4));
#294 = VECTOR('',#295,1.);
#295 = DIRECTION('',(0.,-1.,2.2E-16));
#296 = ORIENTED_EDGE('',*,*,#297,.T.);
#297 = EDGE_CURVE('',#290,#259,#298,.T.);
#298 = LINE('',#299,#300);
#299 = CARTESIAN_POINT('',(-18.4277,-3.,-25.4));
#300 = VECTOR('',#301,1.);
#301 = DIRECTION('',(2.2E-16,2.2E-16,-1.));
#302 = ORIENTED_EDGE('',*,*,#256,.F.);
#303 = ORIENTED_EDGE('',*,*,#304,.F.);
#304 = EDGE_CURVE('',#288,#257,#305,.T.);
#305 = LINE('',#306,#307);
#306 = CARTESIAN_POINT('',(-18.4277,9.73E-15,-25.4));
#307 = VECTOR('',#308,1.);
#308 = DIRECTION('',(2.2E-16,2.2E-16,-1.));
#309 = PLANE('',#310);
#310 = AXIS2_PLACEMENT_3D('',#311,#312,#313);
#311 = CARTESIAN_POINT('',(-18.4277,-5.64E-15,-25.4));
#312 = DIRECTION('',(1.,0.,2.2E-16));
#313 = DIRECTION('',(2.2E-16,-2.2E-16,-1.));
#314 = ADVANCED_FACE('',(#315),#340,.F.);
#315 = FACE_BOUND('',#316,.F.);
#316 = EDGE_LOOP('',(#317,#327,#333,#334));
#317 = ORIENTED_EDGE('',*,*,#318,.T.);
#318 = EDGE_CURVE('',#319,#321,#323,.T.);
#319 = VERTEX_POINT('',#320);
#320 = CARTESIAN_POINT('',(-9.21385,0.,-25.4));
#321 = VERTEX_POINT('',#322);
#322 = CARTESIAN_POINT('',(-9.21385,-3.,-25.4));
#323 = LINE('',#324,#325);
#324 = CARTESIAN_POINT('',(-9.21385,-5.64E-15,-25.4));
#325 = VECTOR('',#326,1.);
#326 = DIRECTION('',(0.,-1.,2.2E-16));
#327 = ORIENTED_EDGE('',*,*,#328,.T.);
#328 = EDGE_CURVE('',#321,#290,#329,.T.);
#329 = LINE('',#330,#331);
#330 = CARTESIAN_POINT('',(-9.21385,-3.,-25.4));
#331 = VECTOR('',#332,1.);
#332 = DIRECTION('',(-1.,2.2E-16,-2.2E-16));
#333 = ORIENTED_EDGE('',*,*,#287,.F.);
#334 = ORIENTED_EDGE('',*,*,#335,.F.);
#335 = EDGE_CURVE('',#319,#288,#336,.T.);
#336 = LINE('',#337,#338);
#337 = CARTESIAN_POINT('',(-9.21385,7.69E-15,-25.4));
#338 = VECTOR('',#339,1.);
#339 = DIRECTION('',(-1.,2.2E-16,-2.2E-16));
#340 = PLANE('',#341);
#341 = AXIS2_PLACEMENT_3D('',#342,#343,#344);
#342 = CARTESIAN_POINT('',(-9.21385,-5.64E-15,-25.4));
#343 = DIRECTION('',(2.2E-16,-2.2E-16,-1.));
#344 = DIRECTION('',(-1.,0.,-2.2E-16));
#345 = ADVANCED_FACE('',(#346),#362,.F.);
#346 = FACE_BOUND('',#347,.F.);
#347 = EDGE_LOOP('',(#348,#349,#355,#356));
#348 = ORIENTED_EDGE('',*,*,#70,.T.);
#349 = ORIENTED_EDGE('',*,*,#350,.T.);
#350 = EDGE_CURVE('',#63,#321,#351,.T.);
#351 = LINE('',#352,#353);
#352 = CARTESIAN_POINT('',(-9.21385,-3.,-19.05));
#353 = VECTOR('',#354,1.);
#354 = DIRECTION('',(2.2E-16,2.2E-16,-1.));
#355 = ORIENTED_EDGE('',*,*,#318,.F.);
#356 = ORIENTED_EDGE('',*,*,#357,.F.);
#357 = EDGE_CURVE('',#71,#319,#358,.T.);
#358 = LINE('',#359,#360);
#359 = CARTESIAN_POINT('',(-9.21385,6.28E-15,-19.05));
#360 = VECTOR('',#361,1.);
#361 = DIRECTION('',(2.2E-16,2.2E-16,-1.));
#362 = PLANE('',#363);
#363 = AXIS2_PLACEMENT_3D('',#364,#365,#366);
#364 = CARTESIAN_POINT('',(-9.21385,-4.23E-15,-19.05));
#365 = DIRECTION('',(1.,0.,2.2E-16));
#366 = DIRECTION('',(2.2E-16,-2.2E-16,-1.));
#367 = ADVANCED_FACE('',(#368),#387,.T.);
#368 = FACE_BOUND('',#369,.T.);
#369 = EDGE_LOOP('',(#370,#371,#377,#378,#379,#380,#381,#382,#383,#384,
    #385,#386));
#370 = ORIENTED_EDGE('',*,*,#47,.T.);
#371 = ORIENTED_EDGE('',*,*,#372,.T.);
#372 = EDGE_CURVE('',#40,#93,#373,.T.);
#373 = LINE('',#374,#375);
#374 = CARTESIAN_POINT('',(-18.4277,0.,-4.09E-15));
#375 = VECTOR('',#376,1.);
#376 = DIRECTION('',(1.,0.,2.2E-16));
#377 = ORIENTED_EDGE('',*,*,#118,.T.);
#378 = ORIENTED_EDGE('',*,*,#149,.T.);
#379 = ORIENTED_EDGE('',*,*,#180,.F.);
#380 = ORIENTED_EDGE('',*,*,#211,.F.);
#381 = ORIENTED_EDGE('',*,*,#242,.T.);
#382 = ORIENTED_EDGE('',*,*,#273,.F.);
#383 = ORIENTED_EDGE('',*,*,#304,.F.);
#384 = ORIENTED_EDGE('',*,*,#335,.F.);
#385 = ORIENTED_EDGE('',*,*,#357,.F.);
#386 = ORIENTED_EDGE('',*,*,#78,.F.);
#387 = PLANE('',#388);
#388 = AXIS2_PLACEMENT_3D('',#389,#390,#391);
#389 = CARTESIAN_POINT('',(21.364749992166,0.,-74.85511573146));
#390 = DIRECTION('',(0.,1.,2.2E-16));
#391 = DIRECTION('',(0.,-2.2E-16,1.));
#392 = ADVANCED_FACE('',(#393),#412,.F.);
#393 = FACE_BOUND('',#394,.F.);
#394 = EDGE_LOOP('',(#395,#396,#402,#403,#404,#405,#406,#407,#408,#409,
    #410,#411));
#395 = ORIENTED_EDGE('',*,*,#31,.T.);
#396 = ORIENTED_EDGE('',*,*,#397,.T.);
#397 = EDGE_CURVE('',#32,#95,#398,.T.);
#398 = LINE('',#399,#400);
#399 = CARTESIAN_POINT('',(0.,-3.,6.7E-16));
#400 = VECTOR('',#401,1.);
#401 = DIRECTION('',(1.,0.,2.2E-16));
#402 = ORIENTED_EDGE('',*,*,#102,.T.);
#403 = ORIENTED_EDGE('',*,*,#133,.T.);
#404 = ORIENTED_EDGE('',*,*,#173,.F.);
#405 = ORIENTED_EDGE('',*,*,#204,.F.);
#406 = ORIENTED_EDGE('',*,*,#226,.T.);
#407 = ORIENTED_EDGE('',*,*,#266,.F.);
#408 = ORIENTED_EDGE('',*,*,#297,.F.);
#409 = ORIENTED_EDGE('',*,*,#328,.F.);
#410 = ORIENTED_EDGE('',*,*,#350,.F.);
#411 = ORIENTED_EDGE('',*,*,#62,.F.);
#412 = PLANE('',#413);
#413 = AXIS2_PLACEMENT_3D('',#414,#415,#416);
#414 = CARTESIAN_POINT('',(21.364749992166,-3.,-74.85511573146));
#415 = DIRECTION('',(0.,1.,2.2E-16));
#416 = DIRECTION('',(0.,-2.2E-16,1.));
#417 = ADVANCED_FACE('',(#418),#424,.T.);
#418 = FACE_BOUND('',#419,.T.);
#419 = EDGE_LOOP('',(#420,#421,#422,#423));
#420 = ORIENTED_EDGE('',*,*,#39,.T.);
#421 = ORIENTED_EDGE('',*,*,#397,.T.);
#422 = ORIENTED_EDGE('',*,*,#92,.F.);
#423 = ORIENTED_EDGE('',*,*,#372,.F.);
#424 = PLANE('',#425);
#425 = AXIS2_PLACEMENT_3D('',#426,#427,#428);
#426 = CARTESIAN_POINT('',(-8.33885,-1.5,-1.52E-15));
#427 = DIRECTION('',(0.,2.2E-16,1.));
#428 = DIRECTION('',(0.,-1.,2.2E-16));
#429 = ( GEOMETRIC_REPRESENTATION_CONTEXT(3) 
GLOBAL_UNCERTAINTY_ASSIGNED_CONTEXT((#433)) GLOBAL_UNIT_ASSIGNED_CONTEXT
((#430,#431,#432)) REPRESENTATION_CONTEXT('Context #1',
  '3D Context with UNIT and UNCERTAINTY') );
#430 = ( LENGTH_UNIT() NAMED_UNIT(*) SI_UNIT(.MILLI.,.METRE.) );
#431 = ( NAMED_UNIT(*) PLANE_ANGLE_UNIT() SI_UNIT($,.RADIAN.) );
#432 = ( NAMED_UNIT(*) SI_UNIT($,.STERADIAN.) SOLID_ANGLE_UNIT() );
#433 = UNCERTAINTY_MEASURE_WITH_UNIT(LENGTH_MEASURE(1.E-07),#430,
  'distance_accuracy_value','confusion accuracy');
#434 = PRODUCT_RELATED_PRODUCT_CATEGORY('part',$,(#7));
#435 = MECHANICAL_DESIGN_GEOMETRIC_PRESENTATION_REPRESENTATION('',(#436)
  ,#429);
#436 = STYLED_ITEM('color',(#437),#15);
#437 = PRESENTATION_STYLE_ASSIGNMENT((#438,#444));
#438 = SURFACE_STYLE_USAGE(.BOTH.,#439);
#439 = SURFACE_SIDE_STYLE('',(#440));
#440 = SURFACE_STYLE_FILL_AREA(#441);
#441 = FILL_AREA_STYLE('',(#442));
#442 = FILL_AREA_STYLE_COLOUR('',#443);
#443 = COLOUR_RGB('',0.447058818107,0.474509808674,0.501960817233);
#444 = CURVE_STYLE('',#445,POSITIVE_LENGTH_MEASURE(0.1),#446);
#445 = DRAUGHTING_PRE_DEFINED_CURVE_FONT('continuous');
#446 = COLOUR_RGB('',0.678431390124,0.709803936702,0.741176476869);
ENDSEC;
END-ISO-10303-21;
